Asap-Regular.ufo
<glyph name="quotedbl" format="2">
  <advance width="319"/>
  <unicode hex="0022"/>
  <outline>
    <contour>
      <point x="222" y="472" type="curve"/>
      <point x="223" y="472" type="line"/>
      <point x="236" y="472"/>
      <point x="243" y="476"/>
      <point x="245" y="484" type="curve"/>
      <point x="253" y="549"/>
      <point x="268" y="671"/>
      <point x="268" y="680" type="curve"/>
      <point x="268" y="694"/>
      <point x="256" y="702"/>
      <point x="228" y="702" type="curve" smooth="yes"/>
      <point x="218" y="702" type="line" smooth="yes"/>
      <point x="190" y="702"/>
      <point x="178" y="694"/>
      <point x="178" y="680" type="curve" smooth="yes"/>
      <point x="178" y="668" type="line"/>
      <point x="200" y="484" type="line"/>
      <point x="202" y="476"/>
      <point x="209" y="472"/>
    </contour>
    <contour>
      <point x="94" y="472" type="curve"/>
      <point x="95" y="472" type="line"/>
      <point x="108" y="472"/>
      <point x="115" y="476"/>
      <point x="117" y="484" type="curve"/>
      <point x="125" y="549"/>
      <point x="140" y="671"/>
      <point x="140" y="680" type="curve"/>
      <point x="140" y="694"/>
      <point x="128" y="702"/>
      <point x="100" y="702" type="curve" smooth="yes"/>
      <point x="90" y="702" type="line" smooth="yes"/>
      <point x="62" y="702"/>
      <point x="50" y="694"/>
      <point x="50" y="680" type="curve" smooth="yes"/>
      <point x="50" y="668" type="line"/>
      <point x="72" y="484" type="line"/>
      <point x="74" y="476"/>
      <point x="81" y="472"/>
    </contour>
  </outline>
</glyph>
<glyph name="dollar" format="2">
  <advance width="496"/>
  <unicode hex="0024"/>
  <outline>
    <contour>
      <point x="254" y="-71" type="line" smooth="yes"/>
      <point x="267" y="-71"/>
      <point x="273" y="-66"/>
      <point x="273" y="-55" type="curve" smooth="yes"/>
      <point x="273" y="-5" type="line"/>
      <point x="390" y="5"/>
      <point x="464" y="77"/>
      <point x="464" y="191" type="curve" smooth="yes"/>
      <point x="464" y="329"/>
      <point x="362" y="365"/>
      <point x="273" y="397" type="curve"/>
      <point x="273" y="630" type="line"/>
      <point x="317" y="629"/>
      <point x="347" y="616"/>
      <point x="368" y="606" type="curve" smooth="yes"/>
      <point x="383" y="598"/>
      <point x="393" y="592"/>
      <point x="399" y="592" type="curve" smooth="yes"/>
      <point x="409" y="592"/>
      <point x="431" y="630"/>
      <point x="431" y="645" type="curve" smooth="yes"/>
      <point x="431" y="656"/>
      <point x="420" y="665"/>
      <point x="404" y="673" type="curve" smooth="yes"/>
      <point x="370" y="691"/>
      <point x="312" y="701"/>
      <point x="273" y="702" type="curve"/>
      <point x="273" y="742" type="line" smooth="yes"/>
      <point x="273" y="752"/>
      <point x="268" y="758"/>
      <point x="255" y="758" type="curve" smooth="yes"/>
      <point x="253" y="758" type="line" smooth="yes"/>
      <point x="239" y="758"/>
      <point x="233" y="753"/>
      <point x="233" y="742" type="curve" smooth="yes"/>
      <point x="233" y="700" type="line"/>
      <point x="120" y="688"/>
      <point x="48" y="620"/>
      <point x="48" y="522" type="curve" smooth="yes"/>
      <point x="48" y="393"/>
      <point x="145" y="358"/>
      <point x="233" y="324" type="curve"/>
      <point x="233" y="66" type="line"/>
      <point x="164" y="68"/>
      <point x="117" y="95"/>
      <point x="91" y="110" type="curve" smooth="yes"/>
      <point x="80" y="117"/>
      <point x="73" y="121"/>
      <point x="70" y="121" type="curve" smooth="yes"/>
      <point x="59" y="121"/>
      <point x="35" y="83"/>
      <point x="35" y="67" type="curve" smooth="yes"/>
      <point x="35" y="52"/>
      <point x="61" y="32"/>
      <point x="104" y="17" type="curve" smooth="yes"/>
      <point x="138" y="5"/>
      <point x="183" y="-5"/>
      <point x="233" y="-6" type="curve"/>
      <point x="233" y="-55" type="line" smooth="yes"/>
      <point x="233" y="-66"/>
      <point x="239" y="-71"/>
      <point x="253" y="-71" type="curve" smooth="yes"/>
    </contour>
    <contour>
      <point x="273" y="69" type="curve"/>
      <point x="273" y="308" type="line"/>
      <point x="328" y="284"/>
      <point x="373" y="254"/>
      <point x="373" y="191" type="curve" smooth="yes"/>
      <point x="373" y="126"/>
      <point x="332" y="80"/>
    </contour>
    <contour>
      <point x="233" y="412" type="line"/>
      <point x="180" y="434"/>
      <point x="139" y="461"/>
      <point x="139" y="518" type="curve" smooth="yes"/>
      <point x="139" y="581"/>
      <point x="176" y="617"/>
      <point x="233" y="627" type="curve"/>
    </contour>
  </outline>
</glyph>
<glyph name="percent" format="2">
  <advance width="765"/>
  <unicode hex="0025"/>
  <outline>
    <contour>
      <point x="185" y="-7" type="curve" smooth="yes"/>
      <point x="190" y="-7" type="line" smooth="yes"/>
      <point x="209" y="-7"/>
      <point x="223" y="-1"/>
      <point x="230" y="12" type="curve" smooth="yes"/>
      <point x="603" y="687" type="line" smooth="yes"/>
      <point x="605" y="691"/>
      <point x="607" y="694"/>
      <point x="607" y="697" type="curve" smooth="yes"/>
      <point x="607" y="702"/>
      <point x="598" y="706"/>
      <point x="583" y="706" type="curve" smooth="yes"/>
      <point x="578" y="706" type="line" smooth="yes"/>
      <point x="559" y="706"/>
      <point x="545" y="700"/>
      <point x="538" y="687" type="curve" smooth="yes"/>
      <point x="165" y="12" type="line"/>
      <point x="162" y="8"/>
      <point x="161" y="4"/>
      <point x="161" y="2" type="curve" smooth="yes"/>
      <point x="161" y="-3"/>
      <point x="170" y="-7"/>
    </contour>
    <contour>
      <point x="568" y="-5" type="curve" smooth="yes"/>
      <point x="628" y="-5"/>
      <point x="705" y="22"/>
      <point x="705" y="156" type="curve" smooth="yes"/>
      <point x="705" y="291"/>
      <point x="630" y="320"/>
      <point x="568" y="320" type="curve" smooth="yes"/>
      <point x="502" y="320"/>
      <point x="431" y="291"/>
      <point x="431" y="156" type="curve" smooth="yes"/>
      <point x="431" y="22"/>
      <point x="506" y="-5"/>
    </contour>
    <contour>
      <point x="568" y="50" type="curve" smooth="yes"/>
      <point x="503" y="50"/>
      <point x="497" y="109"/>
      <point x="497" y="156" type="curve" smooth="yes"/>
      <point x="497" y="203"/>
      <point x="502" y="266"/>
      <point x="568" y="266" type="curve" smooth="yes"/>
      <point x="636" y="266"/>
      <point x="641" y="203"/>
      <point x="641" y="156" type="curve" smooth="yes"/>
      <point x="641" y="109"/>
      <point x="631" y="50"/>
    </contour>
    <contour>
      <point x="197" y="381" type="curve" smooth="yes"/>
      <point x="257" y="381"/>
      <point x="334" y="408"/>
      <point x="334" y="542" type="curve" smooth="yes"/>
      <point x="334" y="677"/>
      <point x="259" y="706"/>
      <point x="197" y="706" type="curve" smooth="yes"/>
      <point x="131" y="706"/>
      <point x="60" y="677"/>
      <point x="60" y="542" type="curve" smooth="yes"/>
      <point x="60" y="408"/>
      <point x="135" y="381"/>
    </contour>
    <contour>
      <point x="197" y="436" type="curve" smooth="yes"/>
      <point x="132" y="436"/>
      <point x="126" y="495"/>
      <point x="126" y="542" type="curve" smooth="yes"/>
      <point x="126" y="589"/>
      <point x="131" y="652"/>
      <point x="197" y="652" type="curve" smooth="yes"/>
      <point x="265" y="652"/>
      <point x="270" y="589"/>
      <point x="270" y="542" type="curve" smooth="yes"/>
      <point x="270" y="495"/>
      <point x="260" y="436"/>
    </contour>
  </outline>
</glyph>
<glyph name="quotesingle" format="2">
  <advance width="183"/>
  <unicode hex="0027"/>
  <outline>
    <contour>
      <point x="94" y="472" type="curve"/>
      <point x="95" y="472" type="line"/>
      <point x="108" y="472"/>
      <point x="115" y="476"/>
      <point x="117" y="484" type="curve"/>
      <point x="125" y="549"/>
      <point x="140" y="671"/>
      <point x="140" y="680" type="curve"/>
      <point x="140" y="694"/>
      <point x="128" y="702"/>
      <point x="100" y="702" type="curve" smooth="yes"/>
      <point x="90" y="702" type="line" smooth="yes"/>
      <point x="62" y="702"/>
      <point x="50" y="694"/>
      <point x="50" y="680" type="curve" smooth="yes"/>
      <point x="50" y="668" type="line"/>
      <point x="72" y="484" type="line"/>
      <point x="74" y="476"/>
      <point x="81" y="472"/>
    </contour>
  </outline>
</glyph>
<glyph name="asterisk" format="2">
  <advance width="373"/>
  <unicode hex="002A"/>
  <outline>
    <contour>
      <point x="93" y="414" type="curve" smooth="yes"/>
      <point x="98" y="414"/>
      <point x="103.5" y="417"/>
      <point x="108" y="423" type="curve" smooth="yes"/>
      <point x="181" y="524" type="line"/>
      <point x="254" y="423" type="line" smooth="yes"/>
      <point x="258" y="417"/>
      <point x="263" y="414"/>
      <point x="269" y="414" type="curve" smooth="yes"/>
      <point x="278" y="414"/>
      <point x="291" y="425"/>
      <point x="291" y="434" type="curve" smooth="yes"/>
      <point x="291" y="438"/>
      <point x="289.5" y="442"/>
      <point x="286" y="447" type="curve" smooth="yes"/>
      <point x="214" y="546" type="line"/>
      <point x="313" y="578" type="line" smooth="yes"/>
      <point x="323" y="581"/>
      <point x="327" y="586"/>
      <point x="327" y="594" type="curve" smooth="yes"/>
      <point x="327" y="609"/>
      <point x="317" y="617"/>
      <point x="309" y="617" type="curve" smooth="yes"/>
      <point x="306" y="617"/>
      <point x="303" y="617"/>
      <point x="300" y="616" type="curve" smooth="yes"/>
      <point x="201" y="584" type="line"/>
      <point x="201" y="689" type="line" smooth="yes"/>
      <point x="201" y="703"/>
      <point x="195" y="709"/>
      <point x="181" y="709" type="curve" smooth="yes"/>
      <point x="167" y="709"/>
      <point x="161" y="703"/>
      <point x="161" y="689" type="curve" smooth="yes"/>
      <point x="161" y="584" type="line"/>
      <point x="62" y="616" type="line" smooth="yes"/>
      <point x="59" y="617"/>
      <point x="56" y="617"/>
      <point x="53" y="617" type="curve" smooth="yes"/>
      <point x="44" y="617"/>
      <point x="35" y="608"/>
      <point x="35" y="593" type="curve" smooth="yes"/>
      <point x="35" y="586"/>
      <point x="39" y="581"/>
      <point x="49" y="578" type="curve" smooth="yes"/>
      <point x="147" y="546" type="line"/>
      <point x="76" y="447" type="line" smooth="yes"/>
      <point x="72" y="442"/>
      <point x="71" y="438"/>
      <point x="71" y="434" type="curve" smooth="yes"/>
      <point x="71" y="425"/>
      <point x="83" y="414"/>
    </contour>
  </outline>
</glyph>
<glyph name="period" format="2">
  <advance width="198"/>
  <unicode hex="002E"/>
  <outline>
    <contour>
      <point x="91" y="-2" type="curve" smooth="yes"/>
      <point x="108" y="-2" type="line" smooth="yes"/>
      <point x="136" y="-2"/>
      <point x="148" y="6"/>
      <point x="148" y="20" type="curve" smooth="yes"/>
      <point x="148" y="86" type="line" smooth="yes"/>
      <point x="148" y="100"/>
      <point x="136" y="108"/>
      <point x="108" y="108" type="curve" smooth="yes"/>
      <point x="91" y="108" type="line" smooth="yes"/>
      <point x="63" y="108"/>
      <point x="51" y="100"/>
      <point x="51" y="86" type="curve" smooth="yes"/>
      <point x="51" y="20" type="line" smooth="yes"/>
      <point x="51" y="6"/>
      <point x="63" y="-2"/>
    </contour>
  </outline>
</glyph>
<glyph name="two" format="2">
  <advance width="535"/>
  <unicode hex="0032"/>
  <outline>
    <contour>
      <point x="71" y="0" type="curve" smooth="yes"/>
      <point x="453" y="0" type="line" smooth="yes"/>
      <point x="467" y="0"/>
      <point x="473" y="9"/>
      <point x="473" y="30" type="curve" smooth="yes"/>
      <point x="473" y="41" type="line" smooth="yes"/>
      <point x="473" y="62"/>
      <point x="467" y="71"/>
      <point x="453" y="71" type="curve" smooth="yes"/>
      <point x="165" y="71" type="line"/>
      <point x="238" y="160" type="line" smooth="yes"/>
      <point x="440.5" y="406.5"/>
      <point x="467" y="440"/>
      <point x="467" y="536" type="curve" smooth="yes"/>
      <point x="467" y="641"/>
      <point x="385" y="706"/>
      <point x="254" y="706" type="curve" smooth="yes"/>
      <point x="193" y="706"/>
      <point x="74" y="675"/>
      <point x="74" y="633" type="curve" smooth="yes"/>
      <point x="74" y="618"/>
      <point x="96" y="583"/>
      <point x="106" y="583" type="curve" smooth="yes"/>
      <point x="123" y="583"/>
      <point x="165" y="634"/>
      <point x="256" y="634" type="curve" smooth="yes"/>
      <point x="333" y="634"/>
      <point x="381" y="594"/>
      <point x="381" y="530" type="curve" smooth="yes"/>
      <point x="381" y="488"/>
      <point x="376" y="468"/>
      <point x="313" y="385" type="curve"/>
      <point x="55" y="61" type="line"/>
      <point x="52" y="58"/>
      <point x="51" y="51"/>
      <point x="51" y="44" type="curve" smooth="yes"/>
      <point x="51" y="25"/>
      <point x="59" y="0"/>
    </contour>
  </outline>
</glyph>
<glyph name="four" format="2">
  <advance width="535"/>
  <unicode hex="0034"/>
  <outline>
    <contour>
      <point x="376" y="-2" type="curve" smooth="yes"/>
      <point x="399" y="-2" type="line" smooth="yes"/>
      <point x="420" y="-2"/>
      <point x="429" y="6"/>
      <point x="429" y="20" type="curve" smooth="yes"/>
      <point x="429" y="167" type="line"/>
      <point x="496" y="167" type="line" smooth="yes"/>
      <point x="510" y="167"/>
      <point x="516" y="176"/>
      <point x="516" y="197" type="curve" smooth="yes"/>
      <point x="516" y="209" type="line" smooth="yes"/>
      <point x="516" y="230"/>
      <point x="510" y="239"/>
      <point x="496" y="239" type="curve" smooth="yes"/>
      <point x="429" y="239" type="line"/>
      <point x="429" y="680" type="line" smooth="yes"/>
      <point x="429" y="694"/>
      <point x="420" y="702"/>
      <point x="399" y="702" type="curve" smooth="yes"/>
      <point x="383" y="702" type="line" smooth="yes"/>
      <point x="369" y="702"/>
      <point x="356" y="697"/>
      <point x="349" y="688" type="curve" smooth="yes"/>
      <point x="20" y="229" type="line" smooth="yes"/>
      <point x="18" y="227"/>
      <point x="18" y="223"/>
      <point x="18" y="218" type="curve" smooth="yes"/>
      <point x="18" y="199"/>
      <point x="31" y="167"/>
      <point x="42" y="167" type="curve"/>
      <point x="346" y="167" type="line"/>
      <point x="346" y="20" type="line" smooth="yes"/>
      <point x="346" y="6"/>
      <point x="355" y="-2"/>
    </contour>
    <contour>
      <point x="117" y="239" type="line"/>
      <point x="347" y="566" type="line"/>
      <point x="351" y="564" type="line"/>
      <point x="349" y="556"/>
      <point x="346" y="541"/>
      <point x="346" y="533" type="curve" smooth="yes"/>
      <point x="346" y="239" type="line"/>
    </contour>
  </outline>
</glyph>
<glyph name="six" format="2">
  <advance width="535"/>
  <unicode hex="0036"/>
  <outline>
    <contour>
      <point x="264" y="-5" type="curve" smooth="yes"/>
      <point x="385" y="-5"/>
      <point x="480" y="76"/>
      <point x="480" y="203" type="curve" smooth="yes"/>
      <point x="480" y="326"/>
      <point x="395" y="405"/>
      <point x="289" y="405" type="curve" smooth="yes"/>
      <point x="228" y="405"/>
      <point x="185" y="390"/>
      <point x="154" y="372" type="curve"/>
      <point x="186" y="484"/>
      <point x="265" y="582"/>
      <point x="401" y="638" type="curve" smooth="yes"/>
      <point x="408" y="641"/>
      <point x="409" y="646"/>
      <point x="409" y="649" type="curve" smooth="yes"/>
      <point x="409" y="661"/>
      <point x="397" y="702"/>
      <point x="376" y="702" type="curve" smooth="yes"/>
      <point x="309" y="702"/>
      <point x="51" y="536"/>
      <point x="51" y="247" type="curve" smooth="yes"/>
      <point x="51" y="88"/>
      <point x="122" y="-5"/>
    </contour>
    <contour>
      <point x="269" y="67" type="curve" smooth="yes"/>
      <point x="206" y="67"/>
      <point x="135" y="99"/>
      <point x="135" y="239" type="curve" smooth="yes"/>
      <point x="135" y="258"/>
      <point x="137" y="279"/>
      <point x="139" y="299" type="curve"/>
      <point x="167" y="315"/>
      <point x="211" y="333"/>
      <point x="264" y="333" type="curve" smooth="yes"/>
      <point x="330" y="333"/>
      <point x="395" y="297"/>
      <point x="395" y="199" type="curve" smooth="yes"/>
      <point x="395" y="107"/>
      <point x="323" y="67"/>
    </contour>
  </outline>
</glyph>
<glyph name="colon" format="2">
  <advance width="198"/>
  <unicode hex="003A"/>
  <outline>
    <contour>
      <point x="91" y="415" type="curve"/>
      <point x="108" y="415" type="line" smooth="yes"/>
      <point x="136" y="415"/>
      <point x="148" y="423"/>
      <point x="148" y="437" type="curve" smooth="yes"/>
      <point x="148" y="503" type="line" smooth="yes"/>
      <point x="148" y="517"/>
      <point x="136" y="525"/>
      <point x="108" y="525" type="curve" smooth="yes"/>
      <point x="91" y="525" type="line" smooth="yes"/>
      <point x="63" y="525"/>
      <point x="51" y="517"/>
      <point x="51" y="503" type="curve" smooth="yes"/>
      <point x="51" y="437" type="line" smooth="yes"/>
      <point x="51" y="423"/>
      <point x="63" y="415"/>
    </contour>
    <contour>
      <point x="91" y="-2" type="curve" smooth="yes"/>
      <point x="108" y="-2" type="line" smooth="yes"/>
      <point x="136" y="-2"/>
      <point x="148" y="6"/>
      <point x="148" y="20" type="curve" smooth="yes"/>
      <point x="148" y="86" type="line" smooth="yes"/>
      <point x="148" y="100"/>
      <point x="136" y="108"/>
      <point x="108" y="108" type="curve" smooth="yes"/>
      <point x="91" y="108" type="line" smooth="yes"/>
      <point x="63" y="108"/>
      <point x="51" y="100"/>
      <point x="51" y="86" type="curve" smooth="yes"/>
      <point x="51" y="20" type="line" smooth="yes"/>
      <point x="51" y="6"/>
      <point x="63" y="-2"/>
    </contour>
  </outline>
</glyph>
<glyph name="semicolon" format="2">
  <advance width="198"/>
  <unicode hex="003B"/>
  <outline>
    <contour>
      <point x="91" y="415" type="curve"/>
      <point x="108" y="415" type="line" smooth="yes"/>
      <point x="136" y="415"/>
      <point x="148" y="423"/>
      <point x="148" y="437" type="curve" smooth="yes"/>
      <point x="148" y="503" type="line" smooth="yes"/>
      <point x="148" y="517"/>
      <point x="136" y="525"/>
      <point x="108" y="525" type="curve" smooth="yes"/>
      <point x="91" y="525" type="line" smooth="yes"/>
      <point x="63" y="525"/>
      <point x="51" y="517"/>
      <point x="51" y="503" type="curve" smooth="yes"/>
      <point x="51" y="437" type="line" smooth="yes"/>
      <point x="51" y="423"/>
      <point x="63" y="415"/>
    </contour>
    <component base="comma"/>
  </outline>
</glyph>
<glyph name="equal" format="2">
  <advance width="560"/>
  <unicode hex="003D"/>
  <outline>
    <contour>
      <point x="78" y="107" type="curve"/>
      <point x="482" y="107" type="line" smooth="yes"/>
      <point x="502" y="107"/>
      <point x="512" y="118"/>
      <point x="512" y="137" type="curve" smooth="yes"/>
      <point x="512" y="145" type="line" smooth="yes"/>
      <point x="512" y="165"/>
      <point x="502" y="175"/>
      <point x="482" y="175" type="curve" smooth="yes"/>
      <point x="78" y="175" type="line" smooth="yes"/>
      <point x="59" y="175"/>
      <point x="48" y="165"/>
      <point x="48" y="145" type="curve" smooth="yes"/>
      <point x="48" y="137" type="line" smooth="yes"/>
      <point x="48" y="118"/>
      <point x="59" y="107"/>
    </contour>
    <contour>
      <point x="78" y="271" type="curve"/>
      <point x="482" y="271" type="line" smooth="yes"/>
      <point x="502" y="271"/>
      <point x="512" y="282"/>
      <point x="512" y="301" type="curve" smooth="yes"/>
      <point x="512" y="308" type="line" smooth="yes"/>
      <point x="512" y="328"/>
      <point x="502" y="338"/>
      <point x="482" y="338" type="curve" smooth="yes"/>
      <point x="78" y="338" type="line" smooth="yes"/>
      <point x="59" y="338"/>
      <point x="48" y="328"/>
      <point x="48" y="308" type="curve" smooth="yes"/>
      <point x="48" y="301" type="line" smooth="yes"/>
      <point x="48" y="282"/>
      <point x="59" y="271"/>
    </contour>
  </outline>
</glyph>
<glyph name="B" format="2">
  <advance width="593"/>
  <unicode hex="0042"/>
  <anchor x="297" y="0" name="bottom"/>
  <anchor x="297" y="700" name="top"/>
  <outline>
    <contour>
      <point x="127" y="0" type="curve" smooth="yes"/>
      <point x="299" y="0" type="line" smooth="yes"/>
      <point x="467" y="0"/>
      <point x="560" y="62"/>
      <point x="560" y="201" type="curve" smooth="yes"/>
      <point x="560" y="333"/>
      <point x="420" y="367"/>
      <point x="420" y="367" type="curve"/>
      <point x="420" y="371" type="line"/>
      <point x="478" y="387"/>
      <point x="530" y="456"/>
      <point x="530" y="523" type="curve" smooth="yes"/>
      <point x="530" y="628"/>
      <point x="455" y="700"/>
      <point x="306" y="700" type="curve" smooth="yes"/>
      <point x="127" y="700" type="line" smooth="yes"/>
      <point x="106" y="700"/>
      <point x="97" y="691"/>
      <point x="97" y="670" type="curve" smooth="yes"/>
      <point x="97" y="30" type="line" smooth="yes"/>
      <point x="97" y="9"/>
      <point x="106" y="0"/>
    </contour>
    <contour>
      <point x="185" y="76" type="line"/>
      <point x="185" y="322" type="line"/>
      <point x="314" y="322" type="line" smooth="yes"/>
      <point x="417" y="322"/>
      <point x="469" y="278"/>
      <point x="469" y="205" type="curve" smooth="yes"/>
      <point x="469" y="126"/>
      <point x="420" y="76"/>
      <point x="331" y="76" type="curve" smooth="yes"/>
    </contour>
    <contour>
      <point x="185" y="398" type="line"/>
      <point x="185" y="624" type="line"/>
      <point x="297" y="624" type="line" smooth="yes"/>
      <point x="397" y="624"/>
      <point x="439" y="589"/>
      <point x="439" y="515" type="curve" smooth="yes"/>
      <point x="439" y="450"/>
      <point x="382" y="398"/>
      <point x="301" y="398" type="curve" smooth="yes"/>
    </contour>
  </outline>
</glyph>
<glyph name="D" format="2">
  <advance width="695"/>
  <unicode hex="0044"/>
  <anchor x="327" y="0" name="bottom"/>
  <anchor x="141" y="350" name="center"/>
  <anchor x="312" y="700" name="top"/>
  <outline>
    <contour>
      <point x="127" y="0" type="curve" smooth="yes"/>
      <point x="329" y="0" type="line" smooth="yes"/>
      <point x="501" y="0"/>
      <point x="638" y="90"/>
      <point x="638" y="350" type="curve" smooth="yes"/>
      <point x="638" y="609"/>
      <point x="501" y="700"/>
      <point x="329" y="700" type="curve" smooth="yes"/>
      <point x="127" y="700" type="line" smooth="yes"/>
      <point x="106" y="700"/>
      <point x="97" y="691"/>
      <point x="97" y="670" type="curve" smooth="yes"/>
      <point x="97" y="30" type="line" smooth="yes"/>
      <point x="97" y="9"/>
      <point x="106" y="0"/>
    </contour>
    <contour>
      <point x="185" y="76" type="line"/>
      <point x="185" y="624" type="line"/>
      <point x="322" y="624" type="line" smooth="yes"/>
      <point x="447" y="624"/>
      <point x="547" y="549"/>
      <point x="547" y="350" type="curve" smooth="yes"/>
      <point x="547" y="150"/>
      <point x="447" y="76"/>
      <point x="322" y="76" type="curve" smooth="yes"/>
    </contour>
  </outline>
</glyph>
<glyph name="E" format="2">
  <advance width="546"/>
  <unicode hex="0045"/>
  <anchor x="300" y="0" name="bottom"/>
  <anchor x="457" y="0" name="ogonek"/>
  <anchor x="296" y="700" name="top"/>
  <outline>
    <contour>
      <point x="127" y="0" type="curve" smooth="yes"/>
      <point x="477" y="0" type="line" smooth="yes"/>
      <point x="491" y="0"/>
      <point x="497" y="9"/>
      <point x="497" y="30" type="curve" smooth="yes"/>
      <point x="497" y="46" type="line" smooth="yes"/>
      <point x="497" y="67"/>
      <point x="491" y="76"/>
      <point x="477" y="76" type="curve" smooth="yes"/>
      <point x="185" y="76" type="line"/>
      <point x="185" y="320" type="line"/>
      <point x="446" y="320" type="line" smooth="yes"/>
      <point x="460" y="320"/>
      <point x="466" y="329"/>
      <point x="466" y="350" type="curve" smooth="yes"/>
      <point x="466" y="366" type="line" smooth="yes"/>
      <point x="466" y="387"/>
      <point x="460" y="396"/>
      <point x="446" y="396" type="curve" smooth="yes"/>
      <point x="185" y="396" type="line"/>
      <point x="185" y="624" type="line"/>
      <point x="476" y="624" type="line" smooth="yes"/>
      <point x="490" y="624"/>
      <point x="496" y="633"/>
      <point x="496" y="654" type="curve" smooth="yes"/>
      <point x="496" y="670" type="line" smooth="yes"/>
      <point x="496" y="691"/>
      <point x="490" y="700"/>
      <point x="476" y="700" type="curve" smooth="yes"/>
      <point x="127" y="700" type="line" smooth="yes"/>
      <point x="106" y="700"/>
      <point x="97" y="691"/>
      <point x="97" y="670" type="curve" smooth="yes"/>
      <point x="97" y="30" type="line" smooth="yes"/>
      <point x="97" y="9"/>
      <point x="106" y="0"/>
    </contour>
  </outline>
</glyph>
<glyph name="F" format="2">
  <advance width="503"/>
  <unicode hex="0046"/>
  <anchor x="141" y="0" name="bottom"/>
  <anchor x="284.5" y="700" name="top"/>
  <outline>
    <contour>
      <point x="137" y="-2" type="curve" smooth="yes"/>
      <point x="145" y="-2" type="line" smooth="yes"/>
      <point x="173" y="-2"/>
      <point x="185" y="6"/>
      <point x="185" y="20" type="curve" smooth="yes"/>
      <point x="185" y="320" type="line"/>
      <point x="424" y="320" type="line" smooth="yes"/>
      <point x="438" y="320"/>
      <point x="444" y="329"/>
      <point x="444" y="350" type="curve" smooth="yes"/>
      <point x="444" y="366" type="line" smooth="yes"/>
      <point x="444" y="387"/>
      <point x="438" y="396"/>
      <point x="424" y="396" type="curve" smooth="yes"/>
      <point x="185" y="396" type="line"/>
      <point x="185" y="624" type="line"/>
      <point x="442" y="624" type="line" smooth="yes"/>
      <point x="456" y="624"/>
      <point x="462" y="633"/>
      <point x="462" y="654" type="curve" smooth="yes"/>
      <point x="462" y="670" type="line" smooth="yes"/>
      <point x="462" y="691"/>
      <point x="456" y="700"/>
      <point x="442" y="700" type="curve" smooth="yes"/>
      <point x="127" y="700" type="line" smooth="yes"/>
      <point x="106" y="700"/>
      <point x="97" y="691"/>
      <point x="97" y="670" type="curve" smooth="yes"/>
      <point x="97" y="20" type="line" smooth="yes"/>
      <point x="97" y="6"/>
      <point x="109" y="-2"/>
    </contour>
  </outline>
</glyph>
<glyph name="G" format="2">
  <advance width="672"/>
  <unicode hex="0047"/>
  <anchor x="387" y="0" name="bottom"/>
  <anchor x="336" y="700" name="top"/>
  <outline>
    <contour>
      <point x="366" y="-6" type="curve" smooth="yes"/>
      <point x="480" y="-6"/>
      <point x="589" y="10"/>
      <point x="589" y="66" type="curve" smooth="yes"/>
      <point x="589" y="331" type="line" smooth="yes"/>
      <point x="589" y="352"/>
      <point x="580" y="361"/>
      <point x="559" y="361" type="curve" smooth="yes"/>
      <point x="384" y="361" type="line" smooth="yes"/>
      <point x="370" y="361"/>
      <point x="364" y="352"/>
      <point x="364" y="331" type="curve" smooth="yes"/>
      <point x="364" y="315" type="line" smooth="yes"/>
      <point x="364" y="294"/>
      <point x="370" y="285"/>
      <point x="384" y="285" type="curve" smooth="yes"/>
      <point x="501" y="285" type="line"/>
      <point x="501" y="48.5" type="line"/>
      <point x="513" y="87" type="line"/>
      <point x="491.5" y="78.5"/>
      <point x="433" y="70"/>
      <point x="372" y="70" type="curve" smooth="yes"/>
      <point x="194" y="70"/>
      <point x="148" y="200"/>
      <point x="148" y="353" type="curve" smooth="yes"/>
      <point x="148" y="527"/>
      <point x="206" y="630"/>
      <point x="383" y="630" type="curve" smooth="yes"/>
      <point x="479" y="630"/>
      <point x="527" y="586"/>
      <point x="538" y="586" type="curve" smooth="yes"/>
      <point x="551" y="586"/>
      <point x="572" y="627"/>
      <point x="572" y="644" type="curve" smooth="yes"/>
      <point x="572" y="671"/>
      <point x="480" y="706"/>
      <point x="381" y="706" type="curve" smooth="yes"/>
      <point x="172" y="706"/>
      <point x="57" y="593"/>
      <point x="57" y="344" type="curve" smooth="yes"/>
      <point x="57" y="106"/>
      <point x="167" y="-6"/>
    </contour>
  </outline>
</glyph>
<glyph name="H" format="2">
  <advance width="733"/>
  <unicode hex="0048"/>
  <anchor x="366" y="0" name="bottom"/>
  <anchor x="366" y="523" name="center"/>
  <anchor x="366" y="700" name="top"/>
  <outline>
    <contour>
      <point x="137" y="-2" type="curve" smooth="yes"/>
      <point x="145" y="-2" type="line" smooth="yes"/>
      <point x="173" y="-2"/>
      <point x="185" y="6"/>
      <point x="185" y="20" type="curve" smooth="yes"/>
      <point x="185" y="321" type="line"/>
      <point x="547" y="321" type="line"/>
      <point x="547" y="20" type="line" smooth="yes"/>
      <point x="547" y="6"/>
      <point x="559" y="-2"/>
      <point x="587" y="-2" type="curve" smooth="yes"/>
      <point x="595" y="-2" type="line" smooth="yes"/>
      <point x="623" y="-2"/>
      <point x="635" y="6"/>
      <point x="635" y="20" type="curve" smooth="yes"/>
      <point x="635" y="680" type="line" smooth="yes"/>
      <point x="635" y="694"/>
      <point x="623" y="702"/>
      <point x="595" y="702" type="curve" smooth="yes"/>
      <point x="587" y="702" type="line" smooth="yes"/>
      <point x="559" y="702"/>
      <point x="547" y="694"/>
      <point x="547" y="680" type="curve" smooth="yes"/>
      <point x="547" y="397" type="line"/>
      <point x="185" y="397" type="line"/>
      <point x="185" y="680" type="line" smooth="yes"/>
      <point x="185" y="694"/>
      <point x="173" y="702"/>
      <point x="145" y="702" type="curve" smooth="yes"/>
      <point x="137" y="702" type="line" smooth="yes"/>
      <point x="109" y="702"/>
      <point x="97" y="694"/>
      <point x="97" y="680" type="curve" smooth="yes"/>
      <point x="97" y="20" type="line" smooth="yes"/>
      <point x="97" y="6"/>
      <point x="109" y="-2"/>
    </contour>
  </outline>
</glyph>
<glyph name="I" format="2">
  <advance width="283"/>
  <unicode hex="0049"/>
  <anchor x="140" y="0" name="bottom"/>
  <anchor x="166" y="0" name="ogonek"/>
  <anchor x="141" y="700" name="top"/>
  <outline>
    <contour>
      <point x="137" y="-2" type="curve" smooth="yes"/>
      <point x="145" y="-2" type="line" smooth="yes"/>
      <point x="173" y="-2"/>
      <point x="185" y="6"/>
      <point x="185" y="20" type="curve" smooth="yes"/>
      <point x="185" y="680" type="line" smooth="yes"/>
      <point x="185" y="694"/>
      <point x="173" y="702"/>
      <point x="145" y="702" type="curve" smooth="yes"/>
      <point x="137" y="702" type="line" smooth="yes"/>
      <point x="109" y="702"/>
      <point x="97" y="694"/>
      <point x="97" y="680" type="curve" smooth="yes"/>
      <point x="97" y="20" type="line" smooth="yes"/>
      <point x="97" y="6"/>
      <point x="109" y="-2"/>
    </contour>
  </outline>
</glyph>
<glyph name="J" format="2">
  <advance width="402"/>
  <unicode hex="004A"/>
  <anchor x="271" y="700" name="top"/>
  <outline>
    <contour>
      <point x="107" y="-6" type="curve" smooth="yes"/>
      <point x="261" y="-6"/>
      <point x="319" y="79"/>
      <point x="319" y="205" type="curve" smooth="yes"/>
      <point x="319" y="680" type="line" smooth="yes"/>
      <point x="319" y="694"/>
      <point x="307" y="702"/>
      <point x="279" y="702" type="curve" smooth="yes"/>
      <point x="271" y="702" type="line" smooth="yes"/>
      <point x="243" y="702"/>
      <point x="231" y="694"/>
      <point x="231" y="680" type="curve" smooth="yes"/>
      <point x="231" y="195" type="line" smooth="yes"/>
      <point x="231" y="109"/>
      <point x="190" y="72"/>
      <point x="91" y="72" type="curve" smooth="yes"/>
      <point x="59" y="72"/>
      <point x="36" y="81"/>
      <point x="28" y="81" type="curve" smooth="yes"/>
      <point x="12" y="81"/>
      <point x="6" y="30"/>
      <point x="6" y="26" type="curve" smooth="yes"/>
      <point x="6" y="-1"/>
      <point x="69" y="-6"/>
    </contour>
  </outline>
</glyph>
<glyph name="L" format="2">
  <advance width="484"/>
  <unicode hex="004C"/>
  <anchor x="282" y="0" name="bottom"/>
  <anchor x="245" y="700" name="caron"/>
  <anchor x="327" y="335" name="center"/>
  <anchor x="145" y="702" name="top"/>
  <outline>
    <contour>
      <point x="127" y="0" type="curve" smooth="yes"/>
      <point x="460" y="0" type="line" smooth="yes"/>
      <point x="474" y="0"/>
      <point x="480" y="9"/>
      <point x="480" y="30" type="curve" smooth="yes"/>
      <point x="480" y="46" type="line" smooth="yes"/>
      <point x="480" y="67"/>
      <point x="474" y="76"/>
      <point x="460" y="76" type="curve" smooth="yes"/>
      <point x="185" y="76" type="line"/>
      <point x="185" y="680" type="line" smooth="yes"/>
      <point x="185" y="694"/>
      <point x="173" y="702"/>
      <point x="145" y="702" type="curve" smooth="yes"/>
      <point x="137" y="702" type="line" smooth="yes"/>
      <point x="109" y="702"/>
      <point x="97" y="694"/>
      <point x="97" y="680" type="curve" smooth="yes"/>
      <point x="97" y="30" type="line" smooth="yes"/>
      <point x="97" y="9"/>
      <point x="106" y="0"/>
    </contour>
  </outline>
</glyph>
<glyph name="M" format="2">
  <advance width="843"/>
  <unicode hex="004D"/>
  <outline>
    <contour>
      <point x="403" y="195" type="curve" smooth="yes"/>
      <point x="443" y="195" type="line" smooth="yes"/>
      <point x="454" y="195"/>
      <point x="460" y="199"/>
      <point x="465" y="208" type="curve" smooth="yes"/>
      <point x="640" y="512" type="line" smooth="yes"/>
      <point x="649" y="527"/>
      <point x="656" y="541"/>
      <point x="664" y="557" type="curve"/>
      <point x="668" y="556" type="line"/>
      <point x="666" y="538"/>
      <point x="666" y="520"/>
      <point x="666" y="501" type="curve" smooth="yes"/>
      <point x="666" y="20" type="line" smooth="yes"/>
      <point x="666" y="6"/>
      <point x="678" y="-2"/>
      <point x="706" y="-2" type="curve" smooth="yes"/>
      <point x="713" y="-2" type="line" smooth="yes"/>
      <point x="741" y="-2"/>
      <point x="753" y="6"/>
      <point x="753" y="20" type="curve" smooth="yes"/>
      <point x="753" y="680" type="line" smooth="yes"/>
      <point x="753" y="694"/>
      <point x="741" y="702"/>
      <point x="713" y="702" type="curve" smooth="yes"/>
      <point x="680" y="702" type="line" smooth="yes"/>
      <point x="656" y="702"/>
      <point x="644" y="695"/>
      <point x="638" y="684" type="curve" smooth="yes"/>
      <point x="454" y="359" type="line" smooth="yes"/>
      <point x="445" y="343"/>
      <point x="430" y="315"/>
      <point x="423" y="293" type="curve"/>
      <point x="418" y="314"/>
      <point x="407" y="339"/>
      <point x="397" y="356" type="curve" smooth="yes"/>
      <point x="208" y="684" type="line" smooth="yes"/>
      <point x="202" y="695"/>
      <point x="190" y="702"/>
      <point x="166" y="702" type="curve" smooth="yes"/>
      <point x="130" y="702" type="line" smooth="yes"/>
      <point x="102" y="702"/>
      <point x="90" y="694"/>
      <point x="90" y="680" type="curve" smooth="yes"/>
      <point x="90" y="20" type="line" smooth="yes"/>
      <point x="90" y="6"/>
      <point x="102" y="-2"/>
      <point x="130" y="-2" type="curve" smooth="yes"/>
      <point x="137" y="-2" type="line" smooth="yes"/>
      <point x="165" y="-2"/>
      <point x="177" y="6"/>
      <point x="177" y="20" type="curve" smooth="yes"/>
      <point x="177" y="507" type="line" smooth="yes"/>
      <point x="177" y="526"/>
      <point x="177" y="544"/>
      <point x="175" y="562" type="curve"/>
      <point x="179" y="563" type="line"/>
      <point x="187" y="547"/>
      <point x="194" y="533"/>
      <point x="203" y="518" type="curve" smooth="yes"/>
      <point x="381" y="208" type="line" smooth="yes"/>
      <point x="386" y="199"/>
      <point x="393" y="195"/>
    </contour>
  </outline>
</glyph>
<glyph name="N" format="2">
  <advance width="719"/>
  <unicode hex="004E"/>
  <anchor x="360" y="0" name="bottom"/>
  <anchor x="360" y="700" name="top"/>
  <outline>
    <contour>
      <point x="130" y="-2" type="curve" smooth="yes"/>
      <point x="137" y="-2" type="line" smooth="yes"/>
      <point x="165" y="-2"/>
      <point x="177" y="6"/>
      <point x="177" y="20" type="curve" smooth="yes"/>
      <point x="177" y="489" type="line" smooth="yes"/>
      <point x="177" y="518"/>
      <point x="177" y="534"/>
      <point x="175" y="557" type="curve"/>
      <point x="179" y="558" type="line"/>
      <point x="189" y="537"/>
      <point x="199" y="518"/>
      <point x="212" y="498" type="curve" smooth="yes"/>
      <point x="534" y="12" type="line" smooth="yes"/>
      <point x="540" y="3"/>
      <point x="550" y="-2"/>
      <point x="569" y="-2" type="curve" smooth="yes"/>
      <point x="589" y="-2" type="line" smooth="yes"/>
      <point x="617" y="-2"/>
      <point x="629" y="6"/>
      <point x="629" y="20" type="curve" smooth="yes"/>
      <point x="629" y="680" type="line" smooth="yes"/>
      <point x="629" y="694"/>
      <point x="617" y="702"/>
      <point x="589" y="702" type="curve" smooth="yes"/>
      <point x="582" y="702" type="line" smooth="yes"/>
      <point x="554" y="702"/>
      <point x="542" y="694"/>
      <point x="542" y="680" type="curve" smooth="yes"/>
      <point x="542" y="218" type="line" smooth="yes"/>
      <point x="542" y="189"/>
      <point x="542" y="173"/>
      <point x="544" y="150" type="curve"/>
      <point x="540" y="149" type="line"/>
      <point x="530" y="170"/>
      <point x="520" y="189"/>
      <point x="507" y="209" type="curve" smooth="yes"/>
      <point x="193" y="683" type="line" smooth="yes"/>
      <point x="184" y="697"/>
      <point x="173" y="702"/>
      <point x="151" y="702" type="curve" smooth="yes"/>
      <point x="130" y="702" type="line" smooth="yes"/>
      <point x="102" y="702"/>
      <point x="90" y="694"/>
      <point x="90" y="680" type="curve" smooth="yes"/>
      <point x="90" y="20" type="line" smooth="yes"/>
      <point x="90" y="6"/>
      <point x="102" y="-2"/>
    </contour>
  </outline>
</glyph>
<glyph name="O" format="2">
  <advance width="731"/>
  <unicode hex="004F"/>
  <anchor x="367" y="0" name="bottom"/>
  <anchor x="482" y="682" name="horn"/>
  <anchor x="443" y="0" name="ogonek"/>
  <anchor x="366" y="700" name="top"/>
  <outline>
    <contour>
      <point x="365" y="-6" type="curve" smooth="yes"/>
      <point x="566" y="-6"/>
      <point x="674" y="118"/>
      <point x="674" y="352" type="curve" smooth="yes"/>
      <point x="674" y="586"/>
      <point x="566" y="706"/>
      <point x="365" y="706" type="curve" smooth="yes"/>
      <point x="165" y="706"/>
      <point x="57" y="586"/>
      <point x="57" y="352" type="curve" smooth="yes"/>
      <point x="57" y="118"/>
      <point x="165" y="-6"/>
    </contour>
    <contour>
      <point x="365" y="70" type="curve" smooth="yes"/>
      <point x="224" y="70"/>
      <point x="148" y="168"/>
      <point x="148" y="352" type="curve" smooth="yes"/>
      <point x="148" y="536"/>
      <point x="224" y="630"/>
      <point x="365" y="630" type="curve" smooth="yes"/>
      <point x="506" y="630"/>
      <point x="583" y="536"/>
      <point x="583" y="352" type="curve" smooth="yes"/>
      <point x="583" y="168"/>
      <point x="506" y="70"/>
    </contour>
  </outline>
</glyph>
<glyph name="R" format="2">
  <advance width="610"/>
  <unicode hex="0052"/>
  <anchor x="305" y="0" name="bottom"/>
  <anchor x="305" y="700" name="top"/>
  <outline>
    <contour>
      <point x="137" y="-2" type="curve" smooth="yes"/>
      <point x="145" y="-2" type="line" smooth="yes"/>
      <point x="173" y="-2"/>
      <point x="185" y="6"/>
      <point x="185" y="20" type="curve" smooth="yes"/>
      <point x="185" y="308" type="line"/>
      <point x="275" y="308" type="line" smooth="yes"/>
      <point x="353" y="308"/>
      <point x="394" y="288"/>
      <point x="424" y="210" type="curve" smooth="yes"/>
      <point x="500" y="14" type="line" smooth="yes"/>
      <point x="504" y="4"/>
      <point x="520" y="-2"/>
      <point x="540" y="-2" type="curve" smooth="yes"/>
      <point x="550" y="-2" type="line" smooth="yes"/>
      <point x="579" y="-2"/>
      <point x="592" y="4"/>
      <point x="592" y="14" type="curve" smooth="yes"/>
      <point x="592" y="17"/>
      <point x="591" y="22"/>
      <point x="589" y="28" type="curve" smooth="yes"/>
      <point x="511" y="225" type="line" smooth="yes"/>
      <point x="485" y="291"/>
      <point x="463" y="336"/>
      <point x="421" y="350" type="curve"/>
      <point x="421" y="354" type="line"/>
      <point x="491" y="382"/>
      <point x="536" y="437"/>
      <point x="536" y="523" type="curve" smooth="yes"/>
      <point x="536" y="649"/>
      <point x="451" y="700"/>
      <point x="295" y="700" type="curve" smooth="yes"/>
      <point x="127" y="700" type="line" smooth="yes"/>
      <point x="106" y="700"/>
      <point x="97" y="691"/>
      <point x="97" y="670" type="curve" smooth="yes"/>
      <point x="97" y="20" type="line" smooth="yes"/>
      <point x="97" y="6"/>
      <point x="109" y="-2"/>
    </contour>
    <contour>
      <point x="185" y="384" type="line"/>
      <point x="185" y="624" type="line"/>
      <point x="310" y="624" type="line" smooth="yes"/>
      <point x="391" y="624"/>
      <point x="445" y="588"/>
      <point x="445" y="507" type="curve" smooth="yes"/>
      <point x="445" y="441"/>
      <point x="389" y="384"/>
      <point x="317" y="384" type="curve" smooth="yes"/>
    </contour>
  </outline>
</glyph>
<glyph name="S" format="2">
  <advance width="500"/>
  <unicode hex="0053"/>
  <anchor x="250" y="0" name="bottom"/>
  <anchor x="250" y="700" name="top"/>
  <outline>
    <contour>
      <point x="244" y="-6" type="curve" smooth="yes"/>
      <point x="379" y="-6"/>
      <point x="466" y="68"/>
      <point x="466" y="188" type="curve" smooth="yes"/>
      <point x="466" y="324"/>
      <point x="366" y="364"/>
      <point x="277" y="398" type="curve" smooth="yes"/>
      <point x="205" y="425.5"/>
      <point x="141" y="444"/>
      <point x="141" y="517" type="curve" smooth="yes"/>
      <point x="141" y="590"/>
      <point x="195" y="630"/>
      <point x="270" y="630" type="curve" smooth="yes"/>
      <point x="320" y="630"/>
      <point x="353" y="615"/>
      <point x="374" y="604" type="curve" smooth="yes"/>
      <point x="387" y="597"/>
      <point x="395" y="592"/>
      <point x="401" y="592" type="curve" smooth="yes"/>
      <point x="411" y="592"/>
      <point x="433" y="630"/>
      <point x="433" y="645" type="curve" smooth="yes"/>
      <point x="433" y="655"/>
      <point x="425" y="664"/>
      <point x="413" y="671" type="curve" smooth="yes"/>
      <point x="380" y="693"/>
      <point x="314" y="706"/>
      <point x="272" y="706" type="curve" smooth="yes"/>
      <point x="138" y="706"/>
      <point x="50" y="629"/>
      <point x="50" y="521" type="curve" smooth="yes"/>
      <point x="50" y="390"/>
      <point x="139" y="357"/>
      <point x="224" y="324" type="curve" smooth="yes"/>
      <point x="301" y="294"/>
      <point x="375" y="268"/>
      <point x="375" y="188" type="curve" smooth="yes"/>
      <point x="375" y="117"/>
      <point x="320" y="70"/>
      <point x="244" y="70" type="curve" smooth="yes"/>
      <point x="170" y="70"/>
      <point x="120" y="96"/>
      <point x="93" y="111" type="curve" smooth="yes"/>
      <point x="83" y="117"/>
      <point x="76" y="121"/>
      <point x="72" y="121" type="curve" smooth="yes"/>
      <point x="61" y="121"/>
      <point x="37" y="83"/>
      <point x="37" y="67" type="curve" smooth="yes"/>
      <point x="37" y="60"/>
      <point x="44" y="51"/>
      <point x="56" y="42" type="curve" smooth="yes"/>
      <point x="88" y="18"/>
      <point x="159" y="-6"/>
    </contour>
  </outline>
</glyph>
<glyph name="T" format="2">
  <advance width="549"/>
  <unicode hex="0054"/>
  <anchor x="275" y="0" name="bottom"/>
  <anchor x="275" y="350" name="center"/>
  <anchor x="275" y="700" name="top"/>
  <outline>
    <contour>
      <point x="272" y="-2" type="curve" smooth="yes"/>
      <point x="280" y="-2" type="line" smooth="yes"/>
      <point x="308" y="-2"/>
      <point x="320" y="6"/>
      <point x="320" y="20" type="curve" smooth="yes"/>
      <point x="320" y="624" type="line"/>
      <point x="509" y="624" type="line" smooth="yes"/>
      <point x="523" y="624"/>
      <point x="529" y="633"/>
      <point x="529" y="654" type="curve" smooth="yes"/>
      <point x="529" y="670" type="line" smooth="yes"/>
      <point x="529" y="691"/>
      <point x="523" y="700"/>
      <point x="509" y="700" type="curve" smooth="yes"/>
      <point x="40" y="700" type="line" smooth="yes"/>
      <point x="26" y="700"/>
      <point x="20" y="691"/>
      <point x="20" y="670" type="curve" smooth="yes"/>
      <point x="20" y="654" type="line" smooth="yes"/>
      <point x="20" y="633"/>
      <point x="26" y="624"/>
      <point x="40" y="624" type="curve" smooth="yes"/>
      <point x="232" y="624" type="line"/>
      <point x="232" y="20" type="line" smooth="yes"/>
      <point x="232" y="6"/>
      <point x="244" y="-2"/>
    </contour>
  </outline>
</glyph>
<glyph name="U" format="2">
  <advance width="712"/>
  <unicode hex="0055"/>
  <anchor x="357" y="0" name="bottom"/>
  <anchor x="581" y="702" name="horn"/>
  <anchor x="431" y="0" name="ogonek"/>
  <anchor x="356" y="700" name="top"/>
  <outline>
    <contour>
      <point x="356" y="-6" type="curve" smooth="yes"/>
      <point x="532" y="-6"/>
      <point x="629" y="80"/>
      <point x="629" y="224" type="curve" smooth="yes"/>
      <point x="629" y="680" type="line" smooth="yes"/>
      <point x="629" y="694"/>
      <point x="617" y="702"/>
      <point x="589" y="702" type="curve" smooth="yes"/>
      <point x="581" y="702" type="line" smooth="yes"/>
      <point x="553" y="702"/>
      <point x="541" y="694"/>
      <point x="541" y="680" type="curve" smooth="yes"/>
      <point x="541" y="221" type="line" smooth="yes"/>
      <point x="541" y="133"/>
      <point x="463" y="70"/>
      <point x="356" y="70" type="curve" smooth="yes"/>
      <point x="250" y="70"/>
      <point x="171" y="132"/>
      <point x="171" y="221" type="curve" smooth="yes"/>
      <point x="171" y="680" type="line" smooth="yes"/>
      <point x="171" y="694"/>
      <point x="159" y="702"/>
      <point x="131" y="702" type="curve" smooth="yes"/>
      <point x="123" y="702" type="line" smooth="yes"/>
      <point x="95" y="702"/>
      <point x="83" y="694"/>
      <point x="83" y="680" type="curve" smooth="yes"/>
      <point x="83" y="224" type="line" smooth="yes"/>
      <point x="83" y="80"/>
      <point x="179" y="-6"/>
    </contour>
  </outline>
</glyph>
<glyph name="W" format="2">
  <advance width="882"/>
  <unicode hex="0057"/>
  <anchor x="441" y="700" name="top"/>
  <outline>
    <contour>
      <point x="229" y="-2" type="curve" smooth="yes"/>
      <point x="270" y="-2" type="line" smooth="yes"/>
      <point x="290" y="-2"/>
      <point x="307" y="2"/>
      <point x="310" y="14" type="curve" smooth="yes"/>
      <point x="419" y="421" type="line"/>
      <point x="440" y="551" type="line"/>
      <point x="461" y="421" type="line"/>
      <point x="570" y="14" type="line" smooth="yes"/>
      <point x="573" y="2"/>
      <point x="590" y="-2"/>
      <point x="610" y="-2" type="curve" smooth="yes"/>
      <point x="651" y="-2" type="line" smooth="yes"/>
      <point x="671" y="-2"/>
      <point x="688" y="2"/>
      <point x="691" y="14" type="curve" smooth="yes"/>
      <point x="864" y="671" type="line" smooth="yes"/>
      <point x="865" y="675"/>
      <point x="867" y="683"/>
      <point x="867" y="685" type="curve" smooth="yes"/>
      <point x="867" y="696"/>
      <point x="854" y="702"/>
      <point x="824" y="702" type="curve" smooth="yes"/>
      <point x="818" y="702" type="line" smooth="yes"/>
      <point x="798" y="702"/>
      <point x="781" y="698"/>
      <point x="778" y="686" type="curve" smooth="yes"/>
      <point x="657" y="196" type="line"/>
      <point x="649" y="164"/>
      <point x="641" y="133"/>
      <point x="633" y="101" type="curve"/>
      <point x="633" y="101"/>
      <point x="625" y="158"/>
      <point x="616" y="193" type="curve" smooth="yes"/>
      <point x="492" y="685" type="line" smooth="yes"/>
      <point x="489" y="698"/>
      <point x="473" y="702"/>
      <point x="453" y="702" type="curve" smooth="yes"/>
      <point x="437" y="702" type="line" smooth="yes"/>
      <point x="417" y="702"/>
      <point x="401" y="698"/>
      <point x="398" y="685" type="curve" smooth="yes"/>
      <point x="277" y="197" type="line"/>
      <point x="269" y="165"/>
      <point x="261" y="133"/>
      <point x="253" y="101" type="curve"/>
      <point x="252" y="104"/>
      <point x="242" y="167"/>
      <point x="235" y="194" type="curve" smooth="yes"/>
      <point x="108" y="686" type="line" smooth="yes"/>
      <point x="105" y="698"/>
      <point x="88" y="702"/>
      <point x="68" y="702" type="curve" smooth="yes"/>
      <point x="58" y="702" type="line" smooth="yes"/>
      <point x="28" y="702"/>
      <point x="15" y="695"/>
      <point x="15" y="685" type="curve" smooth="yes"/>
      <point x="15" y="681"/>
      <point x="17" y="675"/>
      <point x="18" y="671" type="curve" smooth="yes"/>
      <point x="189" y="14" type="line" smooth="yes"/>
      <point x="192" y="2"/>
      <point x="209" y="-2"/>
    </contour>
  </outline>
</glyph>
<glyph name="X" format="2">
  <advance width="611"/>
  <unicode hex="0058"/>
  <outline>
    <contour>
      <point x="66" y="-2" type="curve" smooth="yes"/>
      <point x="74" y="-2" type="line" smooth="yes"/>
      <point x="92" y="-2"/>
      <point x="110" y="1"/>
      <point x="117" y="12" type="curve" smooth="yes"/>
      <point x="303" y="288" type="line"/>
      <point x="487" y="13" type="line" smooth="yes"/>
      <point x="495" y="1"/>
      <point x="509" y="-2"/>
      <point x="530" y="-2" type="curve" smooth="yes"/>
      <point x="546" y="-2" type="line" smooth="yes"/>
      <point x="580" y="-2"/>
      <point x="592" y="4"/>
      <point x="592" y="15" type="curve" smooth="yes"/>
      <point x="592" y="20"/>
      <point x="589" y="26"/>
      <point x="584" y="33" type="curve" smooth="yes"/>
      <point x="359" y="370" type="line"/>
      <point x="559" y="667" type="line" smooth="yes"/>
      <point x="563.5" y="674"/>
      <point x="567" y="680"/>
      <point x="567" y="685" type="curve" smooth="yes"/>
      <point x="567" y="697"/>
      <point x="554" y="702"/>
      <point x="521" y="702" type="curve" smooth="yes"/>
      <point x="515" y="702" type="line" smooth="yes"/>
      <point x="497" y="702"/>
      <point x="479" y="699"/>
      <point x="472" y="688" type="curve" smooth="yes"/>
      <point x="307" y="446" type="line"/>
      <point x="147" y="687" type="line" smooth="yes"/>
      <point x="139" y="699"/>
      <point x="125" y="702"/>
      <point x="104" y="702" type="curve" smooth="yes"/>
      <point x="90" y="702" type="line" smooth="yes"/>
      <point x="56" y="702"/>
      <point x="44" y="696"/>
      <point x="44" y="685" type="curve" smooth="yes"/>
      <point x="44" y="680"/>
      <point x="47" y="674"/>
      <point x="52" y="667" type="curve" smooth="yes"/>
      <point x="252" y="365" type="line"/>
      <point x="28" y="33" type="line" smooth="yes"/>
      <point x="23" y="26"/>
      <point x="20" y="20"/>
      <point x="20" y="15" type="curve" smooth="yes"/>
      <point x="20" y="3"/>
      <point x="33" y="-2"/>
    </contour>
  </outline>
</glyph>
<glyph name="underscore" format="2">
  <advance width="534"/>
  <unicode hex="005F"/>
  <outline>
    <contour>
      <point x="-1" y="-138" type="curve" smooth="yes"/>
      <point x="535" y="-138" type="line" smooth="yes"/>
      <point x="549" y="-138"/>
      <point x="555" y="-132"/>
      <point x="555" y="-118" type="curve" smooth="yes"/>
      <point x="555" y="-110" type="line" smooth="yes"/>
      <point x="555" y="-96"/>
      <point x="549" y="-90"/>
      <point x="535" y="-90" type="curve" smooth="yes"/>
      <point x="-1" y="-90" type="line" smooth="yes"/>
      <point x="-15" y="-90"/>
      <point x="-21" y="-96"/>
      <point x="-21" y="-110" type="curve" smooth="yes"/>
      <point x="-21" y="-118" type="line" smooth="yes"/>
      <point x="-21" y="-132"/>
      <point x="-15" y="-138"/>
    </contour>
  </outline>
</glyph>
<glyph name="b" format="2">
  <advance width="569"/>
  <unicode hex="0062"/>
  <outline>
    <contour>
      <point x="321" y="-6" type="curve" smooth="yes"/>
      <point x="441" y="-6"/>
      <point x="515" y="106"/>
      <point x="515" y="262" type="curve" smooth="yes"/>
      <point x="515" y="435"/>
      <point x="431" y="529"/>
      <point x="312" y="529" type="curve" smooth="yes"/>
      <point x="250" y="529"/>
      <point x="208" y="508"/>
      <point x="169" y="478" type="curve"/>
      <point x="169" y="730" type="line" smooth="yes"/>
      <point x="169" y="744"/>
      <point x="157" y="752"/>
      <point x="129" y="752" type="curve" smooth="yes"/>
      <point x="125" y="752" type="line" smooth="yes"/>
      <point x="97" y="752"/>
      <point x="85" y="744"/>
      <point x="85" y="730" type="curve" smooth="yes"/>
      <point x="85" y="20" type="line" smooth="yes"/>
      <point x="85" y="6"/>
      <point x="94" y="-2"/>
      <point x="115" y="-2" type="curve" smooth="yes"/>
      <point x="119" y="-2" type="line" smooth="yes"/>
      <point x="133" y="-2"/>
      <point x="142" y="1"/>
      <point x="146" y="10" type="curve"/>
      <point x="154" y="30"/>
      <point x="159" y="49"/>
      <point x="162" y="69" type="curve"/>
      <point x="211" y="18"/>
      <point x="264" y="-6"/>
    </contour>
    <contour>
      <point x="304" y="67" type="curve" smooth="yes"/>
      <point x="260" y="67"/>
      <point x="210" y="91"/>
      <point x="169" y="136" type="curve"/>
      <point x="169" y="410" type="line"/>
      <point x="205" y="440"/>
      <point x="250" y="455"/>
      <point x="293" y="455" type="curve" smooth="yes"/>
      <point x="382" y="455"/>
      <point x="427" y="388"/>
      <point x="427" y="269" type="curve" smooth="yes"/>
      <point x="427" y="140"/>
      <point x="383" y="67"/>
    </contour>
  </outline>
</glyph>
<glyph name="c" format="2">
  <advance width="485"/>
  <unicode hex="0063"/>
  <anchor x="286" y="0" name="bottom"/>
  <anchor x="277" y="523" name="top"/>
  <outline>
    <contour>
      <point x="298" y="-6" type="curve" smooth="yes"/>
      <point x="385" y="-6"/>
      <point x="455" y="22"/>
      <point x="455" y="45" type="curve" smooth="yes"/>
      <point x="455" y="59"/>
      <point x="435" y="96"/>
      <point x="421" y="96" type="curve" smooth="yes"/>
      <point x="420" y="96"/>
      <point x="416" y="94"/>
      <point x="410" y="92" type="curve"/>
      <point x="392" y="83"/>
      <point x="353" y="66"/>
      <point x="297" y="66" type="curve" smooth="yes"/>
      <point x="184" y="66"/>
      <point x="142" y="126"/>
      <point x="142" y="266" type="curve" smooth="yes"/>
      <point x="142" y="405"/>
      <point x="199" y="457"/>
      <point x="287" y="457" type="curve" smooth="yes"/>
      <point x="341" y="457"/>
      <point x="378" y="441"/>
      <point x="396" y="433" type="curve" smooth="yes"/>
      <point x="402" y="430.5"/>
      <point x="405" y="429"/>
      <point x="407" y="429" type="curve" smooth="yes"/>
      <point x="420" y="429"/>
      <point x="439" y="467"/>
      <point x="439" y="483" type="curve" smooth="yes"/>
      <point x="439" y="507"/>
      <point x="366" y="529"/>
      <point x="289" y="529" type="curve" smooth="yes"/>
      <point x="174" y="529"/>
      <point x="52" y="473"/>
      <point x="52" y="264" type="curve" smooth="yes"/>
      <point x="52" y="71"/>
      <point x="136" y="-6"/>
    </contour>
  </outline>
</glyph>
<glyph name="d" format="2">
  <advance width="565"/>
  <unicode hex="0064"/>
  <anchor x="281" y="0" name="bottom"/>
  <anchor x="481" y="700" name="caron"/>
  <anchor x="421" y="630" name="center"/>
  <outline>
    <contour>
      <point x="246" y="-6" type="curve" smooth="yes"/>
      <point x="303" y="-6"/>
      <point x="356" y="18"/>
      <point x="405" y="69" type="curve"/>
      <point x="411" y="41"/>
      <point x="416" y="-1"/>
      <point x="440" y="-1" type="curve" smooth="yes"/>
      <point x="453" y="-1"/>
      <point x="494" y="3"/>
      <point x="494" y="22" type="curve" smooth="yes"/>
      <point x="494" y="27"/>
      <point x="482" y="66"/>
      <point x="482" y="148" type="curve" smooth="yes"/>
      <point x="482" y="730" type="line" smooth="yes"/>
      <point x="482" y="744"/>
      <point x="470" y="752"/>
      <point x="442" y="752" type="curve" smooth="yes"/>
      <point x="438" y="752" type="line" smooth="yes"/>
      <point x="410" y="752"/>
      <point x="398" y="744"/>
      <point x="398" y="730" type="curve" smooth="yes"/>
      <point x="398" y="478" type="line"/>
      <point x="359" y="508"/>
      <point x="317" y="529"/>
      <point x="255" y="529" type="curve" smooth="yes"/>
      <point x="136" y="529"/>
      <point x="52" y="435"/>
      <point x="52" y="261" type="curve" smooth="yes"/>
      <point x="52" y="106"/>
      <point x="126" y="-6"/>
    </contour>
    <contour>
      <point x="263" y="67" type="curve" smooth="yes"/>
      <point x="184" y="67"/>
      <point x="140" y="140"/>
      <point x="140" y="269" type="curve" smooth="yes"/>
      <point x="140" y="388"/>
      <point x="185" y="455"/>
      <point x="275" y="455" type="curve" smooth="yes"/>
      <point x="320" y="455"/>
      <point x="362" y="440"/>
      <point x="398" y="410" type="curve"/>
      <point x="398" y="136" type="line"/>
      <point x="357" y="91"/>
      <point x="307" y="67"/>
    </contour>
  </outline>
</glyph>
<glyph name="e" format="2">
  <advance width="539"/>
  <unicode hex="0065"/>
  <anchor x="270" y="0" name="bottom"/>
  <anchor x="433" y="10" name="ogonek"/>
  <anchor x="270" y="523" name="top"/>
  <outline>
    <contour>
      <point x="300" y="-6" type="curve" smooth="yes"/>
      <point x="401" y="-6"/>
      <point x="480" y="34"/>
      <point x="480" y="58" type="curve" smooth="yes"/>
      <point x="480" y="69"/>
      <point x="459" y="108"/>
      <point x="445" y="108" type="curve" smooth="yes"/>
      <point x="435" y="108"/>
      <point x="386" y="66"/>
      <point x="299" y="66" type="curve" smooth="yes"/>
      <point x="200" y="66"/>
      <point x="153" y="116"/>
      <point x="145" y="227" type="curve"/>
      <point x="461" y="227" type="line" smooth="yes"/>
      <point x="473" y="227"/>
      <point x="494" y="256"/>
      <point x="494" y="268" type="curve" smooth="yes"/>
      <point x="494" y="438"/>
      <point x="425" y="529"/>
      <point x="288" y="529" type="curve" smooth="yes"/>
      <point x="135" y="529"/>
      <point x="55" y="435"/>
      <point x="55" y="258" type="curve" smooth="yes"/>
      <point x="55" y="79"/>
      <point x="134" y="-6"/>
    </contour>
    <contour>
      <point x="145" y="299" type="line"/>
      <point x="152" y="404"/>
      <point x="198" y="457"/>
      <point x="285" y="457" type="curve" smooth="yes"/>
      <point x="365" y="457"/>
      <point x="405" y="404"/>
      <point x="405" y="299" type="curve"/>
    </contour>
  </outline>
</glyph>
<glyph name="f" format="2">
  <advance width="325"/>
  <unicode hex="0066"/>
  <anchor x="163" y="0" name="bottom"/>
  <anchor x="163" y="700" name="top"/>
  <outline>
    <contour>
      <point x="148" y="-2" type="curve" smooth="yes"/>
      <point x="152" y="-2" type="line" smooth="yes"/>
      <point x="180" y="-2"/>
      <point x="192" y="6"/>
      <point x="192" y="20" type="curve" smooth="yes"/>
      <point x="192" y="451" type="line"/>
      <point x="279" y="451" type="line" smooth="yes"/>
      <point x="293" y="451"/>
      <point x="299" y="460"/>
      <point x="299" y="481" type="curve" smooth="yes"/>
      <point x="299" y="493" type="line" smooth="yes"/>
      <point x="299" y="514"/>
      <point x="293" y="523"/>
      <point x="279" y="523" type="curve" smooth="yes"/>
      <point x="192" y="523" type="line"/>
      <point x="192" y="610" type="line" smooth="yes"/>
      <point x="192" y="676"/>
      <point x="217" y="684"/>
      <point x="246" y="684" type="curve" smooth="yes"/>
      <point x="275" y="684"/>
      <point x="280" y="679"/>
      <point x="289" y="679" type="curve" smooth="yes"/>
      <point x="303" y="679"/>
      <point x="310" y="718"/>
      <point x="310" y="726" type="curve" smooth="yes"/>
      <point x="310" y="753"/>
      <point x="264" y="756"/>
      <point x="237" y="756" type="curve" smooth="yes"/>
      <point x="187" y="756"/>
      <point x="108" y="737"/>
      <point x="108" y="618" type="curve" smooth="yes"/>
      <point x="108" y="523" type="line"/>
      <point x="68" y="523" type="line" smooth="yes"/>
      <point x="54" y="523"/>
      <point x="48" y="514"/>
      <point x="48" y="493" type="curve" smooth="yes"/>
      <point x="48" y="481" type="line" smooth="yes"/>
      <point x="48" y="460"/>
      <point x="54" y="451"/>
      <point x="68" y="451" type="curve" smooth="yes"/>
      <point x="108" y="451" type="line"/>
      <point x="108" y="20" type="line" smooth="yes"/>
      <point x="108" y="6"/>
      <point x="120" y="-2"/>
    </contour>
  </outline>
</glyph>
<glyph name="h" format="2">
  <advance width="565"/>
  <unicode hex="0068"/>
  <anchor x="282" y="0" name="bottom"/>
  <anchor x="172" y="630" name="center"/>
  <anchor x="134" y="730" name="top"/>
  <outline>
    <contour>
      <point x="132" y="-2" type="curve" smooth="yes"/>
      <point x="136" y="-2" type="line" smooth="yes"/>
      <point x="164" y="-2"/>
      <point x="176" y="6"/>
      <point x="176" y="20" type="curve" smooth="yes"/>
      <point x="176" y="386" type="line"/>
      <point x="176" y="386"/>
      <point x="227" y="456"/>
      <point x="302" y="456" type="curve" smooth="yes"/>
      <point x="370" y="456"/>
      <point x="404" y="418"/>
      <point x="404" y="359" type="curve" smooth="yes"/>
      <point x="404" y="20" type="line" smooth="yes"/>
      <point x="404" y="6"/>
      <point x="416" y="-2"/>
      <point x="444" y="-2" type="curve" smooth="yes"/>
      <point x="448" y="-2" type="line" smooth="yes"/>
      <point x="476" y="-2"/>
      <point x="488" y="6"/>
      <point x="488" y="20" type="curve" smooth="yes"/>
      <point x="488" y="367" type="line" smooth="yes"/>
      <point x="488" y="503"/>
      <point x="393" y="529"/>
      <point x="329" y="529" type="curve" smooth="yes"/>
      <point x="265" y="529"/>
      <point x="211" y="495"/>
      <point x="176" y="460" type="curve"/>
      <point x="176" y="730" type="line" smooth="yes"/>
      <point x="176" y="744"/>
      <point x="164" y="752"/>
      <point x="136" y="752" type="curve" smooth="yes"/>
      <point x="132" y="752" type="line" smooth="yes"/>
      <point x="104" y="752"/>
      <point x="92" y="744"/>
      <point x="92" y="730" type="curve" smooth="yes"/>
      <point x="92" y="20" type="line" smooth="yes"/>
      <point x="92" y="6"/>
      <point x="104" y="-2"/>
    </contour>
  </outline>
</glyph>
<glyph name="k" format="2">
  <advance width="521"/>
  <unicode hex="006B"/>
  <anchor x="261" y="0" name="bottom"/>
  <outline>
    <contour>
      <point x="134" y="-2" type="curve" smooth="yes"/>
      <point x="138" y="-2" type="line" smooth="yes"/>
      <point x="166" y="-2"/>
      <point x="178" y="6"/>
      <point x="178" y="20" type="curve" smooth="yes"/>
      <point x="178" y="248" type="line"/>
      <point x="182" y="248" type="line"/>
      <point x="382" y="11" type="line" smooth="yes"/>
      <point x="392" y="-1"/>
      <point x="414" y="-2"/>
      <point x="436" y="-2" type="curve" smooth="yes"/>
      <point x="440" y="-2" type="line" smooth="yes"/>
      <point x="471" y="-2"/>
      <point x="484" y="1"/>
      <point x="484" y="12" type="curve" smooth="yes"/>
      <point x="484" y="16"/>
      <point x="482" y="20"/>
      <point x="475" y="28" type="curve" smooth="yes"/>
      <point x="247" y="298" type="line"/>
      <point x="247" y="246" type="line"/>
      <point x="455" y="492" type="line" smooth="yes"/>
      <point x="462" y="500"/>
      <point x="465" y="507"/>
      <point x="465" y="512" type="curve" smooth="yes"/>
      <point x="465" y="519"/>
      <point x="454" y="525"/>
      <point x="430" y="525" type="curve" smooth="yes"/>
      <point x="426" y="525" type="line" smooth="yes"/>
      <point x="404" y="525"/>
      <point x="382" y="522"/>
      <point x="373" y="511" type="curve" smooth="yes"/>
      <point x="182" y="283" type="line"/>
      <point x="178" y="283" type="line"/>
      <point x="178" y="730" type="line" smooth="yes"/>
      <point x="178" y="744"/>
      <point x="166" y="752"/>
      <point x="138" y="752" type="curve" smooth="yes"/>
      <point x="134" y="752" type="line" smooth="yes"/>
      <point x="106" y="752"/>
      <point x="94" y="744"/>
      <point x="94" y="730" type="curve" smooth="yes"/>
      <point x="94" y="20" type="line" smooth="yes"/>
      <point x="94" y="6"/>
      <point x="106" y="-2"/>
    </contour>
  </outline>
</glyph>
<glyph name="l" format="2">
  <advance width="297"/>
  <unicode hex="006C"/>
  <anchor x="179" y="0" name="bottom"/>
  <anchor x="166" y="702" name="caron"/>
  <anchor x="279" y="335" name="center"/>
  <anchor x="125" y="720" name="top"/>
  <outline>
    <contour>
      <point x="211" y="-6" type="curve" smooth="yes"/>
      <point x="238" y="-6"/>
      <point x="284" y="-3"/>
      <point x="284" y="24" type="curve" smooth="yes"/>
      <point x="284" y="32"/>
      <point x="277" y="71"/>
      <point x="263" y="71" type="curve" smooth="yes"/>
      <point x="254" y="71"/>
      <point x="249" y="66"/>
      <point x="220" y="66" type="curve" smooth="yes"/>
      <point x="191" y="66"/>
      <point x="166" y="80"/>
      <point x="166" y="140" type="curve" smooth="yes"/>
      <point x="166" y="730" type="line" smooth="yes"/>
      <point x="166" y="744"/>
      <point x="154" y="752"/>
      <point x="126" y="752" type="curve" smooth="yes"/>
      <point x="122" y="752" type="line" smooth="yes"/>
      <point x="94" y="752"/>
      <point x="82" y="744"/>
      <point x="82" y="730" type="curve" smooth="yes"/>
      <point x="82" y="132" type="line" smooth="yes"/>
      <point x="82" y="16"/>
      <point x="161" y="-6"/>
    </contour>
  </outline>
</glyph>
<glyph name="m" format="2">
  <advance width="848"/>
  <unicode hex="006D"/>
  <outline>
    <contour>
      <point x="125" y="-2" type="curve" smooth="yes"/>
      <point x="129" y="-2" type="line" smooth="yes"/>
      <point x="157" y="-2"/>
      <point x="169" y="6"/>
      <point x="169" y="20" type="curve" smooth="yes"/>
      <point x="169" y="387" type="line"/>
      <point x="169" y="387"/>
      <point x="218" y="456"/>
      <point x="291" y="456" type="curve" smooth="yes"/>
      <point x="355" y="456"/>
      <point x="387" y="418"/>
      <point x="387" y="359" type="curve" smooth="yes"/>
      <point x="387" y="20" type="line" smooth="yes"/>
      <point x="387" y="6"/>
      <point x="399" y="-2"/>
      <point x="427" y="-2" type="curve" smooth="yes"/>
      <point x="431" y="-2" type="line" smooth="yes"/>
      <point x="459" y="-2"/>
      <point x="471" y="6"/>
      <point x="471" y="20" type="curve" smooth="yes"/>
      <point x="471" y="366" type="line" smooth="yes"/>
      <point x="471" y="381"/>
      <point x="470" y="398"/>
      <point x="464" y="413" type="curve"/>
      <point x="465" y="379" type="line"/>
      <point x="469" y="384"/>
      <point x="521" y="456"/>
      <point x="593" y="456" type="curve" smooth="yes"/>
      <point x="657" y="456"/>
      <point x="689" y="418"/>
      <point x="689" y="359" type="curve" smooth="yes"/>
      <point x="689" y="20" type="line" smooth="yes"/>
      <point x="689" y="6"/>
      <point x="701" y="-2"/>
      <point x="729" y="-2" type="curve" smooth="yes"/>
      <point x="733" y="-2" type="line" smooth="yes"/>
      <point x="761" y="-2"/>
      <point x="773" y="6"/>
      <point x="773" y="20" type="curve" smooth="yes"/>
      <point x="773" y="367" type="line" smooth="yes"/>
      <point x="773" y="503"/>
      <point x="680" y="529"/>
      <point x="616" y="529" type="curve" smooth="yes"/>
      <point x="553" y="529"/>
      <point x="495" y="491"/>
      <point x="457" y="446" type="curve"/>
      <point x="429" y="514"/>
      <point x="363" y="529"/>
      <point x="314" y="529" type="curve" smooth="yes"/>
      <point x="250" y="529"/>
      <point x="195" y="492"/>
      <point x="162" y="454" type="curve"/>
      <point x="156" y="480"/>
      <point x="151" y="520"/>
      <point x="127" y="520" type="curve" smooth="yes"/>
      <point x="114" y="520"/>
      <point x="73" y="516"/>
      <point x="73" y="497" type="curve" smooth="yes"/>
      <point x="73" y="492"/>
      <point x="85" y="453"/>
      <point x="85" y="371" type="curve" smooth="yes"/>
      <point x="85" y="20" type="line" smooth="yes"/>
      <point x="85" y="6"/>
      <point x="97" y="-2"/>
    </contour>
  </outline>
</glyph>
<glyph name="o" format="2">
  <advance width="569"/>
  <unicode hex="006F"/>
  <anchor x="291" y="0" name="bottom"/>
  <anchor x="376" y="505" name="horn"/>
  <anchor x="343" y="0" name="ogonek"/>
  <anchor x="285" y="523" name="top"/>
  <outline>
    <contour>
      <point x="287" y="-6" type="curve" smooth="yes"/>
      <point x="436" y="-6"/>
      <point x="514" y="86"/>
      <point x="514" y="259" type="curve" smooth="yes"/>
      <point x="514" y="433"/>
      <point x="434" y="529"/>
      <point x="287" y="529" type="curve" smooth="yes"/>
      <point x="138" y="529"/>
      <point x="55" y="432"/>
      <point x="55" y="259" type="curve" smooth="yes"/>
      <point x="55" y="87"/>
      <point x="136" y="-6"/>
    </contour>
    <contour>
      <point x="284" y="66" type="curve" smooth="yes"/>
      <point x="186" y="66"/>
      <point x="143" y="128"/>
      <point x="143" y="261" type="curve" smooth="yes"/>
      <point x="143" y="395"/>
      <point x="187" y="457"/>
      <point x="284" y="457" type="curve" smooth="yes"/>
      <point x="382" y="457"/>
      <point x="427" y="394"/>
      <point x="427" y="261" type="curve" smooth="yes"/>
      <point x="427" y="128"/>
      <point x="382" y="66"/>
    </contour>
  </outline>
</glyph>
<glyph name="p" format="2">
  <advance width="573"/>
  <unicode hex="0070"/>
  <anchor x="287" y="0" name="bottom"/>
  <anchor x="287" y="523" name="top"/>
  <outline>
    <contour>
      <point x="126" y="-208" type="curve" smooth="yes"/>
      <point x="130" y="-208" type="line" smooth="yes"/>
      <point x="158" y="-208"/>
      <point x="170" y="-200"/>
      <point x="170" y="-186" type="curve" smooth="yes"/>
      <point x="170" y="45" type="line"/>
      <point x="209" y="15"/>
      <point x="251" y="-6"/>
      <point x="313" y="-6" type="curve" smooth="yes"/>
      <point x="432" y="-6"/>
      <point x="516" y="88"/>
      <point x="516" y="261" type="curve" smooth="yes"/>
      <point x="516" y="415"/>
      <point x="446" y="529"/>
      <point x="322" y="529" type="curve" smooth="yes"/>
      <point x="265" y="529"/>
      <point x="212" y="505"/>
      <point x="163" y="454" type="curve"/>
      <point x="157" y="480"/>
      <point x="152" y="520"/>
      <point x="128" y="520" type="curve" smooth="yes"/>
      <point x="115" y="520"/>
      <point x="74" y="516"/>
      <point x="74" y="497" type="curve" smooth="yes"/>
      <point x="74" y="492"/>
      <point x="86" y="453"/>
      <point x="86" y="371" type="curve" smooth="yes"/>
      <point x="86" y="-186" type="line" smooth="yes"/>
      <point x="86" y="-200"/>
      <point x="98" y="-208"/>
    </contour>
    <contour>
      <point x="294" y="68" type="curve" smooth="yes"/>
      <point x="248" y="68"/>
      <point x="206" y="83"/>
      <point x="170" y="113" type="curve"/>
      <point x="170" y="387" type="line"/>
      <point x="211" y="432"/>
      <point x="261" y="456"/>
      <point x="305" y="456" type="curve" smooth="yes"/>
      <point x="384" y="456"/>
      <point x="428" y="383"/>
      <point x="428" y="254" type="curve" smooth="yes"/>
      <point x="428" y="135"/>
      <point x="383" y="68"/>
    </contour>
  </outline>
</glyph>
<glyph name="r" format="2">
  <advance width="366"/>
  <unicode hex="0072"/>
  <anchor x="134" y="-2" name="bottom"/>
  <anchor x="132" y="520" name="top"/>
  <outline>
    <contour>
      <point x="130" y="-2" type="curve" smooth="yes"/>
      <point x="134" y="-2" type="line" smooth="yes"/>
      <point x="162" y="-2"/>
      <point x="174" y="6"/>
      <point x="174" y="20" type="curve" smooth="yes"/>
      <point x="174" y="386" type="line"/>
      <point x="174" y="386"/>
      <point x="214" y="447"/>
      <point x="266" y="447" type="curve" smooth="yes"/>
      <point x="300" y="447"/>
      <point x="308" y="436"/>
      <point x="321" y="436" type="curve" smooth="yes"/>
      <point x="333" y="436"/>
      <point x="341" y="471"/>
      <point x="341" y="490" type="curve" smooth="yes"/>
      <point x="341" y="512"/>
      <point x="322" y="529"/>
      <point x="283" y="529" type="curve" smooth="yes"/>
      <point x="241" y="529"/>
      <point x="201" y="502"/>
      <point x="167" y="454" type="curve"/>
      <point x="161" y="480"/>
      <point x="156" y="520"/>
      <point x="132" y="520" type="curve" smooth="yes"/>
      <point x="119" y="520"/>
      <point x="78" y="516"/>
      <point x="78" y="497" type="curve" smooth="yes"/>
      <point x="78" y="492"/>
      <point x="90" y="453"/>
      <point x="90" y="371" type="curve" smooth="yes"/>
      <point x="90" y="20" type="line" smooth="yes"/>
      <point x="90" y="6"/>
      <point x="102" y="-2"/>
    </contour>
  </outline>
</glyph>
<glyph name="s" format="2">
  <advance width="413"/>
  <unicode hex="0073"/>
  <anchor x="207" y="0" name="bottom"/>
  <anchor x="207" y="523" name="top"/>
  <outline>
    <contour>
      <point x="194" y="-9" type="curve" smooth="yes"/>
      <point x="293" y="-9"/>
      <point x="371" y="57"/>
      <point x="371" y="147" type="curve" smooth="yes"/>
      <point x="371" y="238"/>
      <point x="334" y="271"/>
      <point x="211" y="309" type="curve" smooth="yes"/>
      <point x="155" y="326"/>
      <point x="133" y="351"/>
      <point x="133" y="396" type="curve" smooth="yes"/>
      <point x="133" y="435"/>
      <point x="172" y="459"/>
      <point x="222" y="459" type="curve" smooth="yes"/>
      <point x="276" y="459"/>
      <point x="308" y="433"/>
      <point x="313" y="433" type="curve" smooth="yes"/>
      <point x="326" y="433"/>
      <point x="345" y="471"/>
      <point x="345" y="487" type="curve" smooth="yes"/>
      <point x="345" y="509"/>
      <point x="281" y="530"/>
      <point x="213" y="530" type="curve" smooth="yes"/>
      <point x="116" y="530"/>
      <point x="47" y="469"/>
      <point x="47" y="385" type="curve" smooth="yes"/>
      <point x="47" y="310"/>
      <point x="78" y="267"/>
      <point x="186" y="235" type="curve" smooth="yes"/>
      <point x="261" y="213"/>
      <point x="286" y="190"/>
      <point x="286" y="145" type="curve" smooth="yes"/>
      <point x="286" y="90"/>
      <point x="252" y="64"/>
      <point x="188" y="64" type="curve" smooth="yes"/>
      <point x="117" y="64"/>
      <point x="77" y="104"/>
      <point x="70" y="104" type="curve" smooth="yes"/>
      <point x="56" y="104"/>
      <point x="35" y="65"/>
      <point x="35" y="54" type="curve" smooth="yes"/>
      <point x="35" y="31"/>
      <point x="103" y="-9"/>
    </contour>
  </outline>
</glyph>
<glyph name="u" format="2">
  <advance width="557"/>
  <unicode hex="0075"/>
  <anchor x="251" y="0" name="bottom"/>
  <anchor x="427" y="525" name="horn"/>
  <anchor x="468" y="10" name="ogonek"/>
  <anchor x="279" y="523" name="top"/>
  <outline>
    <contour>
      <point x="238" y="-6" type="curve" smooth="yes"/>
      <point x="294" y="-6"/>
      <point x="352" y="22"/>
      <point x="394" y="69" type="curve"/>
      <point x="400" y="41"/>
      <point x="405" y="-1"/>
      <point x="429" y="-1" type="curve" smooth="yes"/>
      <point x="442" y="-1"/>
      <point x="483" y="3"/>
      <point x="483" y="22" type="curve" smooth="yes"/>
      <point x="483" y="27"/>
      <point x="471" y="66"/>
      <point x="471" y="148" type="curve" smooth="yes"/>
      <point x="471" y="503" type="line" smooth="yes"/>
      <point x="471" y="517"/>
      <point x="459" y="525"/>
      <point x="431" y="525" type="curve" smooth="yes"/>
      <point x="427" y="525" type="line" smooth="yes"/>
      <point x="399" y="525"/>
      <point x="387" y="517"/>
      <point x="387" y="503" type="curve" smooth="yes"/>
      <point x="387" y="137" type="line"/>
      <point x="354" y="94"/>
      <point x="306" y="67"/>
      <point x="261" y="67" type="curve" smooth="yes"/>
      <point x="196" y="67"/>
      <point x="159" y="103"/>
      <point x="159" y="164" type="curve" smooth="yes"/>
      <point x="159" y="503" type="line" smooth="yes"/>
      <point x="159" y="517"/>
      <point x="147" y="525"/>
      <point x="119" y="525" type="curve" smooth="yes"/>
      <point x="115" y="525" type="line" smooth="yes"/>
      <point x="87" y="525"/>
      <point x="75" y="517"/>
      <point x="75" y="503" type="curve" smooth="yes"/>
      <point x="75" y="156" type="line" smooth="yes"/>
      <point x="75" y="55"/>
      <point x="136" y="-6"/>
    </contour>
  </outline>
</glyph>
<glyph name="w" format="2">
  <advance width="747"/>
  <unicode hex="0077"/>
  <anchor x="374" y="523" name="top"/>
  <outline>
    <contour>
      <point x="207" y="-2" type="curve" smooth="yes"/>
      <point x="237" y="-2" type="line" smooth="yes"/>
      <point x="257" y="-2"/>
      <point x="274" y="2"/>
      <point x="277" y="14" type="curve" smooth="yes"/>
      <point x="359" y="332" type="line" smooth="yes"/>
      <point x="364" y="349"/>
      <point x="368" y="380"/>
      <point x="373" y="410" type="curve"/>
      <point x="375" y="410" type="line"/>
      <point x="380" y="380"/>
      <point x="384" y="348"/>
      <point x="389" y="331" type="curve" smooth="yes"/>
      <point x="469" y="14" type="line" smooth="yes"/>
      <point x="472" y="2"/>
      <point x="488" y="-2"/>
      <point x="508" y="-2" type="curve" smooth="yes"/>
      <point x="538" y="-2" type="line" smooth="yes"/>
      <point x="558" y="-2"/>
      <point x="575" y="2"/>
      <point x="578" y="14" type="curve" smooth="yes"/>
      <point x="712" y="494" type="line" smooth="yes"/>
      <point x="714" y="500"/>
      <point x="715" y="504"/>
      <point x="715" y="508" type="curve" smooth="yes"/>
      <point x="715" y="519"/>
      <point x="702" y="525"/>
      <point x="675" y="525" type="curve" smooth="yes"/>
      <point x="655" y="525"/>
      <point x="637" y="521"/>
      <point x="634" y="509" type="curve" smooth="yes"/>
      <point x="550" y="188" type="line" smooth="yes"/>
      <point x="542" y="159"/>
      <point x="535" y="108"/>
      <point x="528" y="72" type="curve"/>
      <point x="526" y="72" type="line"/>
      <point x="520" y="106"/>
      <point x="516" y="136"/>
      <point x="502" y="190" type="curve" smooth="yes"/>
      <point x="418" y="508" type="line" smooth="yes"/>
      <point x="415" y="521"/>
      <point x="399" y="525"/>
      <point x="379" y="525" type="curve" smooth="yes"/>
      <point x="372" y="525" type="line" smooth="yes"/>
      <point x="352" y="525"/>
      <point x="336" y="521"/>
      <point x="333" y="508" type="curve" smooth="yes"/>
      <point x="250" y="190" type="line" smooth="yes"/>
      <point x="243" y="163"/>
      <point x="234" y="113"/>
      <point x="227" y="74" type="curve"/>
      <point x="223" y="74" type="line"/>
      <point x="215" y="112"/>
      <point x="206" y="167"/>
      <point x="200" y="189" type="curve" smooth="yes"/>
      <point x="116" y="509" type="line" smooth="yes"/>
      <point x="113" y="521"/>
      <point x="96" y="525"/>
      <point x="76" y="525" type="curve" smooth="yes"/>
      <point x="43" y="525"/>
      <point x="30" y="518"/>
      <point x="30" y="508" type="curve" smooth="yes"/>
      <point x="30" y="504"/>
      <point x="33" y="494"/>
      <point x="35" y="488" type="curve" smooth="yes"/>
      <point x="167" y="14" type="line"/>
      <point x="170" y="2"/>
      <point x="187" y="-2"/>
    </contour>
  </outline>
</glyph>
<glyph name="x" format="2">
  <advance width="485"/>
  <unicode hex="0078"/>
  <outline>
    <contour>
      <point x="63" y="-2" type="curve"/>
      <point x="66" y="-2" type="line"/>
      <point x="86" y="-2"/>
      <point x="103" y="1"/>
      <point x="111" y="12" type="curve" smooth="yes"/>
      <point x="219" y="172" type="line" smooth="yes"/>
      <point x="231" y="190"/>
      <point x="236" y="200"/>
      <point x="240" y="207" type="curve"/>
      <point x="244" y="200"/>
      <point x="249" y="190"/>
      <point x="261" y="172" type="curve" smooth="yes"/>
      <point x="367" y="13" type="line" smooth="yes"/>
      <point x="375" y="1"/>
      <point x="389" y="-2"/>
      <point x="410" y="-2" type="curve" smooth="yes"/>
      <point x="419" y="-2" type="line" smooth="yes"/>
      <point x="453" y="-2"/>
      <point x="465" y="4"/>
      <point x="465" y="15" type="curve" smooth="yes"/>
      <point x="465" y="20"/>
      <point x="462" y="26"/>
      <point x="457" y="33" type="curve" smooth="yes"/>
      <point x="295" y="270" type="line"/>
      <point x="446" y="490" type="line" smooth="yes"/>
      <point x="451" y="497"/>
      <point x="454" y="503"/>
      <point x="454" y="508" type="curve" smooth="yes"/>
      <point x="454" y="520"/>
      <point x="442" y="525"/>
      <point x="412" y="525" type="curve"/>
      <point x="408" y="525" type="line"/>
      <point x="388" y="525"/>
      <point x="370" y="522"/>
      <point x="363" y="511" type="curve" smooth="yes"/>
      <point x="267" y="367" type="line" smooth="yes"/>
      <point x="255" y="349"/>
      <point x="250" y="339"/>
      <point x="246" y="332" type="curve"/>
      <point x="242" y="339"/>
      <point x="237" y="349"/>
      <point x="225" y="367" type="curve" smooth="yes"/>
      <point x="130" y="510" type="line" smooth="yes"/>
      <point x="122" y="522"/>
      <point x="108" y="525"/>
      <point x="87" y="525" type="curve" smooth="yes"/>
      <point x="78" y="525" type="line" smooth="yes"/>
      <point x="44" y="525"/>
      <point x="32" y="519"/>
      <point x="32" y="508" type="curve" smooth="yes"/>
      <point x="32" y="503"/>
      <point x="35" y="497"/>
      <point x="40" y="490" type="curve" smooth="yes"/>
      <point x="190" y="268" type="line"/>
      <point x="28" y="33" type="line" smooth="yes"/>
      <point x="23" y="26"/>
      <point x="20" y="20"/>
      <point x="20" y="15" type="curve" smooth="yes"/>
      <point x="20" y="3"/>
      <point x="32" y="-2"/>
    </contour>
  </outline>
</glyph>
<glyph name="asciitilde" format="2">
  <advance width="547"/>
  <unicode hex="007E"/>
  <outline>
    <contour>
      <point x="90.5" y="227" type="line" smooth="yes"/>
      <point x="95.7" y="226"/>
      <point x="99.6" y="225"/>
      <point x="103.5" y="225" type="curve" smooth="yes"/>
      <point x="111.3" y="225"/>
      <point x="116.5" y="229"/>
      <point x="124.3" y="239" type="curve" smooth="yes"/>
      <point x="141.2" y="261"/>
      <point x="154.2" y="269"/>
      <point x="173.7" y="269" type="curve" smooth="yes"/>
      <point x="234" y="269"/>
      <point x="322" y="215"/>
      <point x="401" y="215" type="curve" smooth="yes"/>
      <point x="440" y="215"/>
      <point x="469" y="236"/>
      <point x="490" y="289" type="curve" smooth="yes"/>
      <point x="494.8" y="300"/>
      <point x="496.1" y="304"/>
      <point x="496.1" y="308" type="curve" smooth="yes"/>
      <point x="496.1" y="314"/>
      <point x="492.2" y="317"/>
      <point x="481.8" y="320" type="curve" smooth="yes"/>
      <point x="472.7" y="323" type="line" smooth="yes"/>
      <point x="468.8" y="325"/>
      <point x="464.9" y="326"/>
      <point x="461" y="326" type="curve" smooth="yes"/>
      <point x="453.2" y="326"/>
      <point x="445.4" y="322"/>
      <point x="437.6" y="311" type="curve" smooth="yes"/>
      <point x="420.7" y="289"/>
      <point x="406.4" y="282"/>
      <point x="385.6" y="282" type="curve" smooth="yes"/>
      <point x="327" y="282"/>
      <point x="242" y="332"/>
      <point x="169" y="332" type="curve" smooth="yes"/>
      <point x="126" y="332"/>
      <point x="94" y="312"/>
      <point x="72" y="260" type="curve" smooth="yes"/>
      <point x="68.4" y="251"/>
      <point x="67.1" y="247"/>
      <point x="67.1" y="243" type="curve" smooth="yes"/>
      <point x="67.1" y="238"/>
      <point x="71" y="234"/>
      <point x="78.8" y="231" type="curve" smooth="yes"/>
    </contour>
  </outline>
</glyph>
<glyph name="exclamdown" format="2">
  <advance width="294"/>
  <unicode hex="00A1"/>
  <outline>
    <contour>
      <point x="121" y="-179" type="curve" smooth="yes"/>
      <point x="141" y="-179" type="line" smooth="yes"/>
      <point x="169" y="-179"/>
      <point x="181" y="-171"/>
      <point x="181" y="-157" type="curve" smooth="yes"/>
      <point x="181" y="299" type="line" smooth="yes"/>
      <point x="181" y="313"/>
      <point x="172" y="321"/>
      <point x="151" y="321" type="curve" smooth="yes"/>
      <point x="140" y="321" type="line" smooth="yes"/>
      <point x="119" y="321"/>
      <point x="110" y="313"/>
      <point x="109" y="299" type="curve" smooth="yes"/>
      <point x="98.5" y="147"/>
      <point x="82" y="-132"/>
      <point x="82" y="-157" type="curve"/>
      <point x="82" y="-171"/>
      <point x="93" y="-179"/>
    </contour>
    <contour>
      <point x="136" y="415" type="curve"/>
      <point x="153" y="415" type="line" smooth="yes"/>
      <point x="181" y="415"/>
      <point x="193" y="423"/>
      <point x="193" y="437" type="curve" smooth="yes"/>
      <point x="193" y="503" type="line" smooth="yes"/>
      <point x="193" y="517"/>
      <point x="181" y="525"/>
      <point x="153" y="525" type="curve" smooth="yes"/>
      <point x="136" y="525" type="line" smooth="yes"/>
      <point x="108" y="525"/>
      <point x="96" y="517"/>
      <point x="96" y="503" type="curve" smooth="yes"/>
      <point x="96" y="437" type="line" smooth="yes"/>
      <point x="96" y="423"/>
      <point x="108" y="415"/>
    </contour>
  </outline>
</glyph>
<glyph name="cent" format="2">
  <advance width="486"/>
  <unicode hex="00A2"/>
  <anchor x="277" y="523" name="top"/>
  <anchor x="286" y="0" name="bottom"/>
  <outline>
    <contour>
      <point x="309" y="-59" type="curve" smooth="yes"/>
      <point x="309" y="567" type="line" smooth="yes"/>
      <point x="309" y="578"/>
      <point x="303" y="583"/>
      <point x="289" y="583" type="curve" smooth="yes"/>
      <point x="275" y="583"/>
      <point x="269" y="578"/>
      <point x="269" y="567" type="curve" smooth="yes"/>
      <point x="269" y="-59" type="line" smooth="yes"/>
      <point x="269" y="-70"/>
      <point x="275" y="-75"/>
      <point x="289" y="-75" type="curve" smooth="yes"/>
      <point x="303" y="-75"/>
      <point x="309" y="-70"/>
    </contour>
    <component base="c"/>
  </outline>
</glyph>
<glyph name="sterling" format="2">
  <advance width="491"/>
  <unicode hex="00A3"/>
  <outline>
    <contour>
      <point x="53" y="0" type="curve" smooth="yes"/>
      <point x="426" y="0" type="line" smooth="yes"/>
      <point x="440" y="0"/>
      <point x="446" y="9"/>
      <point x="446" y="30" type="curve" smooth="yes"/>
      <point x="446" y="42" type="line" smooth="yes"/>
      <point x="446" y="63"/>
      <point x="440" y="72"/>
      <point x="426" y="72" type="curve" smooth="yes"/>
      <point x="146" y="72" type="line"/>
      <point x="167" y="85"/>
      <point x="203" y="111"/>
      <point x="203" y="249" type="curve" smooth="yes"/>
      <point x="203" y="339" type="line"/>
      <point x="350" y="339" type="line" smooth="yes"/>
      <point x="364" y="339"/>
      <point x="370" y="348"/>
      <point x="370" y="369" type="curve" smooth="yes"/>
      <point x="370" y="381" type="line" smooth="yes"/>
      <point x="370" y="402"/>
      <point x="364" y="411"/>
      <point x="350" y="411" type="curve" smooth="yes"/>
      <point x="203" y="411" type="line"/>
      <point x="203" y="503" type="line" smooth="yes"/>
      <point x="203" y="594"/>
      <point x="244" y="634"/>
      <point x="340" y="634" type="curve" smooth="yes"/>
      <point x="372" y="634"/>
      <point x="395" y="625"/>
      <point x="403" y="625" type="curve" smooth="yes"/>
      <point x="419" y="625"/>
      <point x="425" y="670"/>
      <point x="425" y="674" type="curve" smooth="yes"/>
      <point x="425" y="701"/>
      <point x="362" y="706"/>
      <point x="324" y="706" type="curve" smooth="yes"/>
      <point x="175" y="706"/>
      <point x="119" y="624"/>
      <point x="119" y="498" type="curve" smooth="yes"/>
      <point x="119" y="411" type="line"/>
      <point x="64" y="411" type="line" smooth="yes"/>
      <point x="50" y="411"/>
      <point x="44" y="402"/>
      <point x="44" y="381" type="curve" smooth="yes"/>
      <point x="44" y="369" type="line" smooth="yes"/>
      <point x="44" y="348"/>
      <point x="50" y="339"/>
      <point x="64" y="339" type="curve" smooth="yes"/>
      <point x="119" y="339" type="line"/>
      <point x="119" y="159" type="line" smooth="yes"/>
      <point x="119" y="73"/>
      <point x="33" y="89"/>
      <point x="33" y="46" type="curve" smooth="yes"/>
      <point x="33" y="30" type="line" smooth="yes"/>
      <point x="33" y="9"/>
      <point x="39" y="0"/>
    </contour>
  </outline>
</glyph>
<glyph name="currency" format="2">
  <advance width="534"/>
  <unicode hex="00A4"/>
  <outline>
    <contour>
      <point x="113" y="143" type="curve" smooth="yes"/>
      <point x="120" y="143"/>
      <point x="127" y="146"/>
      <point x="134" y="153" type="curve" smooth="yes"/>
      <point x="159" y="178" type="line"/>
      <point x="188" y="157"/>
      <point x="224" y="145"/>
      <point x="263" y="145" type="curve" smooth="yes"/>
      <point x="302" y="145"/>
      <point x="337" y="157"/>
      <point x="367" y="178" type="curve"/>
      <point x="391" y="154" type="line" smooth="yes"/>
      <point x="398.5" y="146.5"/>
      <point x="405" y="143"/>
      <point x="412" y="143" type="curve" smooth="yes"/>
      <point x="419" y="143"/>
      <point x="425" y="147"/>
      <point x="430" y="152" type="curve" smooth="yes"/>
      <point x="431" y="153" type="line" smooth="yes"/>
      <point x="436" y="158"/>
      <point x="441" y="167"/>
      <point x="441" y="172" type="curve" smooth="yes"/>
      <point x="441" y="179"/>
      <point x="437" y="186"/>
      <point x="430" y="193" type="curve" smooth="yes"/>
      <point x="406" y="217" type="line"/>
      <point x="428" y="246"/>
      <point x="441" y="282"/>
      <point x="441" y="322" type="curve" smooth="yes"/>
      <point x="441" y="361"/>
      <point x="428" y="397"/>
      <point x="406" y="426" type="curve"/>
      <point x="430" y="450" type="line" smooth="yes"/>
      <point x="438" y="458"/>
      <point x="441" y="465"/>
      <point x="441" y="472" type="curve" smooth="yes"/>
      <point x="441" y="478"/>
      <point x="438" y="483"/>
      <point x="432" y="489" type="curve" smooth="yes"/>
      <point x="430" y="491" type="line" smooth="yes"/>
      <point x="424" y="497"/>
      <point x="416" y="500"/>
      <point x="411" y="500" type="curve" smooth="yes"/>
      <point x="404" y="500"/>
      <point x="397" y="496"/>
      <point x="391" y="490" type="curve" smooth="yes"/>
      <point x="367" y="466" type="line"/>
      <point x="338" y="487"/>
      <point x="302" y="500"/>
      <point x="263" y="500" type="curve" smooth="yes"/>
      <point x="224" y="500"/>
      <point x="188" y="487"/>
      <point x="158" y="465" type="curve"/>
      <point x="134" y="489" type="line" smooth="yes"/>
      <point x="126.5" y="496.5"/>
      <point x="119" y="501"/>
      <point x="112" y="501" type="curve" smooth="yes"/>
      <point x="106" y="501"/>
      <point x="100" y="498"/>
      <point x="96" y="493" type="curve" smooth="yes"/>
      <point x="92" y="488" type="line" smooth="yes"/>
      <point x="88" y="483"/>
      <point x="86" y="476"/>
      <point x="86" y="472" type="curve" smooth="yes"/>
      <point x="86" y="464"/>
      <point x="89" y="457"/>
      <point x="96" y="450" type="curve" smooth="yes"/>
      <point x="120" y="427" type="line"/>
      <point x="98" y="397"/>
      <point x="86" y="361"/>
      <point x="86" y="322" type="curve" smooth="yes"/>
      <point x="86" y="282"/>
      <point x="98" y="246"/>
      <point x="120" y="217" type="curve"/>
      <point x="96" y="193" type="line" smooth="yes"/>
      <point x="89" y="186"/>
      <point x="85" y="178"/>
      <point x="85" y="171" type="curve" smooth="yes"/>
      <point x="85" y="164"/>
      <point x="88" y="159"/>
      <point x="93" y="154" type="curve" smooth="yes"/>
      <point x="95" y="152" type="line" smooth="yes"/>
      <point x="101" y="146"/>
      <point x="108" y="143"/>
    </contour>
    <contour>
      <point x="263" y="206" type="curve" smooth="yes"/>
      <point x="199" y="206"/>
      <point x="147" y="258"/>
      <point x="147" y="322" type="curve" smooth="yes"/>
      <point x="147" y="386"/>
      <point x="199" y="439"/>
      <point x="263" y="439" type="curve" smooth="yes"/>
      <point x="327" y="439"/>
      <point x="380" y="386"/>
      <point x="380" y="322" type="curve" smooth="yes"/>
      <point x="380" y="258"/>
      <point x="327" y="206"/>
    </contour>
  </outline>
</glyph>
<glyph name="yen" format="2">
  <advance width="559"/>
  <unicode hex="00A5"/>
  <anchor x="280" y="700" name="top"/>
  <anchor x="279" y="0" name="bottom"/>
  <outline>
    <contour>
      <point x="68" y="355" type="curve"/>
      <point x="492" y="355" type="line"/>
      <point x="506" y="355"/>
      <point x="512" y="364"/>
      <point x="512" y="385" type="curve" smooth="yes"/>
      <point x="512" y="393" type="line" smooth="yes"/>
      <point x="512" y="414"/>
      <point x="506" y="423"/>
      <point x="492" y="423" type="curve"/>
      <point x="332" y="423" type="line"/>
      <point x="280" y="423" type="line"/>
      <point x="228" y="423" type="line"/>
      <point x="68" y="423" type="line"/>
      <point x="54" y="423"/>
      <point x="48" y="414"/>
      <point x="48" y="393" type="curve" smooth="yes"/>
      <point x="48" y="385" type="line" smooth="yes"/>
      <point x="48" y="364"/>
      <point x="54" y="355"/>
    </contour>
    <contour>
      <point x="68" y="191" type="curve"/>
      <point x="492" y="191" type="line"/>
      <point x="506" y="191"/>
      <point x="512" y="200"/>
      <point x="512" y="221" type="curve" smooth="yes"/>
      <point x="512" y="229" type="line" smooth="yes"/>
      <point x="512" y="250"/>
      <point x="506" y="259"/>
      <point x="492" y="259" type="curve"/>
      <point x="68" y="259" type="line"/>
      <point x="54" y="259"/>
      <point x="48" y="250"/>
      <point x="48" y="229" type="curve" smooth="yes"/>
      <point x="48" y="221" type="line" smooth="yes"/>
      <point x="48" y="200"/>
      <point x="54" y="191"/>
    </contour>
    <component base="Y"/>
  </outline>
</glyph>
<glyph name="brokenbar" format="2">
  <advance width="250"/>
  <unicode hex="00A6"/>
  <outline>
    <contour>
      <point x="120" y="403" type="curve"/>
      <point x="130" y="403" type="line" smooth="yes"/>
      <point x="147" y="403"/>
      <point x="154" y="411"/>
      <point x="154" y="425" type="curve" smooth="yes"/>
      <point x="154" y="748" type="line" smooth="yes"/>
      <point x="154" y="762"/>
      <point x="147" y="770"/>
      <point x="130" y="770" type="curve" smooth="yes"/>
      <point x="120" y="770" type="line" smooth="yes"/>
      <point x="103" y="770"/>
      <point x="96" y="762"/>
      <point x="96" y="748" type="curve" smooth="yes"/>
      <point x="96" y="425" type="line" smooth="yes"/>
      <point x="96" y="411"/>
      <point x="103" y="403"/>
    </contour>
    <contour>
      <point x="120" y="-140" type="curve" smooth="yes"/>
      <point x="130" y="-140" type="line" smooth="yes"/>
      <point x="147" y="-140"/>
      <point x="154" y="-132"/>
      <point x="154" y="-118" type="curve" smooth="yes"/>
      <point x="154" y="204" type="line" smooth="yes"/>
      <point x="154" y="218"/>
      <point x="147" y="226"/>
      <point x="130" y="226" type="curve" smooth="yes"/>
      <point x="120" y="226" type="line" smooth="yes"/>
      <point x="103" y="226"/>
      <point x="96" y="218"/>
      <point x="96" y="204" type="curve" smooth="yes"/>
      <point x="96" y="-118" type="line" smooth="yes"/>
      <point x="96" y="-132"/>
      <point x="103" y="-140"/>
    </contour>
  </outline>
</glyph>
<glyph name="section" format="2">
  <advance width="429"/>
  <unicode hex="00A7"/>
  <outline>
    <contour>
      <point x="205" y="-6" type="curve" smooth="yes"/>
      <point x="283" y="-6"/>
      <point x="364" y="34"/>
      <point x="364" y="138" type="curve" smooth="yes"/>
      <point x="364" y="179"/>
      <point x="348" y="207"/>
      <point x="324" y="227" type="curve"/>
      <point x="357" y="253"/>
      <point x="379" y="291"/>
      <point x="379" y="343" type="curve" smooth="yes"/>
      <point x="379" y="447"/>
      <point x="316" y="477"/>
      <point x="256" y="497" type="curve" smooth="yes"/>
      <point x="202" y="515"/>
      <point x="151" y="525"/>
      <point x="151" y="574" type="curve" smooth="yes"/>
      <point x="151" y="608"/>
      <point x="176" y="634"/>
      <point x="233" y="634" type="curve" smooth="yes"/>
      <point x="287" y="634"/>
      <point x="319" y="610"/>
      <point x="324" y="610" type="curve" smooth="yes"/>
      <point x="337" y="610"/>
      <point x="356" y="648"/>
      <point x="356" y="664" type="curve" smooth="yes"/>
      <point x="356" y="686"/>
      <point x="293" y="706"/>
      <point x="225" y="706" type="curve" smooth="yes"/>
      <point x="146" y="706"/>
      <point x="65" y="666"/>
      <point x="65" y="564" type="curve" smooth="yes"/>
      <point x="65" y="522"/>
      <point x="81" y="494"/>
      <point x="103" y="474" type="curve"/>
      <point x="73" y="448"/>
      <point x="50" y="409"/>
      <point x="50" y="359" type="curve" smooth="yes"/>
      <point x="50" y="259"/>
      <point x="108" y="227"/>
      <point x="166" y="206" type="curve" smooth="yes"/>
      <point x="223" y="186"/>
      <point x="279" y="178"/>
      <point x="279" y="126" type="curve" smooth="yes"/>
      <point x="279" y="93"/>
      <point x="253" y="66"/>
      <point x="196" y="66" type="curve" smooth="yes"/>
      <point x="142" y="66"/>
      <point x="111" y="90"/>
      <point x="106" y="90" type="curve" smooth="yes"/>
      <point x="93" y="90"/>
      <point x="74" y="52"/>
      <point x="74" y="36" type="curve" smooth="yes"/>
      <point x="74" y="14"/>
      <point x="137" y="-6"/>
    </contour>
    <contour>
      <point x="238" y="266" type="curve"/>
      <point x="184" y="282"/>
      <point x="135" y="298"/>
      <point x="135" y="359" type="curve" smooth="yes"/>
      <point x="135" y="406"/>
      <point x="163" y="427"/>
      <point x="191" y="435" type="curve"/>
      <point x="244" y="419"/>
      <point x="294" y="402"/>
      <point x="294" y="343" type="curve" smooth="yes"/>
      <point x="294" y="294"/>
      <point x="268" y="273"/>
    </contour>
  </outline>
</glyph>
<glyph name="dieresis" format="2">
  <advance width="320"/>
  <unicode hex="00A8"/>
  <anchor x="161" y="523" name="_top"/>
  <outline>
    <contour>
      <point x="231" y="607" type="curve"/>
      <point x="263" y="607"/>
      <point x="275" y="616"/>
      <point x="275" y="629" type="curve" smooth="yes"/>
      <point x="275" y="680" type="line" smooth="yes"/>
      <point x="275" y="694"/>
      <point x="263" y="702"/>
      <point x="235" y="702" type="curve" smooth="yes"/>
      <point x="203" y="702"/>
      <point x="191" y="693"/>
      <point x="191" y="680" type="curve" smooth="yes"/>
      <point x="191" y="629" type="line" smooth="yes"/>
      <point x="191" y="615"/>
      <point x="203" y="607"/>
    </contour>
    <contour>
      <point x="87" y="607" type="curve"/>
      <point x="119" y="607"/>
      <point x="131" y="616"/>
      <point x="131" y="629" type="curve" smooth="yes"/>
      <point x="131" y="680" type="line" smooth="yes"/>
      <point x="131" y="694"/>
      <point x="119" y="702"/>
      <point x="91" y="702" type="curve" smooth="yes"/>
      <point x="59" y="702"/>
      <point x="47" y="693"/>
      <point x="47" y="680" type="curve" smooth="yes"/>
      <point x="47" y="629" type="line" smooth="yes"/>
      <point x="47" y="615"/>
      <point x="59" y="607"/>
    </contour>
  </outline>
</glyph>
<glyph name="ordfeminine" format="2">
  <advance width="319"/>
  <unicode hex="00AA"/>
  <outline>
    <contour>
      <point x="129" y="441" type="curve" smooth="yes"/>
      <point x="167" y="441"/>
      <point x="194" y="458"/>
      <point x="213" y="479" type="curve"/>
      <point x="215" y="465"/>
      <point x="218" y="444"/>
      <point x="230" y="444" type="curve" smooth="yes"/>
      <point x="236" y="444"/>
      <point x="257" y="446"/>
      <point x="257" y="455" type="curve" smooth="yes"/>
      <point x="257" y="458"/>
      <point x="251" y="477"/>
      <point x="251" y="517" type="curve" smooth="yes"/>
      <point x="251" y="628" type="line" smooth="yes"/>
      <point x="251" y="677"/>
      <point x="214" y="706"/>
      <point x="153" y="706" type="curve" smooth="yes"/>
      <point x="104" y="706"/>
      <point x="60" y="687"/>
      <point x="60" y="674" type="curve" smooth="yes"/>
      <point x="60" y="668"/>
      <point x="71" y="650"/>
      <point x="78" y="650" type="curve" smooth="yes"/>
      <point x="83" y="650"/>
      <point x="110" y="670"/>
      <point x="155" y="670" type="curve" smooth="yes"/>
      <point x="196" y="670"/>
      <point x="210" y="651"/>
      <point x="210" y="629" type="curve" smooth="yes"/>
      <point x="210" y="605" type="line"/>
      <point x="133" y="604"/>
      <point x="45" y="599"/>
      <point x="45" y="515" type="curve" smooth="yes"/>
      <point x="45" y="465"/>
      <point x="82" y="441"/>
    </contour>
    <contour>
      <point x="131" y="478" type="curve" smooth="yes"/>
      <point x="104" y="478"/>
      <point x="90" y="491"/>
      <point x="90" y="518" type="curve" smooth="yes"/>
      <point x="90" y="570"/>
      <point x="158" y="570"/>
      <point x="210" y="570" type="curve"/>
      <point x="210" y="511" type="line"/>
      <point x="190" y="493"/>
      <point x="168" y="478"/>
    </contour>
  </outline>
</glyph>
<glyph name="macron" format="2">
  <advance width="320"/>
  <unicode hex="00AF"/>
  <anchor x="158.5" y="523" name="_top"/>
  <outline>
    <contour>
      <point x="47" y="612" type="curve"/>
      <point x="270" y="612" type="line" smooth="yes"/>
      <point x="284" y="612"/>
      <point x="290" y="621"/>
      <point x="290" y="642" type="curve" smooth="yes"/>
      <point x="290" y="652" type="line" smooth="yes"/>
      <point x="290" y="673"/>
      <point x="284" y="682"/>
      <point x="270" y="682" type="curve" smooth="yes"/>
      <point x="47" y="682" type="line" smooth="yes"/>
      <point x="33" y="682"/>
      <point x="27" y="673"/>
      <point x="27" y="652" type="curve" smooth="yes"/>
      <point x="27" y="642" type="line" smooth="yes"/>
      <point x="27" y="621"/>
      <point x="33" y="612"/>
    </contour>
  </outline>
</glyph>
<glyph name="paragraph" format="2">
  <advance width="515"/>
  <unicode hex="00B6"/>
  <outline>
    <contour>
      <point x="267" y="-173" type="curve" smooth="yes"/>
      <point x="281" y="-173" type="line" smooth="yes"/>
      <point x="298" y="-173"/>
      <point x="305" y="-165"/>
      <point x="305" y="-151" type="curve" smooth="yes"/>
      <point x="305" y="638" type="line"/>
      <point x="383" y="638" type="line"/>
      <point x="383" y="-151" type="line" smooth="yes"/>
      <point x="383" y="-165"/>
      <point x="390" y="-173"/>
      <point x="407" y="-173" type="curve" smooth="yes"/>
      <point x="421" y="-173" type="line" smooth="yes"/>
      <point x="438" y="-173"/>
      <point x="445" y="-165"/>
      <point x="445" y="-151" type="curve" smooth="yes"/>
      <point x="445" y="638" type="line"/>
      <point x="481" y="638" type="line" smooth="yes"/>
      <point x="495" y="638"/>
      <point x="501" y="645"/>
      <point x="501" y="662" type="curve" smooth="yes"/>
      <point x="501" y="676" type="line" smooth="yes"/>
      <point x="501" y="693"/>
      <point x="495" y="700"/>
      <point x="481" y="700" type="curve" smooth="yes"/>
      <point x="268" y="700" type="line" smooth="yes"/>
      <point x="143" y="700"/>
      <point x="41" y="598"/>
      <point x="41" y="473" type="curve" smooth="yes"/>
      <point x="41" y="356"/>
      <point x="130" y="260"/>
      <point x="243" y="247" type="curve"/>
      <point x="243" y="-151" type="line" smooth="yes"/>
      <point x="243" y="-165"/>
      <point x="250" y="-173"/>
    </contour>
  </outline>
</glyph>
<glyph name="periodcentered" format="2">
  <advance width="267"/>
  <unicode hex="00B7"/>
  <anchor x="140" y="335" name="_center"/>
  <outline>
    <contour>
      <point x="141" y="309" type="curve" smooth="yes"/>
      <point x="170" y="309"/>
      <point x="193" y="331"/>
      <point x="193" y="360" type="curve" smooth="yes"/>
      <point x="193" y="389"/>
      <point x="170" y="412"/>
      <point x="141" y="412" type="curve" smooth="yes"/>
      <point x="112" y="412"/>
      <point x="90" y="389"/>
      <point x="90" y="360" type="curve" smooth="yes"/>
      <point x="90" y="331"/>
      <point x="112" y="309"/>
    </contour>
  </outline>
</glyph>
<glyph name="onesuperior" format="2">
  <advance width="217"/>
  <unicode hex="00B9"/>
  <outline>
    <contour>
      <point x="148" y="297" type="curve"/>
      <point x="153" y="297" type="line" smooth="yes"/>
      <point x="163" y="297"/>
      <point x="175" y="301"/>
      <point x="175" y="311" type="curve" smooth="yes"/>
      <point x="175" y="690" type="line" smooth="yes"/>
      <point x="175" y="697"/>
      <point x="166" y="702"/>
      <point x="157" y="702" type="curve"/>
      <point x="51" y="674" type="line" smooth="yes"/>
      <point x="44" y="672"/>
      <point x="41" y="669"/>
      <point x="41" y="663" type="curve" smooth="yes"/>
      <point x="41" y="652"/>
      <point x="44" y="633"/>
      <point x="53" y="633" type="curve"/>
      <point x="127" y="649" type="line"/>
      <point x="127" y="311" type="line" smooth="yes"/>
      <point x="127" y="301"/>
      <point x="138" y="297"/>
    </contour>
  </outline>
</glyph>
<glyph name="threequarters" format="2">
  <advance width="743"/>
  <unicode hex="00BE"/>
  <outline>
    <contour>
      <point x="174" y="-2" type="curve" smooth="yes"/>
      <point x="187" y="-2" type="line" smooth="yes"/>
      <point x="201" y="-2"/>
      <point x="210" y="3"/>
      <point x="217" y="15" type="curve" smooth="yes"/>
      <point x="623" y="686" type="line" smooth="yes"/>
      <point x="625" y="690"/>
      <point x="627" y="693"/>
      <point x="627" y="696" type="curve" smooth="yes"/>
      <point x="627" y="701"/>
      <point x="622" y="703"/>
      <point x="613" y="703" type="curve" smooth="yes"/>
      <point x="600" y="703" type="line" smooth="yes"/>
      <point x="586" y="703"/>
      <point x="577" y="698"/>
      <point x="570" y="686" type="curve" smooth="yes"/>
      <point x="164" y="15" type="line" smooth="yes"/>
      <point x="162" y="11"/>
      <point x="160" y="7"/>
      <point x="160" y="5" type="curve" smooth="yes"/>
      <point x="160" y="0"/>
      <point x="165" y="-2"/>
    </contour>
    <component base="three" xScale="0.587" yScale="0.587" xOffset="14" yOffset="292"/>
    <component base="four" xScale="0.578" yScale="0.578" xOffset="404" yOffset="-1"/>
  </outline>
</glyph>
<glyph name="Eth" format="2">
  <advance width="696"/>
  <unicode hex="00D0"/>
  <anchor x="312" y="700" name="top"/>
  <anchor x="141" y="350" name="center"/>
  <anchor x="327" y="0" name="bottom"/>
  <outline>
    <contour>
      <point x="20" y="320" type="curve" smooth="yes"/>
      <point x="283" y="320" type="line" smooth="yes"/>
      <point x="297" y="320"/>
      <point x="303" y="329"/>
      <point x="303" y="350" type="curve" smooth="yes"/>
      <point x="303" y="366" type="line" smooth="yes"/>
      <point x="303" y="387"/>
      <point x="297" y="396"/>
      <point x="283" y="396" type="curve" smooth="yes"/>
      <point x="20" y="396" type="line" smooth="yes"/>
      <point x="6" y="396"/>
      <point x="0" y="387"/>
      <point x="0" y="366" type="curve" smooth="yes"/>
      <point x="0" y="350" type="line" smooth="yes"/>
      <point x="0" y="329"/>
      <point x="6" y="320"/>
    </contour>
    <component base="D"/>
  </outline>
</glyph>
<glyph name="Oslash" format="2">
  <advance width="731"/>
  <unicode hex="00D8"/>
  <anchor x="366" y="700" name="top"/>
  <anchor x="443" y="0" name="ogonek"/>
  <anchor x="482" y="682" name="horn"/>
  <anchor x="367" y="0" name="bottom"/>
  <outline>
    <contour>
      <point x="70" y="10" type="curve" smooth="yes"/>
      <point x="663" y="668" type="line" smooth="yes"/>
      <point x="667" y="673"/>
      <point x="669" y="677"/>
      <point x="669" y="682" type="curve" smooth="yes"/>
      <point x="669" y="690"/>
      <point x="656" y="702"/>
      <point x="647" y="702" type="curve" smooth="yes"/>
      <point x="642" y="702"/>
      <point x="638" y="700"/>
      <point x="633" y="694" type="curve"/>
      <point x="40" y="36" type="line"/>
      <point x="36" y="31"/>
      <point x="34" y="26"/>
      <point x="34" y="22" type="curve" smooth="yes"/>
      <point x="34" y="13"/>
      <point x="47" y="1"/>
      <point x="56" y="1" type="curve" smooth="yes"/>
      <point x="60" y="1"/>
      <point x="65" y="4"/>
    </contour>
    <component base="O"/>
  </outline>
</glyph>
<glyph name="Thorn" format="2">
  <advance width="570"/>
  <unicode hex="00DE"/>
  <anchor x="129" y="0" name="bottom"/>
  <anchor x="129" y="700" name="top"/>
  <outline>
    <contour>
      <point x="125" y="-2" type="curve" smooth="yes"/>
      <point x="133" y="-2" type="line" smooth="yes"/>
      <point x="161" y="-2"/>
      <point x="173" y="6"/>
      <point x="173" y="20" type="curve" smooth="yes"/>
      <point x="173" y="176" type="line"/>
      <point x="328" y="176" type="line" smooth="yes"/>
      <point x="380" y="176"/>
      <point x="541" y="199"/>
      <point x="541" y="382" type="curve" smooth="yes"/>
      <point x="541" y="551"/>
      <point x="404" y="578"/>
      <point x="318" y="578" type="curve" smooth="yes"/>
      <point x="173" y="578" type="line"/>
      <point x="173" y="680" type="line" smooth="yes"/>
      <point x="173" y="694"/>
      <point x="161" y="702"/>
      <point x="133" y="702" type="curve" smooth="yes"/>
      <point x="125" y="702" type="line" smooth="yes"/>
      <point x="97" y="702"/>
      <point x="85" y="694"/>
      <point x="85" y="680" type="curve" smooth="yes"/>
      <point x="85" y="20" type="line" smooth="yes"/>
      <point x="85" y="6"/>
      <point x="97" y="-2"/>
    </contour>
    <contour>
      <point x="173" y="252" type="line"/>
      <point x="173" y="502" type="line"/>
      <point x="315" y="502" type="line" smooth="yes"/>
      <point x="374" y="502"/>
      <point x="450" y="481"/>
      <point x="450" y="382" type="curve" smooth="yes"/>
      <point x="450" y="273"/>
      <point x="369" y="252"/>
      <point x="329" y="252" type="curve" smooth="yes"/>
    </contour>
  </outline>
</glyph>
<glyph name="eth" format="2">
  <advance width="569"/>
  <unicode hex="00F0"/>
  <outline>
    <contour>
      <point x="287" y="-6" type="curve" smooth="yes"/>
      <point x="436" y="-6"/>
      <point x="514" y="86"/>
      <point x="514" y="259" type="curve" smooth="yes"/>
      <point x="514" y="389"/>
      <point x="467" y="513"/>
      <point x="400" y="618" type="curve"/>
      <point x="460" y="626" type="line" smooth="yes"/>
      <point x="470" y="627"/>
      <point x="475" y="632"/>
      <point x="475" y="639" type="curve" smooth="yes"/>
      <point x="475" y="644"/>
      <point x="469" y="671"/>
      <point x="450" y="671" type="curve" smooth="yes"/>
      <point x="449" y="671"/>
      <point x="448" y="671"/>
      <point x="372" y="660" type="curve"/>
      <point x="359" y="678"/>
      <point x="349" y="690"/>
      <point x="339" y="702" type="curve" smooth="yes"/>
      <point x="333" y="709"/>
      <point x="325" y="714"/>
      <point x="313" y="714" type="curve" smooth="yes"/>
      <point x="302" y="714"/>
      <point x="293" y="713"/>
      <point x="286" y="712" type="curve" smooth="yes"/>
      <point x="275" y="710.5"/>
      <point x="270" y="705"/>
      <point x="270" y="698" type="curve" smooth="yes"/>
      <point x="270" y="688"/>
      <point x="281" y="672"/>
      <point x="296" y="650" type="curve"/>
      <point x="224" y="640" type="line" smooth="yes"/>
      <point x="214" y="638.5"/>
      <point x="209" y="634"/>
      <point x="209" y="627" type="curve" smooth="yes"/>
      <point x="209" y="613"/>
      <point x="221" y="595"/>
      <point x="235" y="595" type="curve" smooth="yes"/>
      <point x="237" y="595"/>
      <point x="239" y="596"/>
      <point x="321" y="607" type="curve"/>
      <point x="339" y="575"/>
      <point x="359" y="536"/>
      <point x="377" y="494" type="curve"/>
      <point x="387" y="509" type="line"/>
      <point x="358" y="522"/>
      <point x="324" y="529"/>
      <point x="287" y="529" type="curve" smooth="yes"/>
      <point x="138" y="529"/>
      <point x="55" y="432"/>
      <point x="55" y="259" type="curve" smooth="yes"/>
      <point x="55" y="87"/>
      <point x="136" y="-6"/>
    </contour>
    <contour>
      <point x="284" y="66" type="curve" smooth="yes"/>
      <point x="186" y="66"/>
      <point x="141" y="128"/>
      <point x="141" y="261" type="curve" smooth="yes"/>
      <point x="141" y="395"/>
      <point x="187" y="457"/>
      <point x="284" y="457" type="curve" smooth="yes"/>
      <point x="382" y="457"/>
      <point x="427" y="394"/>
      <point x="427" y="261" type="curve" smooth="yes"/>
      <point x="427" y="128"/>
      <point x="382" y="66"/>
    </contour>
  </outline>
</glyph>
<glyph name="oslash" format="2">
  <advance width="569"/>
  <unicode hex="00F8"/>
  <anchor x="285" y="523" name="top"/>
  <anchor x="343" y="0" name="ogonek"/>
  <anchor x="376" y="505" name="horn"/>
  <anchor x="291" y="0" name="bottom"/>
  <outline>
    <contour>
      <point x="101" y="10" type="curve" smooth="yes"/>
      <point x="509" y="486" type="line" smooth="yes"/>
      <point x="513" y="491"/>
      <point x="515" y="495"/>
      <point x="515" y="500" type="curve" smooth="yes"/>
      <point x="515" y="508"/>
      <point x="501" y="521"/>
      <point x="493" y="521" type="curve" smooth="yes"/>
      <point x="488" y="521"/>
      <point x="483.5" y="518"/>
      <point x="479" y="513" type="curve" smooth="yes"/>
      <point x="71" y="37" type="line" smooth="yes"/>
      <point x="67" y="32"/>
      <point x="64" y="28"/>
      <point x="64" y="23" type="curve" smooth="yes"/>
      <point x="64" y="15"/>
      <point x="78" y="2"/>
      <point x="87" y="2" type="curve" smooth="yes"/>
      <point x="92" y="2"/>
      <point x="96.5" y="5"/>
    </contour>
    <component base="o"/>
  </outline>
</glyph>
<glyph name="itilde" format="2">
  <advance width="265"/>
  <unicode hex="0129"/>
  <anchor x="133" y="523" name="top"/>
  <anchor x="158" y="0" name="ogonek"/>
  <anchor x="131" y="0" name="bottom"/>
  <outline>
    <contour>
      <point x="9.26" y="592" type="line" smooth="yes"/>
      <point x="12.604" y="591"/>
      <point x="15.112" y="590"/>
      <point x="17.62" y="590" type="curve" smooth="yes"/>
      <point x="22.636" y="590"/>
      <point x="25.98" y="594"/>
      <point x="30.996" y="604" type="curve" smooth="yes"/>
      <point x="41.864" y="626"/>
      <point x="50.224" y="634"/>
      <point x="62.764" y="634" type="curve" smooth="yes"/>
      <point x="98.712" y="634"/>
      <point x="150.544" y="591"/>
      <point x="197.36" y="591" type="curve" smooth="yes"/>
      <point x="227.456" y="591"/>
      <point x="250.028" y="609"/>
      <point x="266.748" y="659" type="curve" smooth="yes"/>
      <point x="269.256" y="665"/>
      <point x="270.092" y="669"/>
      <point x="270.092" y="673" type="curve" smooth="yes"/>
      <point x="270.092" y="679"/>
      <point x="267.584" y="682"/>
      <point x="260.896" y="685" type="curve" smooth="yes"/>
      <point x="255.044" y="688" type="line" smooth="yes"/>
      <point x="252.536" y="690"/>
      <point x="250.028" y="691"/>
      <point x="247.52" y="691" type="curve" smooth="yes"/>
      <point x="242.504" y="691"/>
      <point x="237.488" y="687"/>
      <point x="232.472" y="676" type="curve" smooth="yes"/>
      <point x="221.604" y="654"/>
      <point x="212.408" y="647"/>
      <point x="199.032" y="647" type="curve" smooth="yes"/>
      <point x="163.084" y="647"/>
      <point x="111.252" y="690"/>
      <point x="66.944" y="690" type="curve" smooth="yes"/>
      <point x="36.012" y="690"/>
      <point x="13.44" y="672"/>
      <point x="-3.28" y="621" type="curve" smooth="yes"/>
      <point x="-4.952" y="616"/>
      <point x="-5.788" y="612"/>
      <point x="-5.788" y="608" type="curve" smooth="yes"/>
      <point x="-5.788" y="603"/>
      <point x="-3.28" y="599"/>
      <point x="1.736" y="596" type="curve" smooth="yes"/>
    </contour>
    <component base="idotless"/>
  </outline>
</glyph>
<glyph name="idotless" format="2">
  <advance width="265"/>
  <unicode hex="0131"/>
  <anchor x="131" y="0" name="bottom"/>
  <anchor x="158" y="0" name="ogonek"/>
  <anchor x="133" y="523" name="top"/>
  <outline>
    <contour>
      <point x="131" y="-2" type="curve" smooth="yes"/>
      <point x="135" y="-2" type="line" smooth="yes"/>
      <point x="163" y="-2"/>
      <point x="175" y="6"/>
      <point x="175" y="20" type="curve" smooth="yes"/>
      <point x="175" y="503" type="line" smooth="yes"/>
      <point x="175" y="517"/>
      <point x="163" y="525"/>
      <point x="135" y="525" type="curve" smooth="yes"/>
      <point x="131" y="525" type="line" smooth="yes"/>
      <point x="103" y="525"/>
      <point x="91" y="517"/>
      <point x="91" y="503" type="curve" smooth="yes"/>
      <point x="91" y="20" type="line" smooth="yes"/>
      <point x="91" y="6"/>
      <point x="103" y="-2"/>
    </contour>
  </outline>
</glyph>
<glyph name="kgreenlandic" format="2">
  <advance width="521"/>
  <unicode hex="0138"/>
  <outline>
    <contour>
      <point x="134" y="-2" type="curve" smooth="yes"/>
      <point x="138" y="-2" type="line" smooth="yes"/>
      <point x="166" y="-2"/>
      <point x="178" y="6"/>
      <point x="178" y="20" type="curve" smooth="yes"/>
      <point x="178" y="248" type="line"/>
      <point x="182" y="248" type="line"/>
      <point x="382" y="11" type="line" smooth="yes"/>
      <point x="392" y="-1"/>
      <point x="414" y="-2"/>
      <point x="436" y="-2" type="curve" smooth="yes"/>
      <point x="440" y="-2" type="line" smooth="yes"/>
      <point x="471" y="-2"/>
      <point x="484" y="1"/>
      <point x="484" y="12" type="curve" smooth="yes"/>
      <point x="484" y="16"/>
      <point x="482" y="20"/>
      <point x="475" y="28" type="curve" smooth="yes"/>
      <point x="269" y="272" type="line"/>
      <point x="455" y="492" type="line" smooth="yes"/>
      <point x="462" y="500"/>
      <point x="465" y="507"/>
      <point x="465" y="512" type="curve" smooth="yes"/>
      <point x="465" y="519"/>
      <point x="454" y="525"/>
      <point x="430" y="525" type="curve" smooth="yes"/>
      <point x="426" y="525" type="line" smooth="yes"/>
      <point x="404" y="525"/>
      <point x="382" y="522"/>
      <point x="373" y="511" type="curve" smooth="yes"/>
      <point x="182" y="283" type="line"/>
      <point x="178" y="283" type="line"/>
      <point x="178" y="504" type="line" smooth="yes"/>
      <point x="178" y="518"/>
      <point x="166" y="526"/>
      <point x="138" y="526" type="curve" smooth="yes"/>
      <point x="134" y="526" type="line" smooth="yes"/>
      <point x="106" y="526"/>
      <point x="94" y="518"/>
      <point x="94" y="504" type="curve" smooth="yes"/>
      <point x="94" y="20" type="line" smooth="yes"/>
      <point x="94" y="6"/>
      <point x="106" y="-2"/>
    </contour>
  </outline>
</glyph>
<glyph name="Lslash" format="2">
  <advance width="486"/>
  <unicode hex="0141"/>
  <anchor x="245" y="700" name="caron"/>
  <anchor x="145" y="702" name="top"/>
  <anchor x="327" y="335" name="center"/>
  <anchor x="282" y="0" name="bottom"/>
  <outline>
    <contour>
      <point x="7" y="304" type="curve" smooth="yes"/>
      <point x="9" y="304"/>
      <point x="13" y="305.5"/>
      <point x="17" y="308" type="curve" smooth="yes"/>
      <point x="281" y="465" type="line" smooth="yes"/>
      <point x="293" y="472"/>
      <point x="300" y="481"/>
      <point x="300" y="495" type="curve" smooth="yes"/>
      <point x="300" y="501" type="line" smooth="yes"/>
      <point x="300" y="510"/>
      <point x="296" y="515"/>
      <point x="291" y="515" type="curve" smooth="yes"/>
      <point x="288" y="515"/>
      <point x="285" y="513"/>
      <point x="281" y="511" type="curve" smooth="yes"/>
      <point x="17" y="354" type="line" smooth="yes"/>
      <point x="5" y="347"/>
      <point x="-2" y="338"/>
      <point x="-2" y="324" type="curve" smooth="yes"/>
      <point x="-2" y="318" type="line" smooth="yes"/>
      <point x="-2" y="309"/>
      <point x="2" y="304"/>
    </contour>
    <component base="L"/>
  </outline>
</glyph>
<glyph name="lslash" format="2">
  <advance width="293"/>
  <unicode hex="0142"/>
  <anchor x="166" y="702" name="caron"/>
  <anchor x="125" y="720" name="top"/>
  <anchor x="279" y="335" name="center"/>
  <anchor x="179" y="0" name="bottom"/>
  <outline>
    <contour>
      <point x="38" y="328" type="curve" smooth="yes"/>
      <point x="206" y="427" type="line" smooth="yes"/>
      <point x="218" y="434"/>
      <point x="225" y="443"/>
      <point x="225" y="457" type="curve" smooth="yes"/>
      <point x="225" y="463" type="line" smooth="yes"/>
      <point x="225" y="472"/>
      <point x="221" y="477"/>
      <point x="216" y="477" type="curve" smooth="yes"/>
      <point x="213" y="477"/>
      <point x="210" y="475"/>
      <point x="206" y="473" type="curve"/>
      <point x="38" y="374" type="line"/>
      <point x="26" y="367"/>
      <point x="19" y="358"/>
      <point x="19" y="344" type="curve" smooth="yes"/>
      <point x="19" y="338" type="line" smooth="yes"/>
      <point x="19" y="329"/>
      <point x="23" y="324"/>
      <point x="28" y="324" type="curve" smooth="yes"/>
      <point x="30" y="324"/>
      <point x="34" y="326"/>
    </contour>
    <component base="l"/>
  </outline>
</glyph>
<glyph name="Eng" format="2">
  <advance width="719"/>
  <unicode hex="014A"/>
  <outline>
    <contour>
      <point x="558" y="-24" type="line"/>
      <point x="629" y="20" type="line"/>
      <point x="629" y="680" type="line" smooth="yes"/>
      <point x="629" y="694"/>
      <point x="617" y="702"/>
      <point x="589" y="702" type="curve" smooth="yes"/>
      <point x="582" y="702" type="line" smooth="yes"/>
      <point x="554" y="702"/>
      <point x="542" y="694"/>
      <point x="542" y="680" type="curve" smooth="yes"/>
      <point x="542" y="218" type="line" smooth="yes"/>
      <point x="542" y="189"/>
      <point x="542" y="173"/>
      <point x="544" y="150" type="curve"/>
      <point x="540" y="149" type="line"/>
      <point x="530" y="170"/>
      <point x="520" y="189"/>
      <point x="507" y="209" type="curve" smooth="yes"/>
      <point x="193" y="683" type="line" smooth="yes"/>
      <point x="184" y="697"/>
      <point x="173" y="702"/>
      <point x="151" y="702" type="curve" smooth="yes"/>
      <point x="130" y="702" type="line" smooth="yes"/>
      <point x="102" y="702"/>
      <point x="90" y="694"/>
      <point x="90" y="680" type="curve" smooth="yes"/>
      <point x="90" y="20" type="line" smooth="yes"/>
      <point x="90" y="6"/>
      <point x="102" y="-2"/>
      <point x="130" y="-2" type="curve" smooth="yes"/>
      <point x="137" y="-2" type="line" smooth="yes"/>
      <point x="165" y="-2"/>
      <point x="177" y="6"/>
      <point x="177" y="20" type="curve" smooth="yes"/>
      <point x="177" y="489" type="line" smooth="yes"/>
      <point x="177" y="518"/>
      <point x="177" y="534"/>
      <point x="175" y="557" type="curve"/>
      <point x="179" y="558" type="line"/>
      <point x="189" y="537"/>
      <point x="199" y="518"/>
      <point x="212" y="498" type="curve" smooth="yes"/>
    </contour>
    <contour>
      <point x="500" y="-212" type="curve" smooth="yes"/>
      <point x="550" y="-212"/>
      <point x="629" y="-190"/>
      <point x="629" y="-74" type="curve" smooth="yes"/>
      <point x="629" y="110" type="line"/>
      <point x="545" y="110" type="line"/>
      <point x="545" y="-66" type="line" smooth="yes"/>
      <point x="545" y="-126"/>
      <point x="520" y="-140"/>
      <point x="491" y="-140" type="curve" smooth="yes"/>
      <point x="462" y="-140"/>
      <point x="457" y="-135"/>
      <point x="448" y="-135" type="curve" smooth="yes"/>
      <point x="434" y="-135"/>
      <point x="427" y="-174"/>
      <point x="427" y="-182" type="curve" smooth="yes"/>
      <point x="427" y="-209"/>
      <point x="473" y="-212"/>
    </contour>
  </outline>
</glyph>
<glyph name="oe" format="2">
  <advance width="875"/>
  <unicode hex="0153"/>
  <anchor x="447" y="523" name="top"/>
  <anchor x="769" y="10" name="ogonek"/>
  <anchor x="606" y="0" name="bottom"/>
  <outline>
    <contour>
      <point x="287" y="-6" type="curve" smooth="yes"/>
      <point x="364" y="-6"/>
      <point x="423" y="18"/>
      <point x="461" y="66" type="curve"/>
      <point x="460" y="453" type="line"/>
      <point x="422" y="503"/>
      <point x="363" y="529"/>
      <point x="287" y="529" type="curve" smooth="yes"/>
      <point x="138" y="529"/>
      <point x="55" y="432"/>
      <point x="55" y="259" type="curve" smooth="yes"/>
      <point x="55" y="87"/>
      <point x="136" y="-6"/>
    </contour>
    <contour>
      <point x="284" y="66" type="curve" smooth="yes"/>
      <point x="186" y="66"/>
      <point x="143" y="128"/>
      <point x="143" y="261" type="curve" smooth="yes"/>
      <point x="143" y="395"/>
      <point x="187" y="457"/>
      <point x="284" y="457" type="curve" smooth="yes"/>
      <point x="392" y="457"/>
      <point x="440" y="394"/>
      <point x="440" y="261" type="curve" smooth="yes"/>
      <point x="440" y="128"/>
      <point x="392" y="66"/>
    </contour>
    <component base="e" xOffset="336"/>
  </outline>
</glyph>
<glyph name="Schwa" format="2">
  <advance width="672"/>
  <unicode hex="018F"/>
  <outline>
    <contour>
      <point x="301" y="-9" type="curve" smooth="yes"/>
      <point x="489" y="-9"/>
      <point x="584" y="106"/>
      <point x="584" y="332" type="curve" smooth="yes"/>
      <point x="584" y="588"/>
      <point x="493" y="706"/>
      <point x="299" y="706" type="curve" smooth="yes"/>
      <point x="162" y="706"/>
      <point x="59" y="654"/>
      <point x="59" y="622" type="curve" smooth="yes"/>
      <point x="59" y="611"/>
      <point x="80" y="572"/>
      <point x="94" y="572" type="curve" smooth="yes"/>
      <point x="110" y="572"/>
      <point x="177" y="634"/>
      <point x="300" y="634" type="curve" smooth="yes"/>
      <point x="423" y="634"/>
      <point x="482" y="551"/>
      <point x="494" y="363" type="curve"/>
      <point x="78" y="363" type="line" smooth="yes"/>
      <point x="66" y="363"/>
      <point x="45" y="334"/>
      <point x="45" y="322" type="curve" smooth="yes"/>
      <point x="45" y="103"/>
      <point x="129" y="-9"/>
    </contour>
    <contour>
      <point x="304" y="63" type="curve" smooth="yes"/>
      <point x="189" y="63"/>
      <point x="134" y="137"/>
      <point x="134" y="291" type="curve"/>
      <point x="494" y="291" type="line"/>
      <point x="487" y="137"/>
      <point x="421" y="63"/>
    </contour>
  </outline>
</glyph>
<glyph name="Ohorn" format="2">
  <advance width="731"/>
  <unicode hex="01A0"/>
  <anchor x="367" y="0" name="bottom"/>
  <anchor x="443" y="0" name="ogonek"/>
  <anchor x="366" y="700" name="top"/>
  <outline>
    <contour>
      <point x="365" y="-6" type="curve" smooth="yes"/>
      <point x="566" y="-6"/>
      <point x="674" y="118"/>
      <point x="674" y="352" type="curve" smooth="yes"/>
      <point x="674" y="495"/>
      <point x="634" y="596"/>
      <point x="556" y="652" type="curve"/>
      <point x="609" y="662"/>
      <point x="633" y="695"/>
      <point x="633" y="739" type="curve" smooth="yes"/>
      <point x="633" y="768"/>
      <point x="613" y="813"/>
      <point x="590" y="813" type="curve" smooth="yes"/>
      <point x="586" y="813"/>
      <point x="582" y="812"/>
      <point x="578" y="809" type="curve"/>
      <point x="554" y="793" type="line" smooth="yes"/>
      <point x="548" y="789"/>
      <point x="545" y="783"/>
      <point x="545" y="777" type="curve" smooth="yes"/>
      <point x="545" y="765"/>
      <point x="572" y="745"/>
      <point x="572" y="715" type="curve" smooth="yes"/>
      <point x="572" y="699"/>
      <point x="560" y="682"/>
      <point x="527" y="682" type="curve" smooth="yes"/>
      <point x="505" y="682"/>
      <point x="489" y="688"/>
      <point x="475" y="692" type="curve" smooth="yes"/>
      <point x="442" y="701"/>
      <point x="405" y="706"/>
      <point x="365" y="706" type="curve" smooth="yes"/>
      <point x="165" y="706"/>
      <point x="57" y="586"/>
      <point x="57" y="352" type="curve" smooth="yes"/>
      <point x="57" y="118"/>
      <point x="165" y="-6"/>
    </contour>
    <contour>
      <point x="365" y="70" type="curve" smooth="yes"/>
      <point x="224" y="70"/>
      <point x="148" y="168"/>
      <point x="148" y="352" type="curve" smooth="yes"/>
      <point x="148" y="536"/>
      <point x="224" y="630"/>
      <point x="365" y="630" type="curve" smooth="yes"/>
      <point x="506" y="630"/>
      <point x="583" y="536"/>
      <point x="583" y="352" type="curve" smooth="yes"/>
      <point x="583" y="168"/>
      <point x="506" y="70"/>
    </contour>
  </outline>
</glyph>
<glyph name="Uhorn" format="2">
  <advance width="712"/>
  <unicode hex="01AF"/>
  <anchor x="357" y="0" name="bottom"/>
  <anchor x="501" y="22" name="ogonek"/>
  <anchor x="356" y="700" name="top"/>
  <outline>
    <contour>
      <point x="732" y="759" type="curve" smooth="yes"/>
      <point x="732" y="788"/>
      <point x="712" y="833"/>
      <point x="689" y="833" type="curve" smooth="yes"/>
      <point x="685" y="833"/>
      <point x="681" y="832"/>
      <point x="677" y="829" type="curve"/>
      <point x="653" y="813" type="line" smooth="yes"/>
      <point x="647" y="809"/>
      <point x="644" y="803"/>
      <point x="644" y="797" type="curve" smooth="yes"/>
      <point x="644" y="785"/>
      <point x="671" y="765"/>
      <point x="671" y="735" type="curve" smooth="yes"/>
      <point x="671" y="719"/>
      <point x="659" y="702"/>
      <point x="616" y="702" type="curve" smooth="yes"/>
      <point x="581" y="702" type="line" smooth="yes"/>
      <point x="553" y="702"/>
      <point x="541" y="694"/>
      <point x="541" y="680" type="curve" smooth="yes"/>
      <point x="541" y="221" type="line" smooth="yes"/>
      <point x="541" y="133"/>
      <point x="463" y="70"/>
      <point x="356" y="70" type="curve" smooth="yes"/>
      <point x="250" y="70"/>
      <point x="171" y="132"/>
      <point x="171" y="221" type="curve" smooth="yes"/>
      <point x="171" y="680" type="line" smooth="yes"/>
      <point x="171" y="694"/>
      <point x="159" y="702"/>
      <point x="131" y="702" type="curve" smooth="yes"/>
      <point x="123" y="702" type="line" smooth="yes"/>
      <point x="95" y="702"/>
      <point x="83" y="694"/>
      <point x="83" y="680" type="curve" smooth="yes"/>
      <point x="83" y="224" type="line" smooth="yes"/>
      <point x="83" y="80"/>
      <point x="179" y="-6"/>
      <point x="356" y="-6" type="curve" smooth="yes"/>
      <point x="532" y="-6"/>
      <point x="629" y="80"/>
      <point x="629" y="224" type="curve" smooth="yes"/>
      <point x="629" y="669" type="line"/>
      <point x="700" y="672"/>
      <point x="732" y="708"/>
    </contour>
  </outline>
</glyph>
<glyph name="uhorn" format="2">
  <advance width="557"/>
  <unicode hex="01B0"/>
  <anchor x="251" y="0" name="bottom"/>
  <anchor x="468" y="10" name="ogonek"/>
  <anchor x="279" y="523" name="top"/>
  <outline>
    <contour>
      <point x="578" y="582" type="curve" smooth="yes"/>
      <point x="578" y="611"/>
      <point x="558" y="656"/>
      <point x="535" y="656" type="curve" smooth="yes"/>
      <point x="531" y="656"/>
      <point x="527" y="655"/>
      <point x="523" y="652" type="curve"/>
      <point x="499" y="636" type="line" smooth="yes"/>
      <point x="493" y="632"/>
      <point x="490" y="626"/>
      <point x="490" y="620" type="curve" smooth="yes"/>
      <point x="490" y="608"/>
      <point x="517" y="588"/>
      <point x="517" y="558" type="curve" smooth="yes"/>
      <point x="517" y="542"/>
      <point x="505" y="525"/>
      <point x="462" y="525" type="curve" smooth="yes"/>
      <point x="427" y="525" type="line" smooth="yes"/>
      <point x="399" y="525"/>
      <point x="387" y="517"/>
      <point x="387" y="503" type="curve" smooth="yes"/>
      <point x="387" y="137" type="line"/>
      <point x="354" y="94"/>
      <point x="306" y="67"/>
      <point x="261" y="67" type="curve" smooth="yes"/>
      <point x="196" y="67"/>
      <point x="159" y="103"/>
      <point x="159" y="164" type="curve" smooth="yes"/>
      <point x="159" y="503" type="line" smooth="yes"/>
      <point x="159" y="517"/>
      <point x="147" y="525"/>
      <point x="119" y="525" type="curve" smooth="yes"/>
      <point x="115" y="525" type="line" smooth="yes"/>
      <point x="87" y="525"/>
      <point x="75" y="517"/>
      <point x="75" y="503" type="curve" smooth="yes"/>
      <point x="75" y="156" type="line" smooth="yes"/>
      <point x="75" y="55"/>
      <point x="136" y="-6"/>
      <point x="238" y="-6" type="curve" smooth="yes"/>
      <point x="294" y="-6"/>
      <point x="352" y="22"/>
      <point x="394" y="69" type="curve"/>
      <point x="400" y="41"/>
      <point x="405" y="-1"/>
      <point x="429" y="-1" type="curve" smooth="yes"/>
      <point x="442" y="-1"/>
      <point x="483" y="3"/>
      <point x="483" y="22" type="curve" smooth="yes"/>
      <point x="483" y="27"/>
      <point x="471" y="66"/>
      <point x="471" y="148" type="curve" smooth="yes"/>
      <point x="471" y="492" type="line"/>
      <point x="545" y="494"/>
      <point x="578" y="530"/>
    </contour>
  </outline>
</glyph>
<glyph name="jdotless" format="2">
  <advance width="276"/>
  <unicode hex="0237"/>
  <anchor x="143" y="523" name="top"/>
  <outline>
    <contour>
      <point x="56" y="-212" type="curve" smooth="yes"/>
      <point x="106" y="-212"/>
      <point x="185" y="-190"/>
      <point x="185" y="-74" type="curve" smooth="yes"/>
      <point x="185" y="503" type="line" smooth="yes"/>
      <point x="185" y="517"/>
      <point x="173" y="525"/>
      <point x="145" y="525" type="curve" smooth="yes"/>
      <point x="141" y="525" type="line" smooth="yes"/>
      <point x="113" y="525"/>
      <point x="101" y="517"/>
      <point x="101" y="503" type="curve" smooth="yes"/>
      <point x="101" y="-66" type="line" smooth="yes"/>
      <point x="101" y="-126"/>
      <point x="76" y="-140"/>
      <point x="47" y="-140" type="curve" smooth="yes"/>
      <point x="18" y="-140"/>
      <point x="13" y="-135"/>
      <point x="4" y="-135" type="curve" smooth="yes"/>
      <point x="-10" y="-135"/>
      <point x="-17" y="-174"/>
      <point x="-17" y="-182" type="curve" smooth="yes"/>
      <point x="-17" y="-209"/>
      <point x="29" y="-212"/>
    </contour>
  </outline>
</glyph>
<glyph name="caron" format="2">
  <advance width="320"/>
  <unicode hex="02C7"/>
  <anchor x="156" y="523" name="_top"/>
  <outline>
    <contour>
      <point x="143" y="582" type="curve"/>
      <point x="168" y="582" type="line" smooth="yes"/>
      <point x="188" y="582"/>
      <point x="204" y="589"/>
      <point x="214" y="604" type="curve" smooth="yes"/>
      <point x="271" y="692" type="line" smooth="yes"/>
      <point x="275" y="698"/>
      <point x="277" y="704"/>
      <point x="277" y="709" type="curve" smooth="yes"/>
      <point x="277" y="718"/>
      <point x="269" y="724"/>
      <point x="253" y="724" type="curve"/>
      <point x="251" y="724" type="line"/>
      <point x="238" y="724"/>
      <point x="228" y="720"/>
      <point x="218" y="711" type="curve"/>
      <point x="155" y="637" type="line"/>
      <point x="94" y="711" type="line"/>
      <point x="84" y="720"/>
      <point x="74" y="724"/>
      <point x="60" y="724" type="curve"/>
      <point x="58" y="724" type="line"/>
      <point x="43" y="724"/>
      <point x="35" y="719"/>
      <point x="35" y="710" type="curve" smooth="yes"/>
      <point x="35" y="705"/>
      <point x="37" y="699"/>
      <point x="41" y="692" type="curve" smooth="yes"/>
      <point x="97" y="604" type="line" smooth="yes"/>
      <point x="107" y="589"/>
      <point x="123" y="582"/>
    </contour>
  </outline>
</glyph>
<glyph name="ring" format="2">
  <advance width="320"/>
  <unicode hex="02DA"/>
  <anchor x="160.5" y="523" name="_top"/>
  <outline>
    <contour>
      <point x="160" y="564" type="curve" smooth="yes"/>
      <point x="207" y="564"/>
      <point x="245" y="601"/>
      <point x="245" y="648" type="curve" smooth="yes"/>
      <point x="245" y="695"/>
      <point x="207" y="733"/>
      <point x="160" y="733" type="curve" smooth="yes"/>
      <point x="113" y="733"/>
      <point x="76" y="695"/>
      <point x="76" y="648" type="curve" smooth="yes"/>
      <point x="76" y="601"/>
      <point x="113" y="564"/>
    </contour>
    <contour>
      <point x="160" y="599" type="curve" smooth="yes"/>
      <point x="132" y="599"/>
      <point x="111" y="620"/>
      <point x="111" y="648" type="curve" smooth="yes"/>
      <point x="111" y="676"/>
      <point x="132" y="698"/>
      <point x="160" y="698" type="curve" smooth="yes"/>
      <point x="188" y="698"/>
      <point x="210" y="676"/>
      <point x="210" y="648" type="curve" smooth="yes"/>
      <point x="210" y="620"/>
      <point x="188" y="599"/>
    </contour>
  </outline>
</glyph>
<glyph name="ogonek" format="2">
  <advance width="320"/>
  <unicode hex="02DB"/>
  <anchor x="133" y="0" name="_ogonek"/>
  <outline>
    <contour>
      <point x="172" y="-183" type="curve" smooth="yes"/>
      <point x="205" y="-183"/>
      <point x="231" y="-179"/>
      <point x="244" y="-162" type="curve" smooth="yes"/>
      <point x="250" y="-154"/>
      <point x="254" y="-143"/>
      <point x="254" y="-128" type="curve" smooth="yes"/>
      <point x="254" y="-111"/>
      <point x="247" y="-103"/>
      <point x="235" y="-103" type="curve" smooth="yes"/>
      <point x="219" y="-103"/>
      <point x="198" y="-113"/>
      <point x="183" y="-113" type="curve" smooth="yes"/>
      <point x="160" y="-113"/>
      <point x="121" y="-110"/>
      <point x="121" y="-62" type="curve" smooth="yes"/>
      <point x="121" y="-39"/>
      <point x="126" y="-19"/>
      <point x="133" y="-1" type="curve"/>
      <point x="89" y="16" type="line"/>
      <point x="62" y="-11"/>
      <point x="54" y="-56"/>
      <point x="54" y="-81" type="curve" smooth="yes"/>
      <point x="54" y="-110"/>
      <point x="65" y="-183"/>
    </contour>
  </outline>
</glyph>
<glyph name="hungarumlaut" format="2">
  <advance width="384"/>
  <unicode hex="02DD"/>
  <anchor x="171" y="523" name="_top"/>
  <outline>
    <contour>
      <point x="229" y="585" type="curve" smooth="yes"/>
      <point x="250" y="585"/>
      <point x="269" y="591"/>
      <point x="280" y="603" type="curve" smooth="yes"/>
      <point x="365.5" y="697.5"/>
      <point x="374" y="708"/>
      <point x="374" y="719" type="curve" smooth="yes"/>
      <point x="374" y="729"/>
      <point x="358" y="732"/>
      <point x="326" y="732" type="curve" smooth="yes"/>
      <point x="294" y="732"/>
      <point x="275" y="725"/>
      <point x="264" y="706" type="curve" smooth="yes"/>
      <point x="218" y="626"/>
      <point x="206" y="605"/>
      <point x="206" y="595" type="curve" smooth="yes"/>
      <point x="206" y="588"/>
      <point x="213" y="585"/>
    </contour>
    <contour>
      <point x="82" y="585" type="curve" smooth="yes"/>
      <point x="103" y="585"/>
      <point x="122" y="591"/>
      <point x="133" y="603" type="curve" smooth="yes"/>
      <point x="218.5" y="697.5"/>
      <point x="227" y="708"/>
      <point x="227" y="719" type="curve" smooth="yes"/>
      <point x="227" y="729"/>
      <point x="211" y="732"/>
      <point x="179" y="732" type="curve" smooth="yes"/>
      <point x="147" y="732"/>
      <point x="128" y="725"/>
      <point x="117" y="706" type="curve" smooth="yes"/>
      <point x="71" y="626"/>
      <point x="59" y="605"/>
      <point x="59" y="595" type="curve" smooth="yes"/>
      <point x="59" y="588"/>
      <point x="66" y="585"/>
    </contour>
  </outline>
</glyph>
<glyph name="horncomb" format="2">
  <advance width="600"/>
  <unicode hex="031B"/>
  <anchor x="378" y="510" name="_horn"/>
  <anchor x="316" y="630" name="top"/>
  <outline>
    <contour>
      <point x="416" y="477" type="line"/>
      <point x="494" y="477"/>
      <point x="529" y="514"/>
      <point x="529" y="567" type="curve" smooth="yes"/>
      <point x="529" y="596"/>
      <point x="509" y="641"/>
      <point x="486" y="641" type="curve" smooth="yes"/>
      <point x="482" y="641"/>
      <point x="478" y="640"/>
      <point x="474" y="637" type="curve" smooth="yes"/>
      <point x="450" y="621" type="line" smooth="yes"/>
      <point x="444" y="617"/>
      <point x="441" y="611"/>
      <point x="441" y="605" type="curve" smooth="yes"/>
      <point x="441" y="593"/>
      <point x="468" y="573"/>
      <point x="468" y="543" type="curve" smooth="yes"/>
      <point x="468" y="527"/>
      <point x="456" y="510"/>
      <point x="413" y="510" type="curve"/>
      <point x="378" y="510" type="line"/>
    </contour>
  </outline>
</glyph>
<glyph name="commaaccentcomb" format="2">
  <advance width="353"/>
  <unicode hex="0326"/>
  <anchor x="191" y="0" name="_bottom"/>
  <anchor x="187" y="-203" name="bottom"/>
  <outline>
    <contour>
      <point x="132" y="-235" type="curve" smooth="yes"/>
      <point x="165" y="-235"/>
      <point x="235" y="-175"/>
      <point x="235" y="-79" type="curve" smooth="yes"/>
      <point x="235" y="-62"/>
      <point x="220" y="-51"/>
      <point x="195" y="-51" type="curve" smooth="yes"/>
      <point x="186" y="-51" type="line" smooth="yes"/>
      <point x="159" y="-51"/>
      <point x="146" y="-64"/>
      <point x="146" y="-83" type="curve" smooth="yes"/>
      <point x="146" y="-159"/>
      <point x="103" y="-197"/>
      <point x="103" y="-220" type="curve" smooth="yes"/>
      <point x="103" y="-232"/>
      <point x="121" y="-235"/>
    </contour>
  </outline>
</glyph>
<glyph name="Delta" format="2">
  <advance width="708"/>
  <unicode hex="0394"/>
  <outline>
    <contour>
      <point x="64" y="0" type="curve" smooth="yes"/>
      <point x="643" y="0" type="line" smooth="yes"/>
      <point x="663" y="0"/>
      <point x="673" y="11"/>
      <point x="673" y="30" type="curve"/>
      <point x="673" y="33" type="line"/>
      <point x="673" y="45"/>
      <point x="670" y="55"/>
      <point x="665" y="67" type="curve" smooth="yes"/>
      <point x="402" y="687" type="line" smooth="yes"/>
      <point x="395" y="703"/>
      <point x="384" y="710"/>
      <point x="367" y="710" type="curve" smooth="yes"/>
      <point x="341" y="710" type="line" smooth="yes"/>
      <point x="324" y="710"/>
      <point x="313" y="703"/>
      <point x="306" y="687" type="curve" smooth="yes"/>
      <point x="42" y="67" type="line" smooth="yes"/>
      <point x="36" y="53"/>
      <point x="34" y="44"/>
      <point x="34" y="30" type="curve"/>
      <point x="34" y="28" type="line"/>
      <point x="35" y="10"/>
      <point x="46" y="0"/>
    </contour>
    <contour>
      <point x="116" y="68" type="line"/>
      <point x="350" y="619" type="line"/>
      <point x="355" y="619" type="line"/>
      <point x="587" y="68" type="line"/>
    </contour>
  </outline>
</glyph>
<glyph name="mu" format="2">
  <advance width="566"/>
  <unicode hex="03BC"/>
  <outline>
    <contour>
      <point x="125" y="-208" type="curve" smooth="yes"/>
      <point x="129" y="-208" type="line" smooth="yes"/>
      <point x="157" y="-208"/>
      <point x="169" y="-200"/>
      <point x="169" y="-186" type="curve" smooth="yes"/>
      <point x="169" y="47" type="line"/>
      <point x="150" y="18" type="line"/>
      <point x="174" y="4"/>
      <point x="209" y="-6"/>
      <point x="248" y="-6" type="curve" smooth="yes"/>
      <point x="304" y="-6"/>
      <point x="362" y="22"/>
      <point x="404" y="69" type="curve"/>
      <point x="410" y="41"/>
      <point x="415" y="-1"/>
      <point x="439" y="-1" type="curve" smooth="yes"/>
      <point x="452" y="-1"/>
      <point x="493" y="3"/>
      <point x="493" y="22" type="curve" smooth="yes"/>
      <point x="493" y="27"/>
      <point x="481" y="66"/>
      <point x="481" y="148" type="curve" smooth="yes"/>
      <point x="481" y="503" type="line" smooth="yes"/>
      <point x="481" y="517"/>
      <point x="469" y="525"/>
      <point x="441" y="525" type="curve" smooth="yes"/>
      <point x="437" y="525" type="line" smooth="yes"/>
      <point x="409" y="525"/>
      <point x="397" y="517"/>
      <point x="397" y="503" type="curve" smooth="yes"/>
      <point x="397" y="137" type="line"/>
      <point x="364" y="94"/>
      <point x="316" y="67"/>
      <point x="271" y="67" type="curve" smooth="yes"/>
      <point x="206" y="67"/>
      <point x="169" y="103"/>
      <point x="169" y="164" type="curve" smooth="yes"/>
      <point x="169" y="503" type="line" smooth="yes"/>
      <point x="169" y="517"/>
      <point x="157" y="525"/>
      <point x="129" y="525" type="curve" smooth="yes"/>
      <point x="125" y="525" type="line" smooth="yes"/>
      <point x="97" y="525"/>
      <point x="85" y="517"/>
      <point x="85" y="503" type="curve" smooth="yes"/>
      <point x="85" y="-186" type="line" smooth="yes"/>
      <point x="85" y="-200"/>
      <point x="97" y="-208"/>
    </contour>
  </outline>
</glyph>
<glyph name="pi" format="2">
  <advance width="616"/>
  <unicode hex="03C0"/>
  <outline>
    <contour>
      <point x="94" y="-2" type="curve" smooth="yes"/>
      <point x="117" y="-2" type="line" smooth="yes"/>
      <point x="134" y="-2"/>
      <point x="145" y="7"/>
      <point x="151" y="23" type="curve" smooth="yes"/>
      <point x="189" y="125.5"/>
      <point x="218" y="324"/>
      <point x="224" y="451" type="curve"/>
      <point x="419" y="451" type="line"/>
      <point x="419" y="146" type="line" smooth="yes"/>
      <point x="419" y="40"/>
      <point x="422" y="-2"/>
      <point x="462" y="-2" type="curve" smooth="yes"/>
      <point x="486" y="-2" type="line" smooth="yes"/>
      <point x="504" y="-2"/>
      <point x="512" y="8"/>
      <point x="512" y="23" type="curve" smooth="yes"/>
      <point x="512" y="48"/>
      <point x="503" y="86"/>
      <point x="503" y="154" type="curve" smooth="yes"/>
      <point x="503" y="451" type="line"/>
      <point x="558" y="451" type="line" smooth="yes"/>
      <point x="576" y="451"/>
      <point x="587" y="455"/>
      <point x="589" y="473" type="curve" smooth="yes"/>
      <point x="592" y="499"/>
      <point x="592" y="502"/>
      <point x="592" y="504" type="curve" smooth="yes"/>
      <point x="592" y="519"/>
      <point x="583" y="523"/>
      <point x="568" y="523" type="curve" smooth="yes"/>
      <point x="162" y="523" type="line" smooth="yes"/>
      <point x="75" y="523"/>
      <point x="14" y="513"/>
      <point x="14" y="479" type="curve" smooth="yes"/>
      <point x="14" y="456"/>
      <point x="18" y="442"/>
      <point x="34" y="442" type="curve" smooth="yes"/>
      <point x="52" y="442"/>
      <point x="62" y="451"/>
      <point x="140" y="451" type="curve"/>
      <point x="134" y="320"/>
      <point x="105" y="140"/>
      <point x="68" y="28" type="curve" smooth="yes"/>
      <point x="67" y="25"/>
      <point x="66" y="22"/>
      <point x="66" y="19" type="curve" smooth="yes"/>
      <point x="66" y="7"/>
      <point x="76" y="-2"/>
    </contour>
  </outline>
</glyph>
<glyph name="Germandbls" format="2">
  <advance width="700"/>
  <unicode hex="1E9E"/>
  <outline>
    <contour>
      <point x="427" y="-6" type="curve" smooth="yes"/>
      <point x="530" y="-6"/>
      <point x="660" y="49"/>
      <point x="660" y="203" type="curve" smooth="yes"/>
      <point x="660" y="324"/>
      <point x="579" y="383"/>
      <point x="466" y="401" type="curve"/>
      <point x="616" y="606" type="line"/>
      <point x="618" y="609"/>
      <point x="619" y="613"/>
      <point x="619" y="618" type="curve" smooth="yes"/>
      <point x="619" y="639"/>
      <point x="604" y="669"/>
      <point x="597" y="671" type="curve" smooth="yes"/>
      <point x="546" y="685.5"/>
      <point x="461" y="703"/>
      <point x="366" y="705" type="curve" smooth="yes"/>
      <point x="187" y="708.5"/>
      <point x="92" y="613"/>
      <point x="92" y="430" type="curve" smooth="yes"/>
      <point x="92" y="20" type="line" smooth="yes"/>
      <point x="92" y="6"/>
      <point x="104" y="-2"/>
      <point x="132" y="-2" type="curve" smooth="yes"/>
      <point x="140" y="-2" type="line" smooth="yes"/>
      <point x="168" y="-2"/>
      <point x="180" y="6"/>
      <point x="180" y="20" type="curve" smooth="yes"/>
      <point x="180" y="429" type="line" smooth="yes"/>
      <point x="180" y="570"/>
      <point x="240" y="630"/>
      <point x="368" y="630" type="curve" smooth="yes"/>
      <point x="429" y="630"/>
      <point x="476" y="620"/>
      <point x="509" y="609" type="curve"/>
      <point x="357" y="401" type="line"/>
      <point x="355" y="398"/>
      <point x="354" y="394"/>
      <point x="354" y="389" type="curve" smooth="yes"/>
      <point x="354" y="369"/>
      <point x="368" y="336"/>
      <point x="378" y="336" type="curve" smooth="yes"/>
      <point x="413" y="336" type="line" smooth="yes"/>
      <point x="509" y="336"/>
      <point x="573" y="306"/>
      <point x="573" y="204" type="curve" smooth="yes"/>
      <point x="573" y="95"/>
      <point x="483" y="66"/>
      <point x="419" y="66" type="curve" smooth="yes"/>
      <point x="348" y="66"/>
      <point x="333" y="101"/>
      <point x="291" y="101" type="curve" smooth="yes"/>
      <point x="280" y="101"/>
      <point x="256" y="70"/>
      <point x="256" y="51" type="curve" smooth="yes"/>
      <point x="256" y="26"/>
      <point x="328" y="-6"/>
    </contour>
  </outline>
</glyph>
<glyph name="uhorntilde" format="2">
  <advance width="557"/>
  <unicode hex="1EEF"/>
  <anchor x="279" y="523" name="top"/>
  <anchor x="468" y="10" name="ogonek"/>
  <anchor x="251" y="0" name="bottom"/>
  <outline>
    <contour>
      <point x="129.25" y="592" type="line" smooth="yes"/>
      <point x="133.05" y="591"/>
      <point x="135.9" y="590"/>
      <point x="138.75" y="590" type="curve" smooth="yes"/>
      <point x="144.45" y="590"/>
      <point x="148.25" y="594"/>
      <point x="153.95" y="604" type="curve" smooth="yes"/>
      <point x="166.3" y="626"/>
      <point x="175.8" y="634"/>
      <point x="190.05" y="634" type="curve" smooth="yes"/>
      <point x="230.9" y="634"/>
      <point x="289.8" y="591"/>
      <point x="343" y="591" type="curve" smooth="yes"/>
      <point x="377.2" y="591"/>
      <point x="402.85" y="609"/>
      <point x="421.85" y="659" type="curve" smooth="yes"/>
      <point x="424.7" y="665"/>
      <point x="425.65" y="669"/>
      <point x="425.65" y="673" type="curve" smooth="yes"/>
      <point x="425.65" y="679"/>
      <point x="422.8" y="682"/>
      <point x="415.2" y="685" type="curve" smooth="yes"/>
      <point x="408.55" y="688" type="line" smooth="yes"/>
      <point x="405.7" y="690"/>
      <point x="402.85" y="691"/>
      <point x="400" y="691" type="curve" smooth="yes"/>
      <point x="394.3" y="691"/>
      <point x="388.6" y="687"/>
      <point x="382.9" y="676" type="curve" smooth="yes"/>
      <point x="370.55" y="654"/>
      <point x="360.1" y="647"/>
      <point x="344.9" y="647" type="curve" smooth="yes"/>
      <point x="304.05" y="647"/>
      <point x="245.15" y="690"/>
      <point x="194.8" y="690" type="curve" smooth="yes"/>
      <point x="159.65" y="690"/>
      <point x="134" y="672"/>
      <point x="115" y="621" type="curve" smooth="yes"/>
      <point x="113.1" y="616"/>
      <point x="112.15" y="612"/>
      <point x="112.15" y="608" type="curve" smooth="yes"/>
      <point x="112.15" y="603"/>
      <point x="115" y="599"/>
      <point x="120.7" y="596" type="curve" smooth="yes"/>
    </contour>
    <component base="uhorn"/>
  </outline>
</glyph>
<glyph name="endash" format="2">
  <advance width="500"/>
  <unicode hex="2013"/>
  <outline>
    <contour>
      <point x="20" y="230" type="curve"/>
      <point x="480" y="230" type="line" smooth="yes"/>
      <point x="494" y="230"/>
      <point x="500" y="239"/>
      <point x="500" y="260" type="curve" smooth="yes"/>
      <point x="500" y="270" type="line" smooth="yes"/>
      <point x="500" y="291"/>
      <point x="494" y="300"/>
      <point x="480" y="300" type="curve" smooth="yes"/>
      <point x="20" y="300" type="line" smooth="yes"/>
      <point x="6" y="300"/>
      <point x="0" y="291"/>
      <point x="0" y="270" type="curve" smooth="yes"/>
      <point x="0" y="260" type="line" smooth="yes"/>
      <point x="0" y="239"/>
      <point x="6" y="230"/>
    </contour>
  </outline>
</glyph>
<glyph name="emdash" format="2">
  <advance width="1000"/>
  <unicode hex="2014"/>
  <outline>
    <contour>
      <point x="20" y="230" type="curve"/>
      <point x="980" y="230" type="line" smooth="yes"/>
      <point x="994" y="230"/>
      <point x="1000" y="239"/>
      <point x="1000" y="260" type="curve" smooth="yes"/>
      <point x="1000" y="270" type="line" smooth="yes"/>
      <point x="1000" y="291"/>
      <point x="994" y="300"/>
      <point x="980" y="300" type="curve" smooth="yes"/>
      <point x="20" y="300" type="line" smooth="yes"/>
      <point x="6" y="300"/>
      <point x="0" y="291"/>
      <point x="0" y="270" type="curve" smooth="yes"/>
      <point x="0" y="260" type="line" smooth="yes"/>
      <point x="0" y="239"/>
      <point x="6" y="230"/>
    </contour>
  </outline>
</glyph>
<glyph name="quoteleft" format="2">
  <advance width="212"/>
  <unicode hex="2018"/>
  <outline>
    <contour>
      <point x="98" y="515" type="curve"/>
      <point x="107" y="515" type="line" smooth="yes"/>
      <point x="134" y="515"/>
      <point x="147" y="528"/>
      <point x="147" y="547" type="curve" smooth="yes"/>
      <point x="147" y="609"/>
      <point x="158" y="656"/>
      <point x="181" y="700" type="curve" smooth="yes"/>
      <point x="185" y="708"/>
      <point x="190" y="718"/>
      <point x="190" y="724" type="curve" smooth="yes"/>
      <point x="190" y="736"/>
      <point x="172" y="739"/>
      <point x="161" y="739" type="curve" smooth="yes"/>
      <point x="128" y="739"/>
      <point x="58" y="663"/>
      <point x="58" y="543" type="curve" smooth="yes"/>
      <point x="58" y="526"/>
      <point x="73" y="515"/>
    </contour>
  </outline>
</glyph>
<glyph name="dagger" format="2">
  <advance width="535"/>
  <unicode hex="2020"/>
  <outline>
    <contour>
      <point x="269" y="-140" type="curve"/>
      <point x="271" y="-140" type="line"/>
      <point x="299" y="-140"/>
      <point x="309" y="-132"/>
      <point x="309" y="-118" type="curve" smooth="yes"/>
      <point x="309" y="422" type="line"/>
      <point x="466" y="422" type="line" smooth="yes"/>
      <point x="480" y="422"/>
      <point x="486" y="431"/>
      <point x="486" y="452" type="curve" smooth="yes"/>
      <point x="486" y="472" type="line" smooth="yes"/>
      <point x="486" y="493"/>
      <point x="480" y="502"/>
      <point x="466" y="502" type="curve" smooth="yes"/>
      <point x="309" y="502" type="line"/>
      <point x="309" y="680" type="line" smooth="yes"/>
      <point x="309" y="694"/>
      <point x="297" y="702"/>
      <point x="269" y="702" type="curve"/>
      <point x="267" y="702" type="line"/>
      <point x="238" y="702"/>
      <point x="227" y="694"/>
      <point x="227" y="680" type="curve" smooth="yes"/>
      <point x="227" y="502" type="line"/>
      <point x="69" y="502" type="line" smooth="yes"/>
      <point x="55" y="502"/>
      <point x="49" y="493"/>
      <point x="49" y="472" type="curve" smooth="yes"/>
      <point x="49" y="452" type="line" smooth="yes"/>
      <point x="49" y="431"/>
      <point x="55" y="422"/>
      <point x="69" y="422" type="curve" smooth="yes"/>
      <point x="227" y="422" type="line"/>
      <point x="227" y="-118" type="line" smooth="yes"/>
      <point x="227" y="-132"/>
      <point x="241" y="-140"/>
    </contour>
  </outline>
</glyph>
<glyph name="bullet" format="2">
  <advance width="336"/>
  <unicode hex="2022"/>
  <outline>
    <contour>
      <point x="167" y="201" type="curve" smooth="yes"/>
      <point x="237" y="201"/>
      <point x="293" y="256"/>
      <point x="293" y="326" type="curve" smooth="yes"/>
      <point x="293" y="396"/>
      <point x="237" y="452"/>
      <point x="167" y="452" type="curve" smooth="yes"/>
      <point x="97" y="452"/>
      <point x="42" y="396"/>
      <point x="42" y="326" type="curve" smooth="yes"/>
      <point x="42" y="256"/>
      <point x="97" y="201"/>
    </contour>
  </outline>
</glyph>
<glyph name="ellipsis" format="2">
  <advance width="616"/>
  <unicode hex="2026"/>
  <outline>
    <contour>
      <point x="509" y="-2" type="curve" smooth="yes"/>
      <point x="526" y="-2" type="line" smooth="yes"/>
      <point x="554" y="-2"/>
      <point x="566" y="6"/>
      <point x="566" y="20" type="curve" smooth="yes"/>
      <point x="566" y="86" type="line" smooth="yes"/>
      <point x="566" y="100"/>
      <point x="554" y="108"/>
      <point x="526" y="108" type="curve" smooth="yes"/>
      <point x="509" y="108" type="line" smooth="yes"/>
      <point x="481" y="108"/>
      <point x="469" y="100"/>
      <point x="469" y="86" type="curve" smooth="yes"/>
      <point x="469" y="20" type="line" smooth="yes"/>
      <point x="469" y="6"/>
      <point x="481" y="-2"/>
    </contour>
    <contour>
      <point x="91" y="-2" type="curve" smooth="yes"/>
      <point x="108" y="-2" type="line" smooth="yes"/>
      <point x="136" y="-2"/>
      <point x="148" y="6"/>
      <point x="148" y="20" type="curve" smooth="yes"/>
      <point x="148" y="86" type="line" smooth="yes"/>
      <point x="148" y="100"/>
      <point x="136" y="108"/>
      <point x="108" y="108" type="curve" smooth="yes"/>
      <point x="91" y="108" type="line" smooth="yes"/>
      <point x="63" y="108"/>
      <point x="51" y="100"/>
      <point x="51" y="86" type="curve" smooth="yes"/>
      <point x="51" y="20" type="line" smooth="yes"/>
      <point x="51" y="6"/>
      <point x="63" y="-2"/>
    </contour>
    <contour>
      <point x="301" y="-2" type="curve" smooth="yes"/>
      <point x="318" y="-2" type="line" smooth="yes"/>
      <point x="346" y="-2"/>
      <point x="358" y="6"/>
      <point x="358" y="20" type="curve" smooth="yes"/>
      <point x="358" y="86" type="line" smooth="yes"/>
      <point x="358" y="100"/>
      <point x="346" y="108"/>
      <point x="318" y="108" type="curve" smooth="yes"/>
      <point x="301" y="108" type="line" smooth="yes"/>
      <point x="273" y="108"/>
      <point x="261" y="100"/>
      <point x="261" y="86" type="curve" smooth="yes"/>
      <point x="261" y="20" type="line" smooth="yes"/>
      <point x="261" y="6"/>
      <point x="273" y="-2"/>
    </contour>
  </outline>
</glyph>
<glyph name="guilsinglleft" format="2">
  <advance width="300"/>
  <unicode hex="2039"/>
  <outline>
    <contour>
      <point x="211" y="61" type="curve" smooth="yes"/>
      <point x="227" y="61"/>
      <point x="246" y="82"/>
      <point x="246" y="94" type="curve" smooth="yes"/>
      <point x="246" y="100"/>
      <point x="243" y="106"/>
      <point x="238" y="113" type="curve" smooth="yes"/>
      <point x="127" y="258" type="line"/>
      <point x="238" y="402" type="line" smooth="yes"/>
      <point x="243" y="409"/>
      <point x="246" y="416"/>
      <point x="246" y="422" type="curve" smooth="yes"/>
      <point x="246" y="439"/>
      <point x="223" y="454"/>
      <point x="211" y="454" type="curve" smooth="yes"/>
      <point x="203" y="454"/>
      <point x="196" y="450"/>
      <point x="189" y="442" type="curve" smooth="yes"/>
      <point x="59" y="286" type="line" smooth="yes"/>
      <point x="50" y="275"/>
      <point x="46" y="267"/>
      <point x="46" y="258" type="curve" smooth="yes"/>
      <point x="46" y="249"/>
      <point x="50" y="241"/>
      <point x="59" y="230" type="curve" smooth="yes"/>
      <point x="189" y="74" type="line" smooth="yes"/>
      <point x="196" y="66"/>
      <point x="203" y="61"/>
    </contour>
  </outline>
</glyph>
<glyph name="guilsinglright" format="2">
  <advance width="300"/>
  <unicode hex="203A"/>
  <outline>
    <contour>
      <point x="89" y="61" type="curve" smooth="yes"/>
      <point x="97" y="61"/>
      <point x="104" y="66"/>
      <point x="111" y="74" type="curve" smooth="yes"/>
      <point x="241" y="230" type="line" smooth="yes"/>
      <point x="250" y="241"/>
      <point x="254" y="249"/>
      <point x="254" y="258" type="curve" smooth="yes"/>
      <point x="254" y="267"/>
      <point x="250" y="275"/>
      <point x="241" y="286" type="curve" smooth="yes"/>
      <point x="111" y="442" type="line" smooth="yes"/>
      <point x="104" y="450"/>
      <point x="97" y="454"/>
      <point x="89" y="454" type="curve" smooth="yes"/>
      <point x="77" y="454"/>
      <point x="54" y="439"/>
      <point x="54" y="422" type="curve" smooth="yes"/>
      <point x="54" y="416"/>
      <point x="57" y="409"/>
      <point x="62" y="402" type="curve" smooth="yes"/>
      <point x="173" y="258" type="line"/>
      <point x="62" y="113" type="line" smooth="yes"/>
      <point x="57" y="106"/>
      <point x="54" y="100"/>
      <point x="54" y="94" type="curve" smooth="yes"/>
      <point x="54" y="82"/>
      <point x="73" y="61"/>
    </contour>
  </outline>
</glyph>
<glyph name="fraction" format="2">
  <advance width="264"/>
  <unicode hex="2044"/>
  <outline>
    <contour>
      <point x="-50" y="-3" type="curve" smooth="yes"/>
      <point x="-46" y="-3" type="line" smooth="yes"/>
      <point x="-29" y="-3"/>
      <point x="-21" y="5"/>
      <point x="-13" y="20" type="curve"/>
      <point x="348" y="668" type="line"/>
      <point x="350" y="673"/>
      <point x="351" y="678"/>
      <point x="351" y="683" type="curve" smooth="yes"/>
      <point x="351" y="695"/>
      <point x="344" y="703"/>
      <point x="327" y="703" type="curve" smooth="yes"/>
      <point x="323" y="703" type="line" smooth="yes"/>
      <point x="306" y="703"/>
      <point x="296" y="695"/>
      <point x="288" y="680" type="curve" smooth="yes"/>
      <point x="-73" y="32" type="line"/>
      <point x="-75" y="27"/>
      <point x="-76" y="22"/>
      <point x="-76" y="17" type="curve" smooth="yes"/>
      <point x="-76" y="5"/>
      <point x="-67" y="-3"/>
    </contour>
  </outline>
</glyph>
<glyph name="literSign" format="2">
  <advance width="400"/>
  <unicode hex="2113"/>
  <outline>
    <contour>
      <point x="211" y="-6" type="curve" smooth="yes"/>
      <point x="250" y="-6"/>
      <point x="314" y="-2"/>
      <point x="314" y="34" type="curve" smooth="yes"/>
      <point x="314" y="42"/>
      <point x="307" y="81"/>
      <point x="293" y="81" type="curve" smooth="yes"/>
      <point x="278" y="81"/>
      <point x="270" y="66"/>
      <point x="220" y="66" type="curve" smooth="yes"/>
      <point x="191" y="66"/>
      <point x="166" y="80"/>
      <point x="166" y="140" type="curve" smooth="yes"/>
      <point x="166" y="290" type="line"/>
      <point x="277" y="372"/>
      <point x="352" y="506"/>
      <point x="352" y="620" type="curve" smooth="yes"/>
      <point x="352" y="697"/>
      <point x="318" y="755"/>
      <point x="239" y="755" type="curve" smooth="yes"/>
      <point x="165" y="755"/>
      <point x="82" y="725"/>
      <point x="82" y="427" type="curve" smooth="yes"/>
      <point x="82" y="309" type="line"/>
      <point x="61" y="293"/>
      <point x="40" y="278"/>
      <point x="19" y="264" type="curve" smooth="yes"/>
      <point x="7" y="255.5"/>
      <point x="2" y="244"/>
      <point x="2" y="233.5" type="curve" smooth="yes"/>
      <point x="2" y="227"/>
      <point x="4" y="221"/>
      <point x="8" y="215" type="curve" smooth="yes"/>
      <point x="18" y="200.5"/>
      <point x="25" y="194.5"/>
      <point x="32" y="194.5" type="curve" smooth="yes"/>
      <point x="37" y="194.5"/>
      <point x="42.5" y="197.5"/>
      <point x="49" y="202" type="curve" smooth="yes"/>
      <point x="82" y="225" type="line"/>
      <point x="82" y="132" type="line" smooth="yes"/>
      <point x="82" y="16"/>
      <point x="161" y="-6"/>
    </contour>
    <contour>
      <point x="167" y="371" type="curve"/>
      <point x="167" y="671"/>
      <point x="226" y="683"/>
      <point x="242" y="683" type="curve" smooth="yes"/>
      <point x="272" y="683"/>
      <point x="284" y="652"/>
      <point x="284" y="608" type="curve" smooth="yes"/>
      <point x="284" y="533"/>
      <point x="235" y="436"/>
    </contour>
  </outline>
</glyph>
<glyph name="onethird" format="2">
  <advance width="746"/>
  <unicode hex="2153"/>
  <outline>
    <contour>
      <point x="104" y="-2" type="curve" smooth="yes"/>
      <point x="117" y="-2" type="line" smooth="yes"/>
      <point x="131" y="-2"/>
      <point x="140" y="3"/>
      <point x="147" y="15" type="curve" smooth="yes"/>
      <point x="553" y="686" type="line" smooth="yes"/>
      <point x="555" y="690"/>
      <point x="557" y="693"/>
      <point x="557" y="696" type="curve" smooth="yes"/>
      <point x="557" y="701"/>
      <point x="552" y="703"/>
      <point x="543" y="703" type="curve" smooth="yes"/>
      <point x="530" y="703" type="line" smooth="yes"/>
      <point x="516" y="703"/>
      <point x="507" y="698"/>
      <point x="500" y="686" type="curve" smooth="yes"/>
      <point x="94" y="15" type="line" smooth="yes"/>
      <point x="91.5" y="11"/>
      <point x="90" y="7"/>
      <point x="90" y="5" type="curve" smooth="yes"/>
      <point x="90" y="0"/>
      <point x="95" y="-2"/>
    </contour>
    <component base="onesuperior"/>
    <component base="three" xScale="0.587" yScale="0.587" xOffset="419" yOffset="-3"/>
  </outline>
</glyph>
<glyph name="twothirds" format="2">
  <advance width="819"/>
  <unicode hex="2154"/>
  <outline>
    <contour>
      <point x="166" y="-2" type="curve" smooth="yes"/>
      <point x="179" y="-2" type="line" smooth="yes"/>
      <point x="193" y="-2"/>
      <point x="202" y="3"/>
      <point x="209" y="15" type="curve" smooth="yes"/>
      <point x="615" y="686" type="line" smooth="yes"/>
      <point x="617" y="690"/>
      <point x="619" y="693"/>
      <point x="619" y="696" type="curve" smooth="yes"/>
      <point x="619" y="701"/>
      <point x="614" y="703"/>
      <point x="605" y="703" type="curve" smooth="yes"/>
      <point x="592" y="703" type="line" smooth="yes"/>
      <point x="578" y="703"/>
      <point x="569" y="698"/>
      <point x="562" y="686" type="curve" smooth="yes"/>
      <point x="156" y="15" type="line" smooth="yes"/>
      <point x="154" y="11"/>
      <point x="152" y="7"/>
      <point x="152" y="5" type="curve" smooth="yes"/>
      <point x="152" y="0"/>
      <point x="157" y="-2"/>
    </contour>
    <component base="three" xScale="0.587" yScale="0.587" xOffset="486" yOffset="-2"/>
    <component base="two" xScale="0.584" yScale="0.584" xOffset="4" yOffset="293"/>
  </outline>
</glyph>
<glyph name="leftArrow" format="2">
  <advance width="750"/>
  <unicode hex="2190"/>
  <outline>
    <contour>
      <point x="275" y="1" type="curve" smooth="yes"/>
      <point x="330" y="1" type="line" smooth="yes"/>
      <point x="342" y="1"/>
      <point x="349" y="3"/>
      <point x="349" y="8" type="curve" smooth="yes"/>
      <point x="349" y="11"/>
      <point x="345" y="16"/>
      <point x="339" y="22" type="curve" smooth="yes"/>
      <point x="126" y="231" type="line"/>
      <point x="729" y="231" type="line" smooth="yes"/>
      <point x="743" y="231"/>
      <point x="751" y="240"/>
      <point x="751" y="261" type="curve" smooth="yes"/>
      <point x="751" y="271" type="line" smooth="yes"/>
      <point x="751" y="292"/>
      <point x="743" y="301"/>
      <point x="729" y="301" type="curve" smooth="yes"/>
      <point x="126" y="301" type="line"/>
      <point x="338" y="509" type="line" smooth="yes"/>
      <point x="344" y="515"/>
      <point x="348" y="520"/>
      <point x="348" y="523" type="curve" smooth="yes"/>
      <point x="348" y="528"/>
      <point x="341" y="530"/>
      <point x="329" y="530" type="curve" smooth="yes"/>
      <point x="274" y="530" type="line" smooth="yes"/>
      <point x="260" y="530"/>
      <point x="250" y="526"/>
      <point x="240" y="516" type="curve" smooth="yes"/>
      <point x="7" y="284" type="line" smooth="yes"/>
      <point x="1" y="278"/>
      <point x="0" y="274"/>
      <point x="0" y="267" type="curve" smooth="yes"/>
      <point x="0" y="257"/>
      <point x="2" y="253"/>
      <point x="7" y="248" type="curve" smooth="yes"/>
      <point x="241" y="15" type="line" smooth="yes"/>
      <point x="251" y="5"/>
      <point x="261" y="1"/>
    </contour>
  </outline>
</glyph>
<glyph name="upArrow" format="2">
  <advance width="529"/>
  <unicode hex="2191"/>
  <outline>
    <contour>
      <point x="259" y="-2" type="curve" smooth="yes"/>
      <point x="269" y="-2" type="line" smooth="yes"/>
      <point x="290" y="-2"/>
      <point x="299" y="6"/>
      <point x="299" y="20" type="curve" smooth="yes"/>
      <point x="299" y="584" type="line"/>
      <point x="508" y="371" type="line" smooth="yes"/>
      <point x="514" y="365"/>
      <point x="519" y="361"/>
      <point x="522" y="361" type="curve" smooth="yes"/>
      <point x="527" y="361"/>
      <point x="529" y="368"/>
      <point x="529" y="380" type="curve" smooth="yes"/>
      <point x="529" y="435" type="line" smooth="yes"/>
      <point x="529" y="449"/>
      <point x="525" y="459"/>
      <point x="515" y="469" type="curve" smooth="yes"/>
      <point x="282" y="703" type="line" smooth="yes"/>
      <point x="276" y="709"/>
      <point x="272" y="710"/>
      <point x="264" y="710" type="curve" smooth="yes"/>
      <point x="255" y="710"/>
      <point x="251" y="708"/>
      <point x="246" y="703" type="curve" smooth="yes"/>
      <point x="14" y="470" type="line" smooth="yes"/>
      <point x="4" y="460"/>
      <point x="0" y="450"/>
      <point x="0" y="436" type="curve" smooth="yes"/>
      <point x="0" y="381" type="line" smooth="yes"/>
      <point x="0" y="369"/>
      <point x="2" y="362"/>
      <point x="7" y="362" type="curve" smooth="yes"/>
      <point x="10" y="362"/>
      <point x="15" y="366"/>
      <point x="21" y="372" type="curve" smooth="yes"/>
      <point x="229" y="584" type="line"/>
      <point x="229" y="20" type="line" smooth="yes"/>
      <point x="229" y="6"/>
      <point x="238" y="-2"/>
    </contour>
  </outline>
</glyph>
<glyph name="rightArrow" format="2">
  <advance width="750"/>
  <unicode hex="2192"/>
  <outline>
    <contour>
      <point x="421" y="1" type="curve" smooth="yes"/>
      <point x="476" y="1" type="line" smooth="yes"/>
      <point x="490" y="1"/>
      <point x="500" y="5"/>
      <point x="510" y="15" type="curve" smooth="yes"/>
      <point x="743" y="247" type="line" smooth="yes"/>
      <point x="749" y="253"/>
      <point x="750" y="258"/>
      <point x="750" y="263" type="curve" smooth="yes"/>
      <point x="750" y="274"/>
      <point x="748" y="278"/>
      <point x="743" y="283" type="curve" smooth="yes"/>
      <point x="509" y="516" type="line" smooth="yes"/>
      <point x="499" y="526"/>
      <point x="489" y="530"/>
      <point x="475" y="530" type="curve" smooth="yes"/>
      <point x="420" y="530" type="line" smooth="yes"/>
      <point x="408" y="530"/>
      <point x="401" y="528"/>
      <point x="401" y="523" type="curve" smooth="yes"/>
      <point x="401" y="520"/>
      <point x="405" y="515"/>
      <point x="411" y="509" type="curve" smooth="yes"/>
      <point x="624" y="300" type="line"/>
      <point x="22" y="300" type="line" smooth="yes"/>
      <point x="8" y="300"/>
      <point x="0" y="291"/>
      <point x="0" y="270" type="curve" smooth="yes"/>
      <point x="0" y="260" type="line" smooth="yes"/>
      <point x="0" y="239"/>
      <point x="8" y="230"/>
      <point x="22" y="230" type="curve"/>
      <point x="624" y="230" type="line"/>
      <point x="412" y="22" type="line" smooth="yes"/>
      <point x="406" y="16"/>
      <point x="402" y="11"/>
      <point x="402" y="8" type="curve" smooth="yes"/>
      <point x="402" y="3"/>
      <point x="409" y="1"/>
    </contour>
  </outline>
</glyph>
<glyph name="minus" format="2">
  <advance width="560"/>
  <unicode hex="2212"/>
  <outline>
    <contour>
      <point x="58" y="186" type="curve"/>
      <point x="502" y="186" type="line" smooth="yes"/>
      <point x="516" y="186"/>
      <point x="522" y="195"/>
      <point x="522" y="216" type="curve" smooth="yes"/>
      <point x="522" y="229" type="line" smooth="yes"/>
      <point x="522" y="250"/>
      <point x="516" y="259"/>
      <point x="502" y="259" type="curve" smooth="yes"/>
      <point x="58" y="259" type="line" smooth="yes"/>
      <point x="44" y="259"/>
      <point x="38" y="250"/>
      <point x="38" y="229" type="curve" smooth="yes"/>
      <point x="38" y="216" type="line" smooth="yes"/>
      <point x="38" y="195"/>
      <point x="44" y="186"/>
    </contour>
  </outline>
</glyph>
<glyph name="integral" format="2">
  <advance width="372"/>
  <unicode hex="222B"/>
  <outline>
    <contour>
      <point x="83" y="-159" type="curve" smooth="yes"/>
      <point x="180" y="-159"/>
      <point x="233" y="-85"/>
      <point x="233" y="93" type="curve" smooth="yes"/>
      <point x="233" y="256"/>
      <point x="219" y="454"/>
      <point x="219" y="612" type="curve" smooth="yes"/>
      <point x="219" y="753"/>
      <point x="247" y="813"/>
      <point x="312" y="813" type="curve" smooth="yes"/>
      <point x="329" y="813"/>
      <point x="343" y="807"/>
      <point x="345" y="807" type="curve" smooth="yes"/>
      <point x="354" y="807"/>
      <point x="361" y="818"/>
      <point x="361" y="838" type="curve" smooth="yes"/>
      <point x="361" y="865"/>
      <point x="322" y="871"/>
      <point x="292" y="871" type="curve" smooth="yes"/>
      <point x="195" y="871"/>
      <point x="142" y="797"/>
      <point x="142" y="619" type="curve" smooth="yes"/>
      <point x="142" y="460"/>
      <point x="156" y="264"/>
      <point x="156" y="100" type="curve" smooth="yes"/>
      <point x="156" y="-41"/>
      <point x="128" y="-101"/>
      <point x="63" y="-101" type="curve" smooth="yes"/>
      <point x="46" y="-101"/>
      <point x="32" y="-95"/>
      <point x="30" y="-95" type="curve" smooth="yes"/>
      <point x="21" y="-95"/>
      <point x="14" y="-106"/>
      <point x="14" y="-126" type="curve" smooth="yes"/>
      <point x="14" y="-153"/>
      <point x="53" y="-159"/>
    </contour>
  </outline>
</glyph>
<glyph name="approxequal" format="2">
  <advance width="547"/>
  <unicode hex="2248"/>
  <outline>
    <contour>
      <point x="104.5" y="257.5" type="curve" smooth="yes"/>
      <point x="110.5" y="257.5"/>
      <point x="115" y="261"/>
      <point x="121" y="272" type="curve" smooth="yes"/>
      <point x="133.5" y="294.5"/>
      <point x="144" y="302"/>
      <point x="159" y="302" type="curve" smooth="yes"/>
      <point x="223" y="302"/>
      <point x="313" y="259"/>
      <point x="390" y="259" type="curve" smooth="yes"/>
      <point x="426" y="259"/>
      <point x="453" y="277"/>
      <point x="473" y="327" type="curve" smooth="yes"/>
      <point x="475.5" y="333"/>
      <point x="476.5" y="337"/>
      <point x="476.5" y="341" type="curve" smooth="yes"/>
      <point x="476.5" y="346.5"/>
      <point x="473.5" y="350"/>
      <point x="466" y="353" type="curve" smooth="yes"/>
      <point x="459" y="356" type="line" smooth="yes"/>
      <point x="455.5" y="357.5"/>
      <point x="452.5" y="358.5"/>
      <point x="449.5" y="358.5" type="curve" smooth="yes"/>
      <point x="443.5" y="358.5"/>
      <point x="438" y="355"/>
      <point x="432" y="344" type="curve" smooth="yes"/>
      <point x="419.5" y="321.5"/>
      <point x="408" y="315"/>
      <point x="392" y="315" type="curve" smooth="yes"/>
      <point x="328" y="315"/>
      <point x="238" y="358"/>
      <point x="164" y="358" type="curve" smooth="yes"/>
      <point x="127" y="358"/>
      <point x="100" y="340"/>
      <point x="80" y="289" type="curve" smooth="yes"/>
      <point x="78" y="284"/>
      <point x="77" y="279.5"/>
      <point x="77" y="276" type="curve" smooth="yes"/>
      <point x="77" y="270.5"/>
      <point x="79.5" y="267"/>
      <point x="86" y="264" type="curve" smooth="yes"/>
      <point x="95" y="260" type="line" smooth="yes"/>
      <point x="99" y="258.5"/>
      <point x="102" y="257.5"/>
    </contour>
    <contour>
      <point x="104.5" y="97.5" type="curve" smooth="yes"/>
      <point x="110.5" y="97.5"/>
      <point x="115" y="101"/>
      <point x="121" y="112" type="curve" smooth="yes"/>
      <point x="133.5" y="134.5"/>
      <point x="144" y="142"/>
      <point x="159" y="142" type="curve" smooth="yes"/>
      <point x="223" y="142"/>
      <point x="313" y="99"/>
      <point x="390" y="99" type="curve" smooth="yes"/>
      <point x="426" y="99"/>
      <point x="453" y="117"/>
      <point x="473" y="167" type="curve" smooth="yes"/>
      <point x="475.5" y="173"/>
      <point x="476.5" y="177"/>
      <point x="476.5" y="181" type="curve" smooth="yes"/>
      <point x="476.5" y="186.5"/>
      <point x="473.5" y="190"/>
      <point x="466" y="193" type="curve" smooth="yes"/>
      <point x="459" y="196" type="line" smooth="yes"/>
      <point x="455.5" y="197.5"/>
      <point x="452.5" y="198.5"/>
      <point x="449.5" y="198.5" type="curve" smooth="yes"/>
      <point x="443.5" y="198.5"/>
      <point x="438" y="195"/>
      <point x="432" y="184" type="curve" smooth="yes"/>
      <point x="419.5" y="161.5"/>
      <point x="408" y="155"/>
      <point x="392" y="155" type="curve" smooth="yes"/>
      <point x="328" y="155"/>
      <point x="238" y="198"/>
      <point x="164" y="198" type="curve" smooth="yes"/>
      <point x="127" y="198"/>
      <point x="100" y="180"/>
      <point x="80" y="129" type="curve" smooth="yes"/>
      <point x="78" y="124"/>
      <point x="77" y="119.5"/>
      <point x="77" y="116" type="curve" smooth="yes"/>
      <point x="77" y="110.5"/>
      <point x="79.5" y="107"/>
      <point x="86" y="104" type="curve" smooth="yes"/>
      <point x="95" y="100" type="line" smooth="yes"/>
      <point x="99" y="98.5"/>
      <point x="102" y="97.5"/>
    </contour>
  </outline>
</glyph>
<glyph name="notequal" format="2">
  <advance width="560"/>
  <unicode hex="2260"/>
  <outline>
    <contour>
      <point x="120" y="10" type="curve" smooth="yes"/>
      <point x="131" y="10" type="line" smooth="yes"/>
      <point x="147" y="10"/>
      <point x="158" y="15"/>
      <point x="168" y="28" type="curve" smooth="yes"/>
      <point x="462" y="394" type="line" smooth="yes"/>
      <point x="468" y="401"/>
      <point x="470" y="408"/>
      <point x="470" y="413" type="curve" smooth="yes"/>
      <point x="470" y="424"/>
      <point x="461" y="431"/>
      <point x="445" y="431" type="curve" smooth="yes"/>
      <point x="434" y="431" type="line" smooth="yes"/>
      <point x="418" y="431"/>
      <point x="407" y="426"/>
      <point x="397" y="413" type="curve" smooth="yes"/>
      <point x="103" y="47" type="line" smooth="yes"/>
      <point x="97" y="40"/>
      <point x="94" y="33"/>
      <point x="94" y="27" type="curve" smooth="yes"/>
      <point x="94" y="17"/>
      <point x="103" y="10"/>
    </contour>
    <component base="equal"/>
  </outline>
</glyph>
<glyph name="greaterequal" format="2">
  <advance width="566"/>
  <unicode hex="2265"/>
  <outline>
    <contour>
      <point x="68" y="111" type="curve" smooth="yes"/>
      <point x="73" y="111"/>
      <point x="78" y="112"/>
      <point x="83" y="114" type="curve" smooth="yes"/>
      <point x="494" y="288" type="line" smooth="yes"/>
      <point x="510" y="295"/>
      <point x="517" y="306"/>
      <point x="517" y="323" type="curve" smooth="yes"/>
      <point x="517" y="340" type="line" smooth="yes"/>
      <point x="517" y="357"/>
      <point x="510" y="368"/>
      <point x="494" y="375" type="curve" smooth="yes"/>
      <point x="83" y="549" type="line" smooth="yes"/>
      <point x="78" y="551"/>
      <point x="73" y="552"/>
      <point x="68" y="552" type="curve" smooth="yes"/>
      <point x="56" y="552"/>
      <point x="48" y="543"/>
      <point x="48" y="526" type="curve" smooth="yes"/>
      <point x="48" y="512" type="line" smooth="yes"/>
      <point x="48" y="495"/>
      <point x="55" y="483.5"/>
      <point x="71" y="477" type="curve" smooth="yes"/>
      <point x="427" y="332" type="line"/>
      <point x="71" y="186" type="line" smooth="yes"/>
      <point x="55" y="179"/>
      <point x="48" y="168"/>
      <point x="48" y="151" type="curve" smooth="yes"/>
      <point x="48" y="137" type="line" smooth="yes"/>
      <point x="48" y="120"/>
      <point x="56" y="111"/>
    </contour>
    <contour>
      <point x="78" y="0" type="curve" smooth="yes"/>
      <point x="488" y="0" type="line" smooth="yes"/>
      <point x="508" y="0"/>
      <point x="518" y="10"/>
      <point x="518" y="30" type="curve" smooth="yes"/>
      <point x="518" y="43" type="line" smooth="yes"/>
      <point x="518" y="63"/>
      <point x="508" y="73"/>
      <point x="488" y="73" type="curve" smooth="yes"/>
      <point x="78" y="73" type="line" smooth="yes"/>
      <point x="59" y="73"/>
      <point x="48" y="63"/>
      <point x="48" y="43" type="curve" smooth="yes"/>
      <point x="48" y="30" type="line" smooth="yes"/>
      <point x="48" y="10"/>
      <point x="59" y="0"/>
    </contour>
  </outline>
</glyph>
<glyph name="lozenge" format="2">
  <advance width="558"/>
  <unicode hex="25CA"/>
  <outline>
    <contour>
      <point x="272" y="-25" type="curve" smooth="yes"/>
      <point x="291" y="-25" type="line" smooth="yes"/>
      <point x="308" y="-25"/>
      <point x="318.5" y="-18"/>
      <point x="326" y="-4" type="curve" smooth="yes"/>
      <point x="502" y="326" type="line" smooth="yes"/>
      <point x="506" y="334"/>
      <point x="508" y="340"/>
      <point x="508" y="347" type="curve" smooth="yes"/>
      <point x="508" y="354"/>
      <point x="506" y="360"/>
      <point x="502" y="367" type="curve" smooth="yes"/>
      <point x="326" y="698" type="line" smooth="yes"/>
      <point x="318.5" y="712"/>
      <point x="308" y="719"/>
      <point x="291" y="719" type="curve" smooth="yes"/>
      <point x="272" y="719" type="line" smooth="yes"/>
      <point x="255" y="719"/>
      <point x="244" y="712"/>
      <point x="237" y="698" type="curve" smooth="yes"/>
      <point x="61" y="367" type="line" smooth="yes"/>
      <point x="57" y="360"/>
      <point x="55" y="354"/>
      <point x="55" y="347" type="curve" smooth="yes"/>
      <point x="55" y="341"/>
      <point x="57" y="334"/>
      <point x="61" y="327" type="curve" smooth="yes"/>
      <point x="237" y="-4" type="line" smooth="yes"/>
      <point x="244" y="-18"/>
      <point x="255" y="-25"/>
    </contour>
    <contour>
      <point x="281" y="49" type="line"/>
      <point x="127" y="347" type="line"/>
      <point x="281" y="644" type="line"/>
      <point x="436" y="347" type="line"/>
    </contour>
  </outline>
</glyph>
<glyph name="fi" format="2">
  <advance width="563"/>
  <unicode hex="FB01"/>
  <anchor x="431" y="0" name="bottom"/>
  <anchor x="300" y="0" name="caret_1"/>
  <anchor x="430" y="6" name="ogonek"/>
  <anchor x="433.2" y="718.0000000000001" name="top"/>
  <outline>
    <contour>
      <point x="248" y="451" type="line"/>
      <point x="424" y="451" type="line"/>
      <point x="431" y="523" type="line"/>
      <point x="248" y="523" type="line"/>
    </contour>
    <contour>
      <point x="429" y="-2" type="curve" smooth="yes"/>
      <point x="433" y="-2" type="line" smooth="yes"/>
      <point x="461" y="-2"/>
      <point x="473" y="6"/>
      <point x="473" y="20" type="curve" smooth="yes"/>
      <point x="473" y="501" type="line" smooth="yes"/>
      <point x="473" y="515"/>
      <point x="461" y="523"/>
      <point x="433" y="523" type="curve" smooth="yes"/>
      <point x="429" y="523" type="line" smooth="yes"/>
      <point x="401" y="523"/>
      <point x="389" y="515"/>
      <point x="389" y="501" type="curve" smooth="yes"/>
      <point x="389" y="20" type="line" smooth="yes"/>
      <point x="389" y="6"/>
      <point x="401" y="-2"/>
    </contour>
    <component base="f"/>
    <component base="dotaccentcomb" xScale="1.1" yScale="1.1" xOffset="431" yOffset="-52"/>
  </outline>
</glyph>
<glyph name="Y.loclGUA" format="2">
  <advance width="559"/>
  <anchor x="279" y="0" name="bottom"/>
  <anchor x="280" y="700" name="top"/>
  <outline>
    <contour>
      <point x="265" y="-8" type="curve" smooth="yes"/>
      <point x="401" y="-8"/>
      <point x="485" y="57"/>
      <point x="485" y="274" type="curve" smooth="yes"/>
      <point x="485" y="680" type="line" smooth="yes"/>
      <point x="485" y="694"/>
      <point x="473" y="702"/>
      <point x="445" y="702" type="curve" smooth="yes"/>
      <point x="441" y="702" type="line" smooth="yes"/>
      <point x="413" y="702"/>
      <point x="401" y="694"/>
      <point x="401" y="680" type="curve" smooth="yes"/>
      <point x="401" y="354" type="line"/>
      <point x="362" y="312"/>
      <point x="308" y="284"/>
      <point x="252" y="284" type="curve" smooth="yes"/>
      <point x="193" y="284"/>
      <point x="158" y="323"/>
      <point x="158" y="390" type="curve" smooth="yes"/>
      <point x="158" y="680" type="line" smooth="yes"/>
      <point x="158" y="694"/>
      <point x="146" y="702"/>
      <point x="118" y="702" type="curve" smooth="yes"/>
      <point x="114" y="702" type="line" smooth="yes"/>
      <point x="86" y="702"/>
      <point x="74" y="694"/>
      <point x="74" y="680" type="curve" smooth="yes"/>
      <point x="74" y="382" type="line" smooth="yes"/>
      <point x="74" y="268"/>
      <point x="132" y="211"/>
      <point x="229" y="211" type="curve" smooth="yes"/>
      <point x="299" y="211"/>
      <point x="375" y="238"/>
      <point x="419" y="298" type="curve"/>
      <point x="401" y="323" type="line"/>
      <point x="401" y="278" type="line"/>
      <point x="402" y="118"/>
      <point x="365" y="64"/>
      <point x="253" y="64" type="curve" smooth="yes"/>
      <point x="157" y="64"/>
      <point x="98" y="97"/>
      <point x="86" y="97" type="curve" smooth="yes"/>
      <point x="83" y="97"/>
      <point x="77" y="91"/>
      <point x="77" y="67" type="curve" smooth="yes"/>
      <point x="77" y="63"/>
      <point x="77" y="49"/>
      <point x="78" y="42" type="curve" smooth="yes"/>
      <point x="81" y="21"/>
      <point x="159" y="-8"/>
    </contour>
  </outline>
</glyph>
<glyph name=".notdef" format="2">
  <advance width="514"/>
  <outline>
    <contour>
      <point x="7" y="0" type="line"/>
      <point x="507" y="0" type="line"/>
      <point x="507" y="700" type="line"/>
      <point x="7" y="700" type="line"/>
    </contour>
    <contour>
      <point x="87" y="50" type="line"/>
      <point x="256" y="305" type="line"/>
      <point x="427" y="50" type="line"/>
    </contour>
    <contour>
      <point x="56" y="95" type="line"/>
      <point x="56" y="605" type="line"/>
      <point x="227" y="350" type="line"/>
    </contour>
    <contour>
      <point x="456" y="95" type="line"/>
      <point x="287" y="350" type="line"/>
      <point x="456" y="605" type="line"/>
    </contour>
    <contour>
      <point x="257" y="395" type="line"/>
      <point x="86" y="650" type="line"/>
      <point x="426" y="650" type="line"/>
    </contour>
  </outline>
</glyph>
<glyph name="acute.loclPLK" format="2">
  <advance width="320"/>
  <anchor x="114" y="523" name="_top"/>
  <outline>
    <contour>
      <point x="97" y="585" type="curve" smooth="yes"/>
      <point x="118" y="585"/>
      <point x="137" y="591"/>
      <point x="148" y="603" type="curve" smooth="yes"/>
      <point x="233.5" y="697.5"/>
      <point x="242" y="708"/>
      <point x="242" y="719" type="curve" smooth="yes"/>
      <point x="242" y="729"/>
      <point x="226" y="732"/>
      <point x="194" y="732" type="curve" smooth="yes"/>
      <point x="162" y="732"/>
      <point x="143" y="725"/>
      <point x="132" y="706" type="curve" smooth="yes"/>
      <point x="86" y="626"/>
      <point x="74" y="605"/>
      <point x="74" y="595" type="curve" smooth="yes"/>
      <point x="74" y="588"/>
      <point x="81" y="585"/>
    </contour>
  </outline>
</glyph>
<glyph name="baraccentlong" format="2">
  <advance width="517"/>
  <anchor x="266" y="317" name="_center"/>
  <outline>
    <contour>
      <point x="-33" y="285" type="curve"/>
      <point x="550" y="285" type="line" smooth="yes"/>
      <point x="564" y="285"/>
      <point x="570" y="294"/>
      <point x="570" y="315" type="curve" smooth="yes"/>
      <point x="570" y="325" type="line" smooth="yes"/>
      <point x="570" y="346"/>
      <point x="564" y="355"/>
      <point x="550" y="355" type="curve" smooth="yes"/>
      <point x="-33" y="355" type="line" smooth="yes"/>
      <point x="-47" y="355"/>
      <point x="-53" y="346"/>
      <point x="-53" y="325" type="curve" smooth="yes"/>
      <point x="-53" y="315" type="line" smooth="yes"/>
      <point x="-53" y="294"/>
      <point x="-47" y="285"/>
    </contour>
  </outline>
</glyph>
<glyph name="baraccentmedium" format="2">
  <advance width="417"/>
  <anchor x="205" y="317" name="_center"/>
  <outline>
    <contour>
      <point x="27" y="285" type="curve"/>
      <point x="390" y="285" type="line" smooth="yes"/>
      <point x="404" y="285"/>
      <point x="410" y="294"/>
      <point x="410" y="315" type="curve" smooth="yes"/>
      <point x="410" y="325" type="line" smooth="yes"/>
      <point x="410" y="346"/>
      <point x="404" y="355"/>
      <point x="390" y="355" type="curve" smooth="yes"/>
      <point x="27" y="355" type="line" smooth="yes"/>
      <point x="13" y="355"/>
      <point x="7" y="346"/>
      <point x="7" y="325" type="curve" smooth="yes"/>
      <point x="7" y="315" type="line" smooth="yes"/>
      <point x="7" y="294"/>
      <point x="13" y="285"/>
    </contour>
  </outline>
</glyph>
<glyph name="breve.alt" format="2">
  <advance width="320"/>
  <anchor x="157.5" y="523" name="_top"/>
  <anchor x="162" y="776" name="tilde"/>
  <anchor x="158" y="671" name="top"/>
  <outline>
    <contour>
      <point x="158" y="585" type="curve" smooth="yes"/>
      <point x="229" y="585"/>
      <point x="302" y="623"/>
      <point x="302" y="700" type="curve" smooth="yes"/>
      <point x="302" y="710"/>
      <point x="298" y="715"/>
      <point x="287" y="715" type="curve" smooth="yes"/>
      <point x="270" y="715"/>
      <point x="273" y="706"/>
      <point x="265" y="690" type="curve" smooth="yes"/>
      <point x="250.5" y="661.5"/>
      <point x="207" y="651"/>
      <point x="158" y="651" type="curve" smooth="yes"/>
      <point x="109" y="651"/>
      <point x="65" y="662"/>
      <point x="50" y="690" type="curve" smooth="yes"/>
      <point x="41.5" y="706"/>
      <point x="45" y="715"/>
      <point x="28" y="715" type="curve" smooth="yes"/>
      <point x="17" y="715"/>
      <point x="13" y="710"/>
      <point x="13" y="700" type="curve" smooth="yes"/>
      <point x="13" y="623"/>
      <point x="86" y="585"/>
    </contour>
  </outline>
</glyph>
<glyph name="caron.alt" format="2">
  <advance width="320"/>
  <anchor x="-13" y="700" name="_caron"/>
  <outline>
    <contour>
      <point x="78" y="526" type="curve" smooth="yes"/>
      <point x="102" y="526"/>
      <point x="151" y="582"/>
      <point x="151" y="672" type="curve" smooth="yes"/>
      <point x="151" y="689"/>
      <point x="136" y="700"/>
      <point x="111" y="700" type="curve" smooth="yes"/>
      <point x="102" y="700" type="line" smooth="yes"/>
      <point x="75" y="700"/>
      <point x="62" y="687"/>
      <point x="62" y="668" type="curve" smooth="yes"/>
      <point x="62" y="597"/>
      <point x="49" y="562"/>
      <point x="49" y="541" type="curve" smooth="yes"/>
      <point x="49" y="529"/>
      <point x="67" y="526"/>
    </contour>
  </outline>
</glyph>
<glyph name="circumflex.alt2" format="2">
  <advance width="320"/>
  <anchor x="157" y="523" name="_top"/>
  <anchor x="159" y="671" name="top"/>
  <outline>
    <contour>
      <point x="59" y="576" type="curve"/>
      <point x="61" y="576" type="line"/>
      <point x="75" y="576"/>
      <point x="85" y="580"/>
      <point x="95" y="589" type="curve"/>
      <point x="156" y="663" type="line"/>
      <point x="219" y="589" type="line"/>
      <point x="229" y="580"/>
      <point x="239" y="576"/>
      <point x="252" y="576" type="curve"/>
      <point x="254" y="576" type="line"/>
      <point x="270" y="576"/>
      <point x="278" y="582"/>
      <point x="278" y="591" type="curve" smooth="yes"/>
      <point x="278" y="596"/>
      <point x="276" y="602"/>
      <point x="272" y="608" type="curve" smooth="yes"/>
      <point x="215" y="696" type="line" smooth="yes"/>
      <point x="205" y="711"/>
      <point x="189" y="718"/>
      <point x="169" y="718" type="curve" smooth="yes"/>
      <point x="144" y="718" type="line" smooth="yes"/>
      <point x="124" y="718"/>
      <point x="108" y="711"/>
      <point x="98" y="696" type="curve" smooth="yes"/>
      <point x="42" y="608" type="line" smooth="yes"/>
      <point x="38" y="601"/>
      <point x="36" y="595"/>
      <point x="36" y="590" type="curve" smooth="yes"/>
      <point x="36" y="581"/>
      <point x="44" y="576"/>
    </contour>
  </outline>
</glyph>
